<?xml version="1.0" encoding="UTF-8"?>
<svg id="Layer_1" data-name="Layer 1" xmlns="http://www.w3.org/2000/svg" viewBox="0 0 384 384">
  <defs>
    <style>
      .cls-1 {
        fill: #bcbec0;
      }

      .cls-2 {
        fill: #fff;
      }
    </style>
  </defs>
  <path class="cls-2" d="M128.75,27.95c-1.75-1.8-5.8-3.2-8.34-3.28-27.34,1.89-57.85-2.41-84.81,0-7.95.71-11.04,4.63-11.63,12.35-2.04,27.04,1.61,56.59,0,83.9.13,9.02,9.88,14.33,17.68,10.1l28.38-26.91,61.59,60.59c20.72,12.97,45.04-10.79,33.25-31.68l-61.3-62.38,26.97-28.32c2.74-3.55,1.13-11.36-1.78-14.36ZM261.55,24.88c-9.75,2.35-12.32,12.29-6.19,20.04,2.97,3.76,25.39,23.94,25.08,25.71l-58.46,58.47c-18.57,21.43,10.01,51.67,32.62,34.06l59.37-59.06c9.31,6.61,16.89,18.04,25.76,25.03,8.23,6.48,17.65,2.92,20.19-6.81-1.74-27.71,2.55-58.72.1-86.05-.66-7.34-4.28-10.95-11.62-11.6-27.54-2.46-58.92,1.76-86.85.21ZM128.75,356.8c2.91-3,4.51-10.82,1.78-14.36l-26.97-28.32,61.3-62.38c11.8-20.89-12.52-44.66-33.25-31.68l-61.59,60.59c-9.31-6.61-16.89-18.05-25.76-25.03s-19.07-2.48-20.29,8.21c1.89,27.29-2.41,57.73,0,84.65.66,7.34,4.28,10.95,11.62,11.6,26.96,2.41,57.47-1.89,84.81,0,2.54-.08,6.59-1.47,8.34-3.28ZM356.75,255.51c-3.22-3.09-10.57-4.53-14.39-1.77l-28.38,26.91-62.5-61.18c-20.93-11.78-44.75,12.5-31.75,33.18l60.71,61.47c-6.62,9.3-18.08,16.86-25.08,25.71s-2.49,19.03,8.23,20.25c27.35-1.89,57.84,2.41,84.81,0,7.36-.66,10.97-4.28,11.62-11.6,2.42-26.91-1.89-57.36,0-84.65-.08-2.52-1.48-6.59-3.28-8.32Z"/>
  <path class="cls-1" d="M128.75,27.95c2.91,3,4.51,10.82,1.78,14.36l-26.97,28.32,61.3,62.38c11.8,20.89-12.52,44.66-33.25,31.68l-61.59-60.59-28.38,26.91c-7.79,4.24-17.54-1.08-17.68-10.1,1.61-27.31-2.04-56.85,0-83.9.58-7.72,3.67-11.64,11.63-12.35,26.96-2.41,57.47,1.89,84.81,0,2.54.08,6.59,1.47,8.34,3.28Z"/>
  <path class="cls-1" d="M261.55,24.88c27.93,1.55,59.31-2.67,86.85-.21,7.34.66,10.97,4.26,11.62,11.6,2.45,27.33-1.84,58.33-.1,86.05-2.54,9.73-11.96,13.29-20.19,6.81-8.87-6.98-16.45-18.42-25.76-25.03l-59.37,59.06c-22.61,17.61-51.19-12.63-32.62-34.06l58.46-58.47c.31-1.77-22.11-21.95-25.08-25.71-6.13-7.75-3.56-17.69,6.19-20.04Z"/>
  <path class="cls-1" d="M356.75,255.51c1.8,1.73,3.2,5.8,3.28,8.32-1.89,27.29,2.42,57.73,0,84.65-.66,7.33-4.27,10.95-11.62,11.6-26.97,2.41-57.46-1.89-84.81,0-10.71-1.21-15.03-11.63-8.23-20.25s18.46-16.42,25.08-25.71l-60.71-61.47c-13-20.68,10.81-44.96,31.75-33.18l62.5,61.18,28.38-26.91c3.82-2.76,11.18-1.32,14.39,1.77Z"/>
  <path class="cls-1" d="M128.75,356.8c-1.75,1.8-5.8,3.2-8.34,3.28-27.34-1.89-57.85,2.41-84.81,0-7.34-.66-10.97-4.26-11.62-11.6-2.41-26.92,1.89-57.35,0-84.65,1.22-10.69,11.65-15.01,20.29-8.21s16.45,18.42,25.76,25.03l61.59-60.59c20.72-12.97,45.04,10.79,33.25,31.68l-61.3,62.38,26.97,28.32c2.74,3.55,1.13,11.36-1.78,14.36Z"/>
</svg>