<?xml version="1.0" encoding="utf-8"?>
<!-- Generator: Adobe Illustrator 27.9.0, SVG Export Plug-In . SVG Version: 6.00 Build 0)  -->
<!DOCTYPE svg PUBLIC "-//W3C//DTD SVG 1.1//EN" "http://www.w3.org/Graphics/SVG/1.1/DTD/svg11.dtd" [
	<!ENTITY ns_extend "http://ns.adobe.com/Extensibility/1.0/">
	<!ENTITY ns_ai "http://ns.adobe.com/AdobeIllustrator/10.0/">
	<!ENTITY ns_graphs "http://ns.adobe.com/Graphs/1.0/">
	<!ENTITY ns_vars "http://ns.adobe.com/Variables/1.0/">
	<!ENTITY ns_imrep "http://ns.adobe.com/ImageReplacement/1.0/">
	<!ENTITY ns_sfw "http://ns.adobe.com/SaveForWeb/1.0/">
	<!ENTITY ns_custom "http://ns.adobe.com/GenericCustomNamespace/1.0/">
	<!ENTITY ns_adobe_xpath "http://ns.adobe.com/XPath/1.0/">
]>
<svg version="1.1" id="Layer_1" xmlns:x="&ns_extend;" xmlns:i="&ns_ai;" xmlns:graph="&ns_graphs;"
	 xmlns="http://www.w3.org/2000/svg" xmlns:xlink="http://www.w3.org/1999/xlink" x="0px" y="0px" viewBox="0 0 406.4 142"
	 style="enable-background:new 0 0 406.4 142;" xml:space="preserve">
<style type="text/css">
	.st0{fill:#FFC709;}
</style>
<metadata>
	<sfw  xmlns="&ns_sfw;">
		<slices></slices>
		<sliceSourceBounds  bottomLeftOrigin="true" height="16383" width="406.4" x="3.2" y="-8263"></sliceSourceBounds>
	</sfw>
</metadata>
<g>
	<rect x="3.2" y="70.4" class="st0" width="400.6" height="68.4"/>
</g>
<g>
	<path d="M21.7,89h8.5l6.7,13.8L43.6,89H52v31.9h-7v-17.8l0-1.7l-5.5,11h-5.3l-5.5-11l0,1.7v17.8h-7V89z"/>
	<path d="M57.2,112.6c0-3.9,1.8-7,5.7-8.2c-2.3-0.8-4.7-3.5-4.7-7.3c0-4.9,4.3-8.8,10.9-8.8c6.6,0,10.9,3.9,10.9,8.8
		c0,3.8-2.4,6.5-4.7,7.3c3.9,1.2,5.7,4.3,5.7,8.2c0,5.3-4.9,9-11.9,9C62.1,121.6,57.2,117.9,57.2,112.6z M69.1,115.3
		c3.1,0,4.9-1.7,4.9-3.8c0-2.1-1.9-3.9-4.9-3.9c-2.9,0-4.9,1.9-4.9,3.9C64.2,113.6,65.9,115.3,69.1,115.3z M69.1,101.2
		c2.4,0,3.9-1.7,3.9-3.4c0-1.8-1.5-3.3-3.9-3.3c-2.4,0-3.9,1.5-3.9,3.3C65.2,99.6,66.7,101.2,69.1,101.2z"/>
	<path d="M84.2,104.9c0-10.1,5.3-16.7,14.2-16.7s14.1,6.6,14.2,16.7c0,10.1-5.3,16.7-14.2,16.7S84.2,115.1,84.2,104.9z M98.4,115.3
		c4.6,0,7.2-3.8,7.2-10.4s-2.6-10.4-7.2-10.4s-7.2,3.8-7.2,10.4S93.8,115.3,98.4,115.3z"/>
	<path d="M128.5,89h12.1c7.5,0,12.1,4.2,12.1,10.9c0,4.7-2.1,8.1-5.8,9.8l5.9,11.2h-7.7l-5.2-10h-4.4v10h-7V89z M140.7,104.6
		c3.4,0,5.1-1.7,5.1-4.7c0-3-1.7-4.7-5.1-4.7h-5.1v9.3H140.7z"/>
	<path d="M158.1,115.9h4.5v-22h-4.5v-5h16v5h-4.5v22h4.5v5h-16V115.9z"/>
	<path d="M180.2,89h7.3l10.7,18.3l0-2V89h7v31.9h-7.3l-10.7-18.3l0,2v16.4h-7V89z"/>
	<path d="M210.7,104.9c0-10.6,7.8-16.7,16.3-16.7c7,0,11.8,3.2,14.1,8.6l-6.2,2.1c-1.5-3.1-4.2-4.4-7.8-4.4c-4.9,0-9.3,3.7-9.3,10.4
		s4.4,10.4,9.3,10.4c4.7,0,8-2.1,8-5.8h-8v-6.3h15v17.7h-6.2l-0.3-2.3c-2.4,2.1-5.2,3.1-8.5,3.1
		C218.4,121.6,210.7,115.5,210.7,104.9z"/>
	<path d="M260.5,89h12.1c7.5,0,12.1,4.2,12.1,10.9c0,4.7-2.1,8.1-5.8,9.8l5.9,11.2h-7.7l-5.2-10h-4.4v10h-7V89z M272.7,104.6
		c3.4,0,5.1-1.7,5.1-4.7c0-3-1.7-4.7-5.1-4.7h-5.1v9.3H272.7z"/>
	<path d="M288.9,104.9c0-9.7,6.7-16.7,16.2-16.7s16.2,7,16.2,16.7s-6.7,16.7-16.2,16.7S288.9,114.6,288.9,104.9z M305,115.3
		c5.5,0,9.2-4.1,9.2-10.4s-3.6-10.4-9.2-10.4c-5.6,0-9.2,4.1-9.2,10.4C295.9,111.2,299.5,115.3,305,115.3z"/>
	<path d="M342,89l10.2,31.9h-7.3l-1.9-6.4h-10.5l-1.9,6.4h-7.2L333.5,89H342z M341,108.2l-1.9-6.3l-1.4-4.8l-1.4,4.8l-2,6.3H341z"/>
	<path d="M356.5,89h12.8c8.2,0,15.7,5.9,15.7,16s-7.5,16-15.7,16h-12.8V89z M369.3,114.6c4.5,0,8.7-3.6,8.7-9.7s-4.2-9.7-8.7-9.7
		h-5.8v19.3H369.3z"/>
</g>
<g>
	<path d="M297.5,67.4V0H0v67.4v7V142h406.4V67.4H297.5z M290.5,7v60.4H123.6V7H290.5z M7,7h109.4v60.4H7V7z M399.4,135H7V74.4h290.5
		v0h101.9V135z"/>
	<path d="M40.3,36.7c3.1-0.8,4.6-3.5,4.6-6.7c0-6-3.7-8.6-10.3-8.6H21.7v31.9h12.9c6.9,0,11.1-3.4,11.1-8.9
		C45.6,40.3,43.6,37.4,40.3,36.7z M28.7,27.7h5.8c1.9,0,3.3,1,3.3,3.1c0,2.2-1.4,3.1-3.3,3.1h-5.8V27.7z M34.6,47h-5.9v-6.7h5.9
		c2.5,0,4,1.2,4,3.4S37.1,47,34.6,47z"/>
	<polygon points="50.8,26.4 55.2,26.4 55.2,48.4 50.8,48.4 50.8,53.3 66.7,53.3 66.7,48.4 62.2,48.4 62.2,26.4 66.7,26.4 66.7,21.4 
		50.8,21.4 	"/>
	<path d="M87.5,35.6v6.3h8c0,3.8-3.2,5.8-8,5.8c-4.9,0-9.3-3.7-9.3-10.4S82.6,27,87.5,27c3.6,0,6.3,1.2,7.8,4.4l6.2-2.1
		c-2.3-5.4-7.1-8.6-14.1-8.6c-8.6,0-16.3,6.1-16.3,16.7C71.2,47.9,79,54,87.5,54c3.3,0,6.1-1,8.5-3.1l0.3,2.3h6.2V35.6H87.5z"/>
	<path d="M163,44.5c0-4.1-2-7-5.4-7.8c3.1-0.8,4.6-3.5,4.6-6.7c0-6-3.7-8.6-10.3-8.6h-12.9v31.9h12.9C158.8,53.3,163,49.9,163,44.5z
		 M146.1,27.7h5.8c1.9,0,3.3,1,3.3,3.1s-1.4,3.1-3.3,3.1h-5.8V27.7z M146.1,40.3h5.9c2.5,0,4,1.2,4,3.4c0,2.2-1.6,3.4-4,3.4h-5.9
		V40.3z"/>
	<path d="M180.7,54c8.2,0,12.5-4.2,12.5-11.9V21.4h-7v20.2c0,4-1.6,6.1-5.5,6.1s-5.5-2.1-5.5-6.1V21.4h-7v20.7
		C168.3,49.9,172.6,54,180.7,54z"/>
	<polygon points="214.8,48.4 210.4,48.4 210.4,26.4 214.8,26.4 214.8,21.4 198.9,21.4 198.9,26.4 203.4,26.4 203.4,48.4 198.9,48.4 
		198.9,53.3 214.8,53.3 	"/>
	<polygon points="243.8,47 228.5,47 228.5,21.4 221.5,21.4 221.5,53.3 243.8,53.3 	"/>
	<path d="M276.4,37.4c0-10.1-7.5-16-15.7-16H248v31.9h12.8C268.9,53.3,276.4,47.4,276.4,37.4z M255,27.7h5.8c4.5,0,8.7,3.6,8.7,9.7
		s-4.2,9.7-8.7,9.7H255V27.7z"/>
</g>
</svg>
