<?xml version="1.0" encoding="iso-8859-1"?>
<!-- Generator: Adobe Illustrator 29.8.1, SVG Export Plug-In . SVG Version: 9.03 Build 0)  -->
<svg version="1.1" id="a" xmlns="http://www.w3.org/2000/svg" xmlns:xlink="http://www.w3.org/1999/xlink" x="0px" y="0px"
	 viewBox="0 0 393.88 129.12" style="enable-background:new 0 0 393.88 129.12;" xml:space="preserve">
<g>
	<path style="fill:#FFFFFF;" d="M354.38,127.62H39.5c-20.99,0-38-17.01-38-38V39.5c0-20.99,17.01-38,38-38h314.88
		c20.99,0,38,17.01,38,38v50.12C392.38,110.61,375.37,127.62,354.38,127.62z"/>
	<path d="M354.38,129.12H39.5C17.72,129.12,0,111.4,0,89.62V39.5C0,17.72,17.72,0,39.5,0h314.88c21.78,0,39.5,17.72,39.5,39.5v50.12
		C393.88,111.4,376.16,129.12,354.38,129.12z M39.5,3C19.37,3,3,19.37,3,39.5v50.12c0,20.13,16.37,36.5,36.5,36.5h314.88
		c20.13,0,36.5-16.37,36.5-36.5V39.5c0-20.13-16.37-36.5-36.5-36.5H39.5z"/>
	<g style="enable-background:new    ;">
		<path style="fill:#231F20;" d="M46,48.47c0,0,2.85,3.28,6.71,3.28c2.11,0,3.98-1.13,3.98-3.28c0-4.72-13.03-4.33-13.03-12.95
			c0-4.49,3.9-7.8,9.25-7.8c3.24,0,8.23,1.52,8.23,5.46v2.58h-4.6v-1.25c0-1.29-1.83-2.15-3.67-2.15c-2.34,0-4.06,1.21-4.06,2.97
			c0,4.72,13.03,3.78,13.03,12.88c0,4.41-3.39,8.15-9.21,8.15c-6.13,0-9.52-4.29-9.52-4.29L46,48.48L46,48.47z"/>
		<path style="fill:#231F20;" d="M66.61,39.92h-2.58v-3.94h2.69v-5.42h4.84v5.42h4.53v3.94h-4.53v8.04c0,3.28,2.58,3.75,3.94,3.75
			c0.55,0,0.9-0.08,0.9-0.08v4.33c0,0-0.62,0.12-1.52,0.12c-2.77,0-8.27-0.82-8.27-7.49v-8.66L66.61,39.92z"/>
		<path style="fill:#231F20;" d="M89.55,35.51c6.09,0,10.92,4.33,10.92,10.42s-4.84,10.42-10.92,10.42s-10.89-4.29-10.89-10.42
			S83.5,35.51,89.55,35.51z M89.55,52.13c3.24,0,5.93-2.5,5.93-6.2s-2.69-6.2-5.93-6.2s-5.89,2.54-5.89,6.2S86.35,52.13,89.55,52.13
			z"/>
		<path style="fill:#231F20;" d="M104.97,41.05c0-0.58-0.31-0.86-0.86-0.86h-1.56v-4.21h4.53c1.76,0,2.65,0.74,2.65,2.42v1.17
			c0,0.74-0.08,1.25-0.08,1.25h0.08c0.9-2.85,3.28-5.11,6.32-5.11c0.43,0,0.9,0.08,0.9,0.08v4.88c0,0-0.51-0.08-1.21-0.08
			c-2.11,0-4.53,1.21-5.42,4.17c-0.27,0.98-0.43,2.07-0.43,3.24v7.88h-4.92V41.05L104.97,41.05z"/>
		<path style="fill:#231F20;" d="M128.42,35.51c5.7,0,8.82,4.17,8.82,9.44c0,0.58-0.12,1.83-0.12,1.83h-13.73
			c0.39,3.51,2.97,5.34,5.97,5.34c3.2,0,5.58-2.22,5.58-2.22l2.07,3.43c0,0-3.04,3-8,3c-6.59,0-10.69-4.76-10.69-10.42
			c0-6.13,4.14-10.42,10.11-10.42L128.42,35.51z M132.16,43.35c-0.08-2.38-1.72-4.02-3.75-4.02c-2.54,0-4.33,1.52-4.88,4.02h8.62
			H132.16z"/>
		<path style="fill:#231F20;" d="M143.6,59.9c1.37,0,2.58-0.82,3.28-2.54l0.66-1.52l-6.63-14.94c-0.23-0.58-0.51-0.7-1.05-0.7h-0.58
			v-4.21h3.28c1.4,0,2.11,0.51,2.61,1.87l3.9,9.95c0.39,1.01,0.7,2.65,0.7,2.65h0.08c0,0,0.31-1.64,0.66-2.65l3.39-9.95
			c0.47-1.37,1.29-1.87,2.65-1.87h3.36v4.21h-0.58c-0.59,0-0.9,0.12-1.13,0.7l-7.14,17.99c-1.4,3.59-4.21,5.19-7.18,5.19
			c-3.12,0-5.03-2.03-5.03-2.03l1.91-3.51c0,0,1.21,1.37,2.85,1.37L143.6,59.9z"/>
		<path style="fill:#231F20;" d="M174.58,33.37c0-0.55-0.31-0.86-0.86-0.86h-1.68v-4.33h4.99c1.87,0,2.65,0.82,2.65,2.65v9.09h12.21
			v-9.09c0-1.83,0.82-2.65,2.65-2.65h4.99v4.33h-1.68c-0.55,0-0.86,0.31-0.86,0.86v22.51h-5.11V44.25h-12.21v11.63h-5.11V33.37
			H174.58z"/>
		<path style="fill:#231F20;" d="M213.6,43.39h0.62v-0.16c0-2.85-1.13-3.9-3.67-3.9c-0.9,0-2.65,0.23-2.65,1.33v1.05h-4.6V39.6
			c0-3.71,5.23-4.1,7.3-4.1c6.63,0,8.58,3.47,8.58,7.92v7.41c0,0.55,0.31,0.86,0.86,0.86h1.56v4.17h-4.45
			c-1.83,0-2.54-1.01-2.54-2.18c0-0.51,0.04-0.86,0.04-0.86h-0.08c0,0-1.52,3.51-6.01,3.51c-3.55,0-6.79-2.22-6.79-6.2
			c0-6.24,8.58-6.75,11.82-6.75L213.6,43.39z M209.78,52.48c2.65,0,4.53-2.81,4.53-5.23v-0.47h-0.86c-2.58,0-6.67,0.35-6.67,3.12
			C206.78,51.23,207.76,52.48,209.78,52.48L209.78,52.48z"/>
		<path style="fill:#231F20;" d="M225.46,33.25c0-0.58-0.31-0.86-0.86-0.86h-1.56v-4.21h4.72c1.83,0,2.65,0.82,2.65,2.65v20.02
			c0,0.55,0.31,0.86,0.86,0.86h1.52v4.17h-4.68c-1.87,0-2.65-0.78-2.65-2.65V33.25z"/>
		<path style="fill:#231F20;" d="M236.82,33.25c0-0.58-0.31-0.86-0.86-0.86h-1.56v-4.21h4.72c1.83,0,2.65,0.82,2.65,2.65v20.02
			c0,0.55,0.31,0.86,0.86,0.86h1.52v4.17h-4.68c-1.87,0-2.65-0.78-2.65-2.65V33.25z"/>
		<path style="fill:#231F20;" d="M263.12,26.97h4.21c-2.97,4.96-4.37,10.26-4.37,15.84s1.52,11.59,4.49,16.78h-4.21
			c-3.08-4.53-4.68-10.46-4.68-16.43S260.04,31.57,263.12,26.97L263.12,26.97z"/>
		<path style="fill:#231F20;" d="M272.91,32.51h-2.54v-4.33h11.98c4.99,0,8.58,2.58,8.58,7.14c0,3.08-1.68,5.07-3.35,5.93v0.08
			c3,0.9,4.45,3.71,4.45,6.52c0,5.54-4.41,8.04-9.56,8.04h-6.91c-1.83,0-2.65-0.78-2.65-2.65V32.52L272.91,32.51z M282.39,39.49
			c2.15,0,3.36-1.56,3.36-3.55s-1.17-3.43-3.43-3.43h-4.29v6.98h4.37H282.39z M278.88,51.55h3.98c2.5,0,3.9-1.68,3.9-4.02
			s-1.44-3.98-3.9-3.98h-4.84v7.14C278.02,51.24,278.33,51.55,278.88,51.55L278.88,51.55z"/>
		<path style="fill:#231F20;" d="M296.13,51.55h5.97V36.18c0-0.94,0.04-1.87,0.04-1.87h-0.08c0,0-0.31,0.66-1.21,1.56l-2.22,2.11
			l-2.96-3.12l6.95-6.67h4.6v23.37h5.97v4.33h-17.05v-4.33L296.13,51.55z"/>
		<path style="fill:#231F20;" d="M315.21,43.47c0-7.37,4.17-15.76,12.76-15.76c3.51,0,5.7,1.17,5.7,1.17l-1.48,4.33
			c0,0-1.79-0.86-3.9-0.86c-4.33,0-6.67,3.63-7.34,7.53h0.08c0.94-1.21,3.16-2.03,5.15-2.03c5.46,0,8.86,4.25,8.86,9.21
			s-3.63,9.29-9.09,9.29c-5.77,0-10.73-4.68-10.73-12.88H315.21z M325.9,51.74c2.61,0,4.17-2.07,4.17-4.68
			c0-2.77-1.76-5.07-5.07-5.07c-2.46,0-4.53,1.33-4.53,3c0,3.47,2.54,6.75,5.42,6.75H325.9z"/>
		<path style="fill:#231F20;" d="M342.49,42.81c0-5.58-1.4-10.89-4.37-15.84h4.21c3.08,4.6,4.6,10.3,4.6,16.19s-1.6,11.9-4.68,16.43
			H338C340.97,54.4,342.49,48.59,342.49,42.81L342.49,42.81z"/>
	</g>
	<g style="enable-background:new    ;">
		<path style="fill:#231F20;" d="M116.89,79.33h-2.54V75h16.74c1.83,0,2.65,0.82,2.65,2.65v4.21h-4.64v-1.68
			c0-0.55-0.31-0.86-0.86-0.86H122v7.26h8.97v4.33H122v6.59c0,0.55,0.31,0.86,0.86,0.86h6.4c0.55,0,0.86-0.31,0.86-0.86v-1.68h4.64
			v4.21c0,1.87-0.82,2.65-2.65,2.65h-12.56c-1.87,0-2.65-0.78-2.65-2.65V79.31L116.89,79.33z"/>
		<path style="fill:#231F20;" d="M138.82,87.88c0-0.58-0.31-0.86-0.86-0.86h-1.56v-4.21h4.57c1.76,0,2.61,0.82,2.61,2.22v0.59
			c0,0.43-0.08,0.86-0.08,0.86h0.08c0.86-1.68,3-4.14,7.02-4.14c4.41,0,6.95,2.3,6.95,7.57v7.76c0,0.55,0.31,0.86,0.86,0.86h1.56
			v4.17h-4.72c-1.87,0-2.65-0.78-2.65-2.65v-9.13c0-2.42-0.62-4.06-3.12-4.06c-2.65,0-4.64,1.68-5.35,4.06
			c-0.27,0.82-0.39,1.72-0.39,2.65v9.13h-4.92V87.87L138.82,87.88z"/>
		<path style="fill:#231F20;" d="M163.98,86.75h-2.58v-3.94h2.69v-5.42h4.84v5.42h4.53v3.94h-4.53v8.04c0,3.28,2.58,3.75,3.94,3.75
			c0.55,0,0.9-0.08,0.9-0.08v4.33c0,0-0.62,0.12-1.52,0.12c-2.77,0-8.27-0.82-8.27-7.49v-8.66L163.98,86.75z"/>
		<path style="fill:#231F20;" d="M178.34,87.88c0-0.58-0.31-0.86-0.86-0.86h-1.56v-4.21h4.53c1.76,0,2.65,0.74,2.65,2.42v1.17
			c0,0.74-0.08,1.25-0.08,1.25h0.08c0.9-2.85,3.28-5.11,6.32-5.11c0.43,0,0.9,0.08,0.9,0.08v4.88c0,0-0.51-0.08-1.21-0.08
			c-2.11,0-4.53,1.21-5.42,4.17c-0.27,0.98-0.43,2.07-0.43,3.24v7.88h-4.92V87.88L178.34,87.88z"/>
		<path style="fill:#231F20;" d="M203.12,90.22h0.62v-0.16c0-2.85-1.13-3.9-3.67-3.9c-0.9,0-2.65,0.23-2.65,1.33v1.05h-4.6v-2.11
			c0-3.71,5.23-4.1,7.3-4.1c6.63,0,8.58,3.47,8.58,7.92v7.41c0,0.55,0.31,0.86,0.86,0.86h1.56v4.17h-4.45
			c-1.83,0-2.54-1.01-2.54-2.18c0-0.51,0.04-0.86,0.04-0.86h-0.08c0,0-1.52,3.51-6.01,3.51c-3.55,0-6.79-2.22-6.79-6.2
			c0-6.24,8.58-6.75,11.82-6.75L203.12,90.22z M199.3,99.31c2.65,0,4.53-2.81,4.53-5.23v-0.47h-0.86c-2.58,0-6.67,0.35-6.67,3.12
			C196.3,98.06,197.28,99.31,199.3,99.31L199.3,99.31z"/>
		<path style="fill:#231F20;" d="M215.1,87.88c0-0.58-0.31-0.86-0.86-0.86h-1.56v-4.21h4.57c1.76,0,2.61,0.82,2.61,2.22v0.59
			c0,0.43-0.08,0.86-0.08,0.86h0.08c0.86-1.68,3-4.14,7.02-4.14c4.41,0,6.95,2.3,6.95,7.57v7.76c0,0.55,0.31,0.86,0.86,0.86h1.56
			v4.17h-4.72c-1.87,0-2.65-0.78-2.65-2.65v-9.13c0-2.42-0.62-4.06-3.12-4.06c-2.65,0-4.64,1.68-5.35,4.06
			c-0.27,0.82-0.39,1.72-0.39,2.65v9.13h-4.92V87.87L215.1,87.88z"/>
		<path style="fill:#231F20;" d="M249.09,82.34c2.58,0,7.22,1.05,7.22,4.49v2.34h-4.37v-1.09c0-1.09-1.64-1.56-2.85-1.56
			c-3.43,0-5.89,2.61-5.89,6.2c0,4.06,3,6.13,6.2,6.13c3.39,0,5.89-2.69,5.89-2.69l2.07,3.43c0,0-2.96,3.59-8.39,3.59
			c-6.55,0-10.77-4.64-10.77-10.42S242.26,82.34,249.09,82.34L249.09,82.34z"/>
		<path style="fill:#231F20;" d="M269.3,82.34c5.7,0,8.82,4.17,8.82,9.44c0,0.58-0.12,1.83-0.12,1.83h-13.73
			c0.39,3.51,2.96,5.34,5.97,5.34c3.2,0,5.58-2.22,5.58-2.22l2.07,3.43c0,0-3.04,3-8,3c-6.59,0-10.69-4.76-10.69-10.42
			c0-6.13,4.14-10.42,10.11-10.42L269.3,82.34z M273.05,90.18c-0.08-2.38-1.72-4.02-3.75-4.02c-2.54,0-4.33,1.52-4.88,4.02h8.62
			H273.05z"/>
	</g>
</g>
</svg>
