<?xml version="1.0" encoding="iso-8859-1"?>
<!-- Generator: Adobe Illustrator 29.8.1, SVG Export Plug-In . SVG Version: 9.03 Build 0)  -->
<svg version="1.1" id="a" xmlns="http://www.w3.org/2000/svg" xmlns:xlink="http://www.w3.org/1999/xlink" x="0px" y="0px"
	 viewBox="0 0 171.4 56.66" style="enable-background:new 0 0 171.4 56.66;" xml:space="preserve">
<g>
	<path style="fill:#FFFFFF;" d="M21,0.99h129.4c11.046,0,20,8.954,20,20v14.66c0,11.046-8.954,20-20,20H21c-11.046,0-20-8.954-20-20
		V20.99C1,9.944,9.954,0.99,21,0.99z"/>
	<path d="M150.4,56.66H21c-11.58,0-21-9.42-21-21V21C0,9.42,9.42,0,21,0h129.4c11.58,0,21,9.42,21,21v14.66
		C171.4,47.24,161.98,56.66,150.4,56.66z M21,1.99c-10.48,0-19,8.52-19,19v14.66c0,10.48,8.52,19,19,19h129.4c10.48,0,19-8.52,19-19
		V20.99c0-10.48-8.52-19-19-19H21L21,1.99z"/>
	<path style="fill:#231F20;" d="M39.89,22.69h0.27c0.29,0,0.42-0.07,0.52-0.37l3.57-9.76h2.32l3.55,9.76
		c0.1,0.3,0.24,0.37,0.52,0.37h0.27v1.88h-1.32c-0.85,0-1.15-0.22-1.42-0.98l-0.74-2.1h-4.06l-0.74,2.1
		c-0.27,0.76-0.56,0.98-1.4,0.98h-1.34L39.89,22.69L39.89,22.69z M46.92,19.66l-1.03-3.01c-0.22-0.66-0.47-1.79-0.47-1.79h-0.03
		c0,0-0.25,1.13-0.47,1.79l-1.03,3.01h3.04H46.92z"/>
	<path style="fill:#231F20;" d="M52.23,18.14c0-0.25-0.13-0.37-0.37-0.37h-0.68v-1.83h2.05c0.79,0,1.13,0.35,1.13,1.13v3.97
		c0,1.05,0.27,1.76,1.33,1.76c1.56,0,2.42-1.37,2.42-2.91v-3.96h2.15v6.44c0,0.24,0.13,0.37,0.37,0.37h0.68v1.81h-1.98
		c-0.74,0-1.13-0.35-1.13-0.96v-0.24c0-0.2,0.02-0.39,0.02-0.39h-0.03c-0.41,0.9-1.49,1.79-2.98,1.79c-1.84,0-2.98-0.93-2.98-3.28
		v-3.35L52.23,18.14z"/>
	<path style="fill:#231F20;" d="M66.06,15.74c1.88,0,2.48,1.05,2.48,1.05h0.03c0,0-0.02-0.22-0.02-0.51v-1.52
		c0-0.25-0.14-0.37-0.37-0.37H67.5v-1.83h2.05c0.79,0,1.15,0.35,1.15,1.15v8.67c0,0.24,0.14,0.37,0.37,0.37h0.66v1.81h-1.98
		c-0.78,0-1.07-0.37-1.07-0.88v-0.32h-0.03c0,0-0.71,1.4-2.69,1.4c-2.33,0-3.84-1.84-3.84-4.51s1.64-4.51,3.92-4.51L66.06,15.74z
		 M68.61,20.23c0-1.34-0.69-2.65-2.13-2.65c-1.18,0-2.16,0.96-2.16,2.67s0.86,2.71,2.13,2.71c1.12,0,2.16-0.81,2.16-2.72V20.23z"/>
	<path style="fill:#231F20;" d="M73.47,18.14c0-0.25-0.13-0.37-0.37-0.37h-0.68v-1.83h2.05c0.79,0,1.13,0.35,1.13,1.15v5.29
		c0,0.24,0.13,0.37,0.37,0.37h0.68v1.81H74.6c-0.79,0-1.13-0.34-1.13-1.15v-5.28V18.14z M73.57,12.56h1.86v1.98h-1.86V12.56z"/>
	<path style="fill:#231F20;" d="M78.23,17.65h-1.12v-1.71h1.17v-2.35h2.1v2.35h1.96v1.71h-1.96v3.48c0,1.42,1.12,1.62,1.71,1.62
		c0.24,0,0.39-0.03,0.39-0.03v1.88c0,0-0.27,0.05-0.66,0.05c-1.2,0-3.58-0.35-3.58-3.25v-3.75H78.23z"/>
	<path style="fill:#231F20;" d="M87.94,15.74c2.64,0,4.73,1.88,4.73,4.51s-2.1,4.51-4.73,4.51s-4.72-1.86-4.72-4.51
		S85.32,15.74,87.94,15.74z M87.94,22.94c1.4,0,2.57-1.08,2.57-2.69s-1.17-2.69-2.57-2.69s-2.55,1.1-2.55,2.69
		S86.56,22.94,87.94,22.94z"/>
	<path style="fill:#231F20;" d="M94.51,18.14c0-0.25-0.14-0.37-0.37-0.37h-0.68v-1.83h1.96c0.76,0,1.15,0.32,1.15,1.05v0.51
		c0,0.32-0.03,0.54-0.03,0.54h0.03c0.39-1.23,1.42-2.21,2.74-2.21c0.19,0,0.39,0.03,0.39,0.03v2.11c0,0-0.22-0.03-0.52-0.03
		c-0.91,0-1.96,0.52-2.35,1.81c-0.12,0.42-0.19,0.9-0.19,1.4v3.42h-2.13v-6.42V18.14z"/>
	<path style="fill:#231F20;" d="M101.65,18.14c0-0.25-0.13-0.37-0.37-0.37h-0.68v-1.83h2.05c0.79,0,1.13,0.35,1.13,1.15v5.29
		c0,0.24,0.13,0.37,0.37,0.37h0.68v1.81h-2.05c-0.79,0-1.13-0.34-1.13-1.15v-5.28V18.14z M101.75,12.56h1.86v1.98h-1.86V12.56z"/>
	<path style="fill:#231F20;" d="M106.4,18.14c0-0.25-0.13-0.37-0.37-0.37h-0.68v-1.83h2.05c0.79,0,1.13,0.35,1.13,1.13v3.97
		c0,1.05,0.27,1.76,1.33,1.76c1.56,0,2.42-1.37,2.42-2.91v-3.96h2.15v6.44c0,0.24,0.13,0.37,0.37,0.37h0.68v1.81h-1.98
		c-0.74,0-1.13-0.35-1.13-0.96v-0.24c0-0.2,0.02-0.39,0.02-0.39h-0.03c-0.41,0.9-1.49,1.79-2.98,1.79c-1.84,0-2.98-0.93-2.98-3.28
		v-3.35L106.4,18.14z"/>
	<path style="fill:#231F20;" d="M117.16,18.14c0-0.25-0.14-0.37-0.37-0.37h-0.68v-1.83h1.98c0.76,0,1.13,0.35,1.13,0.96v0.25
		c0,0.19-0.02,0.37-0.02,0.37h0.03c0.41-0.85,1.44-1.79,2.79-1.79s2.15,0.61,2.52,1.77h0.03c0.46-0.93,1.57-1.77,2.94-1.77
		c1.79,0,2.82,1.01,2.82,3.28v3.36c0,0.24,0.13,0.37,0.37,0.37h0.66v1.81h-2.03c-0.81,0-1.15-0.34-1.15-1.15v-3.99
		c0-0.98-0.19-1.72-1.18-1.72c-1.07,0-1.83,0.9-2.06,1.98c-0.1,0.34-0.14,0.69-0.14,1.1v3.79h-2.15v-5.14
		c0-0.93-0.14-1.72-1.17-1.72c-1.08,0-1.81,0.9-2.08,2c-0.08,0.34-0.14,0.69-0.14,1.08v3.79h-2.13v-6.42L117.16,18.14z"/>
	<path style="fill:#231F20;" d="M65.16,34.73h-1.1v-1.88h6.85c0.81,0,1.15,0.35,1.15,1.15v1.83h-1.99V35.1
		c0-0.24-0.14-0.37-0.37-0.37h-2.32v3.4h3.84v1.88h-3.84v4.85h-2.21V34.73L65.16,34.73z"/>
	<path style="fill:#231F20;" d="M77.27,36.03c2.64,0,4.73,1.88,4.73,4.51s-2.1,4.51-4.73,4.51s-4.72-1.86-4.72-4.51
		S74.65,36.03,77.27,36.03z M77.27,43.23c1.4,0,2.57-1.08,2.57-2.69s-1.17-2.69-2.57-2.69s-2.55,1.1-2.55,2.69
		S75.89,43.23,77.27,43.23z"/>
	<path style="fill:#231F20;" d="M84.47,46.6c0.59,0,1.12-0.35,1.42-1.1l0.29-0.66l-2.87-6.48c-0.1-0.25-0.22-0.3-0.46-0.3H82.6
		v-1.83h1.42c0.61,0,0.91,0.22,1.13,0.81l1.69,4.31c0.17,0.44,0.3,1.15,0.3,1.15h0.03c0,0,0.14-0.71,0.29-1.15l1.47-4.31
		c0.2-0.59,0.56-0.81,1.15-0.81h1.45v1.83h-0.25c-0.25,0-0.39,0.05-0.49,0.3l-3.09,7.79c-0.61,1.56-1.83,2.25-3.11,2.25
		c-1.35,0-2.18-0.88-2.18-0.88L83.24,46c0,0,0.52,0.59,1.23,0.59L84.47,46.6z"/>
	<path style="fill:#231F20;" d="M96.55,36.03c2.47,0,3.82,1.81,3.82,4.09c0,0.25-0.05,0.79-0.05,0.79h-5.95
		c0.17,1.52,1.28,2.32,2.59,2.32c1.39,0,2.42-0.96,2.42-0.96l0.9,1.49c0,0-1.32,1.3-3.47,1.3c-2.86,0-4.63-2.06-4.63-4.51
		c0-2.65,1.79-4.51,4.38-4.51L96.55,36.03z M98.17,39.43c-0.03-1.03-0.74-1.74-1.62-1.74c-1.1,0-1.88,0.66-2.11,1.74h3.74H98.17z"/>
	<path style="fill:#231F20;" d="M102.35,38.43c0-0.25-0.14-0.37-0.37-0.37h-0.68v-1.83h1.96c0.76,0,1.15,0.32,1.15,1.05v0.51
		c0,0.32-0.03,0.54-0.03,0.54h0.03c0.39-1.23,1.42-2.21,2.74-2.21c0.19,0,0.39,0.03,0.39,0.03v2.11c0,0-0.22-0.03-0.52-0.03
		c-0.91,0-1.96,0.52-2.35,1.81c-0.12,0.42-0.19,0.9-0.19,1.4v3.42h-2.13v-6.42L102.35,38.43z"/>
</g>
</svg>
