<?xml version="1.0" encoding="iso-8859-1"?>
<!-- Generator: Adobe Illustrator 29.8.1, SVG Export Plug-In . SVG Version: 9.03 Build 0)  -->
<svg version="1.1" id="a" xmlns="http://www.w3.org/2000/svg" xmlns:xlink="http://www.w3.org/1999/xlink" x="0px" y="0px"
	 viewBox="0 0 171.4 56.66" style="enable-background:new 0 0 171.4 56.66;" xml:space="preserve">
<g>
	<path style="fill:#FFFFFF;" d="M21,0.99h129.4c11.046,0,20,8.954,20,20v14.66c0,11.046-8.954,20-20,20H21c-11.046,0-20-8.954-20-20
		V20.99C1,9.944,9.954,0.99,21,0.99z"/>
	<path d="M150.4,56.66H21c-11.58,0-21-9.42-21-21V21C0,9.42,9.42,0,21,0h129.4c11.58,0,21,9.42,21,21v14.66
		C171.4,47.24,161.98,56.66,150.4,56.66z M21,1.99c-10.48,0-19,8.52-19,19v14.66c0,10.48,8.52,19,19,19h129.4c10.48,0,19-8.52,19-19
		V20.99c0-10.48-8.52-19-19-19H21L21,1.99z"/>
	<path style="fill:#231F20;" d="M39.89,22.69h0.27c0.29,0,0.42-0.07,0.52-0.37l3.57-9.76h2.32l3.55,9.76
		c0.1,0.3,0.24,0.37,0.52,0.37h0.27v1.88h-1.32c-0.85,0-1.15-0.22-1.42-0.98l-0.74-2.1h-4.06l-0.74,2.1
		c-0.27,0.76-0.56,0.98-1.4,0.98h-1.34L39.89,22.69L39.89,22.69z M46.92,19.66l-1.03-3.01c-0.22-0.66-0.47-1.79-0.47-1.79h-0.03
		c0,0-0.25,1.13-0.47,1.79l-1.03,3.01h3.04H46.92z"/>
	<path style="fill:#231F20;" d="M52.23,18.14c0-0.25-0.14-0.37-0.37-0.37h-0.68v-1.83h2.05c0.79,0,1.13,0.35,1.13,1.13v3.97
		c0,1.05,0.27,1.76,1.34,1.76c1.56,0,2.42-1.37,2.42-2.91v-3.96h2.15v6.44c0,0.24,0.13,0.37,0.37,0.37h0.68v1.81h-1.98
		c-0.74,0-1.13-0.35-1.13-0.96v-0.24c0-0.2,0.02-0.39,0.02-0.39H58.2c-0.41,0.9-1.49,1.79-2.98,1.79c-1.84,0-2.98-0.93-2.98-3.28
		v-3.35L52.23,18.14z"/>
	<path style="fill:#231F20;" d="M66.06,15.74c1.88,0,2.49,1.05,2.49,1.05h0.03c0,0-0.02-0.22-0.02-0.51v-1.52
		c0-0.25-0.13-0.37-0.37-0.37h-0.68v-1.83h2.05c0.79,0,1.15,0.35,1.15,1.15v8.67c0,0.24,0.14,0.37,0.37,0.37h0.66v1.81h-1.98
		c-0.78,0-1.06-0.37-1.06-0.88v-0.32h-0.03c0,0-0.71,1.4-2.69,1.4c-2.33,0-3.84-1.84-3.84-4.51S63.78,15.74,66.06,15.74L66.06,15.74
		z M68.61,20.23c0-1.34-0.69-2.65-2.13-2.65c-1.18,0-2.16,0.96-2.16,2.67s0.86,2.71,2.13,2.71c1.12,0,2.16-0.81,2.16-2.72V20.23z"/>
	<path style="fill:#231F20;" d="M73.47,18.14c0-0.25-0.14-0.37-0.37-0.37h-0.68v-1.83h2.05c0.79,0,1.13,0.35,1.13,1.15v5.29
		c0,0.24,0.14,0.37,0.37,0.37h0.68v1.81H74.6c-0.79,0-1.13-0.34-1.13-1.15v-5.28V18.14z M73.57,12.56h1.86v1.98h-1.86V12.56z"/>
	<path style="fill:#231F20;" d="M78.23,17.65h-1.12v-1.71h1.17v-2.35h2.1v2.35h1.96v1.71h-1.96v3.48c0,1.42,1.12,1.62,1.71,1.62
		c0.24,0,0.39-0.03,0.39-0.03v1.88c0,0-0.27,0.05-0.66,0.05c-1.2,0-3.58-0.35-3.58-3.25v-3.75H78.23z"/>
	<path style="fill:#231F20;" d="M87.94,15.74c2.64,0,4.73,1.88,4.73,4.51s-2.1,4.51-4.73,4.51s-4.72-1.86-4.72-4.51
		S85.32,15.74,87.94,15.74z M87.94,22.94c1.4,0,2.57-1.08,2.57-2.69s-1.17-2.69-2.57-2.69s-2.55,1.1-2.55,2.69
		S86.56,22.94,87.94,22.94z"/>
	<path style="fill:#231F20;" d="M94.51,18.14c0-0.25-0.14-0.37-0.37-0.37h-0.68v-1.83h1.96c0.76,0,1.15,0.32,1.15,1.05v0.51
		c0,0.32-0.03,0.54-0.03,0.54h0.03c0.39-1.23,1.42-2.21,2.74-2.21c0.19,0,0.39,0.03,0.39,0.03v2.11c0,0-0.22-0.03-0.52-0.03
		c-0.91,0-1.96,0.52-2.35,1.81c-0.12,0.42-0.19,0.9-0.19,1.4v3.42h-2.13v-6.42V18.14z"/>
	<path style="fill:#231F20;" d="M101.65,18.14c0-0.25-0.14-0.37-0.37-0.37h-0.68v-1.83h2.05c0.79,0,1.13,0.35,1.13,1.15v5.29
		c0,0.24,0.14,0.37,0.37,0.37h0.68v1.81h-2.05c-0.79,0-1.13-0.34-1.13-1.15v-5.28V18.14z M101.75,12.56h1.86v1.98h-1.86V12.56z"/>
	<path style="fill:#231F20;" d="M106.4,18.14c0-0.25-0.14-0.37-0.37-0.37h-0.68v-1.83h2.05c0.79,0,1.13,0.35,1.13,1.13v3.97
		c0,1.05,0.27,1.76,1.34,1.76c1.56,0,2.42-1.37,2.42-2.91v-3.96h2.15v6.44c0,0.24,0.14,0.37,0.37,0.37h0.68v1.81h-1.98
		c-0.74,0-1.13-0.35-1.13-0.96v-0.24c0-0.2,0.02-0.39,0.02-0.39h-0.03c-0.41,0.9-1.49,1.79-2.98,1.79c-1.84,0-2.98-0.93-2.98-3.28
		v-3.35L106.4,18.14z"/>
	<path style="fill:#231F20;" d="M117.16,18.14c0-0.25-0.14-0.37-0.37-0.37h-0.68v-1.83h1.98c0.76,0,1.13,0.35,1.13,0.96v0.25
		c0,0.19-0.02,0.37-0.02,0.37h0.03c0.41-0.85,1.44-1.79,2.79-1.79s2.15,0.61,2.52,1.77h0.03c0.46-0.93,1.57-1.77,2.94-1.77
		c1.79,0,2.82,1.01,2.82,3.28v3.36c0,0.24,0.14,0.37,0.37,0.37h0.66v1.81h-2.03c-0.81,0-1.15-0.34-1.15-1.15v-3.99
		c0-0.98-0.19-1.72-1.18-1.72c-1.06,0-1.83,0.9-2.06,1.98c-0.1,0.34-0.14,0.69-0.14,1.1v3.79h-2.15v-5.14
		c0-0.93-0.14-1.72-1.17-1.72c-1.08,0-1.81,0.9-2.08,2c-0.08,0.34-0.14,0.69-0.14,1.08v3.79h-2.13v-6.42L117.16,18.14z"/>
	<path style="fill:#231F20;" d="M44.61,34.73h-1.1v-1.88h5.19c2.16,0,3.72,1.12,3.72,3.09c0,1.34-0.73,2.2-1.45,2.57v0.03
		c1.3,0.39,1.93,1.61,1.93,2.82c0,2.4-1.91,3.48-4.14,3.48h-2.99c-0.79,0-1.15-0.34-1.15-1.15v-8.98L44.61,34.73z M48.72,37.76
		c0.93,0,1.45-0.68,1.45-1.54s-0.51-1.49-1.49-1.49h-1.86v3.03h1.89H48.72z M47.2,42.98h1.72c1.08,0,1.69-0.73,1.69-1.74
		s-0.63-1.72-1.69-1.72h-2.1v3.09c0,0.24,0.14,0.37,0.37,0.37H47.2z"/>
	<path style="fill:#231F20;" d="M54.14,42.98h2.59v-6.66c0-0.41,0.02-0.81,0.02-0.81h-0.03c0,0-0.14,0.29-0.52,0.68l-0.96,0.91
		l-1.28-1.35l3.01-2.89h1.99v10.13h2.59v1.88h-7.39v-1.88L54.14,42.98z"/>
	<path style="fill:#231F20;" d="M62.17,39.48c0-3.2,1.81-6.83,5.53-6.83c1.52,0,2.47,0.51,2.47,0.51l-0.64,1.88
		c0,0-0.78-0.37-1.69-0.37c-1.88,0-2.89,1.57-3.18,3.26h0.03c0.41-0.52,1.37-0.88,2.23-0.88c2.37,0,3.84,1.84,3.84,3.99
		s-1.57,4.02-3.94,4.02C64.32,45.06,62.17,43.03,62.17,39.48L62.17,39.48z M66.81,43.06c1.13,0,1.81-0.9,1.81-2.03
		c0-1.2-0.76-2.2-2.2-2.2c-1.06,0-1.96,0.57-1.96,1.3c0,1.5,1.1,2.92,2.35,2.92V43.06z"/>
	<path style="fill:#231F20;" d="M72.48,42.71h2.08v2.15h-2.08V42.71z"/>
	<path style="fill:#231F20;" d="M76.2,38.84c0-3.45,1.06-6.19,4.34-6.19s4.35,2.74,4.35,6.19s-1.06,6.22-4.35,6.22
		S76.2,42.29,76.2,38.84z M82.66,38.84c0-2.33-0.47-4.18-2.11-4.18s-2.11,1.84-2.11,4.18s0.47,4.23,2.11,4.23
		S82.66,41.21,82.66,38.84z"/>
	<path style="fill:#231F20;" d="M87.33,41.73c0,0,1.03,1.27,2.79,1.27c1.34,0,2.2-0.9,2.2-1.99c0-1.34-1.22-2.05-2.59-2.05
		s-2.27,0.54-2.27,0.54l-0.78-0.39L87.12,34c0.07-0.79,0.34-1.15,1.13-1.15h4.43c0.79,0,1.15,0.35,1.15,1.15v1.83h-2.01V35.1
		c0-0.24-0.14-0.37-0.37-0.37h-1.98c-0.24,0-0.35,0.14-0.37,0.37l-0.15,1.66c-0.03,0.32-0.08,0.56-0.08,0.56h0.03
		c0,0,0.56-0.22,1.27-0.22c2.76,0,4.4,1.74,4.4,3.94s-1.64,4.04-4.45,4.04c-2.54,0-3.91-1.67-3.91-1.67l1.12-1.67V41.73z"/>
	<path style="fill:#231F20;" d="M96.42,42.71h2.08v2.15h-2.08V42.71z"/>
	<path style="fill:#231F20;" d="M100.14,38.84c0-3.45,1.06-6.19,4.34-6.19s4.35,2.74,4.35,6.19s-1.07,6.22-4.35,6.22
		S100.14,42.29,100.14,38.84z M106.59,38.84c0-2.33-0.47-4.18-2.11-4.18s-2.11,1.84-2.11,4.18s0.47,4.23,2.11,4.23
		S106.59,41.21,106.59,38.84z"/>
	<path style="fill:#231F20;" d="M110.46,38.84c0-3.45,1.06-6.19,4.34-6.19s4.35,2.74,4.35,6.19s-1.07,6.22-4.35,6.22
		S110.46,42.29,110.46,38.84z M116.92,38.84c0-2.33-0.47-4.18-2.11-4.18s-2.11,1.84-2.11,4.18s0.47,4.23,2.11,4.23
		S116.92,41.21,116.92,38.84z"/>
	<path style="fill:#231F20;" d="M120.52,42.98h2.59v-6.66c0-0.41,0.02-0.81,0.02-0.81h-0.03c0,0-0.14,0.29-0.52,0.68l-0.96,0.91
		l-1.28-1.35l3.01-2.89h1.99v10.13h2.59v1.88h-7.39v-1.88L120.52,42.98z"/>
</g>
</svg>
