<?xml version="1.0" encoding="iso-8859-1"?>
<!-- Generator: Adobe Illustrator 29.8.1, SVG Export Plug-In . SVG Version: 9.03 Build 0)  -->
<svg version="1.1" id="L7-2" xmlns="http://www.w3.org/2000/svg" xmlns:xlink="http://www.w3.org/1999/xlink" x="0px" y="0px"
	 viewBox="0 0 158.47 73.07" style="enable-background:new 0 0 158.47 73.07;" xml:space="preserve">
<g>
	<path style="fill:#FFFFFF;" d="M21,1h116.47c11.046,0,20,8.954,20,20v31.07c0,11.046-8.954,20-20,20H21c-11.046,0-20-8.954-20-20
		V21C1,9.954,9.954,1,21,1z"/>
	<path d="M137.47,73.07H21c-11.58,0-21-9.42-21-21V21C0,9.42,9.42,0,21,0h116.47c11.58,0,21,9.42,21,21v31.07
		C158.47,63.65,149.05,73.07,137.47,73.07L137.47,73.07z M21,2C10.52,2,2,10.52,2,21v31.07c0,10.48,8.52,19,19,19h116.47
		c10.48,0,19-8.52,19-19V21c0-10.48-8.52-19-19-19H21L21,2z"/>
	<path d="M28.17,15.22c3.65,0,5.43,1.89,5.43,1.89l-1.55,1.97c0,0-1.55-1.32-3.82-1.32c-2.58,0-4.78,2.04-4.78,5.06
		c0,3.25,2.22,5.25,4.89,5.25c2.37,0,3.78-1.55,3.78-1.55v-1.11c0-0.31-0.17-0.46-0.46-0.46h-0.9v-2.33h2.41
		c1.01,0,1.43,0.42,1.43,1.41v6.36h-2.35v-0.71c0-0.32,0.02-0.63,0.02-0.63h-0.04c0,0-1.59,1.59-4.38,1.59
		c-3.9,0-7.24-2.98-7.24-7.78c0-4.28,3.25-7.62,7.57-7.62L28.17,15.22z"/>
	<path d="M37.22,22.4c0-0.31-0.17-0.46-0.46-0.46h-0.84v-2.27h2.43c0.94,0,1.43,0.4,1.43,1.3v0.63c0,0.4-0.04,0.67-0.04,0.67h0.04
		c0.48-1.53,1.76-2.75,3.4-2.75c0.23,0,0.48,0.04,0.48,0.04v2.62c0,0-0.27-0.04-0.65-0.04c-1.13,0-2.43,0.65-2.92,2.25
		c-0.15,0.52-0.23,1.11-0.23,1.74v4.24h-2.64L37.22,22.4L37.22,22.4z"/>
	<path d="M50,19.42c3.06,0,4.74,2.25,4.74,5.08c0,0.32-0.06,0.99-0.06,0.99h-7.39c0.21,1.89,1.59,2.88,3.21,2.88c1.72,0,3-1.2,3-1.2
		l1.11,1.85c0,0-1.64,1.62-4.3,1.62c-3.55,0-5.75-2.56-5.75-5.6c0-3.29,2.22-5.6,5.43-5.6L50,19.42z M52.01,23.64
		c-0.04-1.28-0.92-2.16-2.01-2.16c-1.36,0-2.33,0.82-2.62,2.16h4.64H52.01z"/>
	<path d="M61.64,19.42c3.06,0,4.74,2.25,4.74,5.08c0,0.32-0.06,0.99-0.06,0.99h-7.39c0.21,1.89,1.59,2.88,3.21,2.88
		c1.72,0,3-1.2,3-1.2l1.11,1.85c0,0-1.64,1.62-4.3,1.62c-3.55,0-5.75-2.56-5.75-5.6c0-3.29,2.22-5.6,5.43-5.6L61.64,19.42z
		 M63.65,23.64c-0.04-1.28-0.92-2.16-2.01-2.16c-1.36,0-2.33,0.82-2.62,2.16h4.64H63.65z"/>
	<path d="M68.82,22.4c0-0.31-0.17-0.46-0.46-0.46h-0.84v-2.27h2.46c0.94,0,1.41,0.44,1.41,1.2v0.31c0,0.23-0.04,0.46-0.04,0.46h0.04
		c0.46-0.9,1.62-2.22,3.78-2.22c2.37,0,3.74,1.24,3.74,4.07v4.18c0,0.29,0.17,0.46,0.46,0.46h0.84v2.25h-2.54
		c-1.01,0-1.43-0.42-1.43-1.43v-4.91c0-1.3-0.34-2.18-1.68-2.18c-1.43,0-2.5,0.9-2.87,2.18c-0.15,0.44-0.21,0.92-0.21,1.43v4.91
		h-2.64v-7.97L68.82,22.4z"/>
	<path d="M88.18,17.81h-1.36v-2.33h6.44c2.69,0,4.62,1.38,4.62,3.84c0,1.66-0.9,2.73-1.8,3.19v0.04c1.62,0.48,2.39,1.99,2.39,3.5
		c0,2.98-2.37,4.32-5.14,4.32h-3.71c-0.99,0-1.43-0.42-1.43-1.43V17.8L88.18,17.81z M93.28,21.56c1.15,0,1.8-0.84,1.8-1.91
		s-0.63-1.85-1.85-1.85h-2.31v3.76h2.35L93.28,21.56z M91.39,28.04h2.14c1.34,0,2.1-0.9,2.1-2.16s-0.78-2.14-2.1-2.14h-2.6v3.84
		C90.93,27.87,91.1,28.04,91.39,28.04L91.39,28.04z"/>
	<path d="M100.95,22.4c0-0.31-0.17-0.46-0.46-0.46h-0.84v-2.27h2.43c0.94,0,1.43,0.4,1.43,1.3v0.63c0,0.4-0.04,0.67-0.04,0.67h0.04
		c0.48-1.53,1.76-2.75,3.4-2.75c0.23,0,0.48,0.04,0.48,0.04v2.62c0,0-0.27-0.04-0.65-0.04c-1.13,0-2.43,0.65-2.92,2.25
		c-0.15,0.52-0.23,1.11-0.23,1.74v4.24h-2.64L100.95,22.4L100.95,22.4z"/>
	<path d="M114.51,23.66h0.33v-0.08c0-1.53-0.61-2.1-1.97-2.1c-0.48,0-1.43,0.13-1.43,0.71v0.57h-2.48v-1.13
		c0-1.99,2.81-2.2,3.92-2.2c3.57,0,4.62,1.87,4.62,4.26v3.99c0,0.29,0.17,0.46,0.46,0.46h0.84v2.25h-2.39
		c-0.99,0-1.36-0.55-1.36-1.17c0-0.27,0.02-0.46,0.02-0.46h-0.04c0,0-0.82,1.89-3.23,1.89c-1.91,0-3.65-1.2-3.65-3.34
		c0-3.36,4.62-3.63,6.36-3.63L114.51,23.66z M112.46,28.55c1.43,0,2.43-1.51,2.43-2.81v-0.25h-0.46c-1.38,0-3.59,0.19-3.59,1.68
		C110.84,27.88,111.36,28.55,112.46,28.55L112.46,28.55z"/>
	<path d="M120.76,22.4c0-0.31-0.17-0.46-0.46-0.46h-0.84v-2.27H122c0.99,0,1.41,0.44,1.41,1.43v6.57c0,0.29,0.17,0.46,0.46,0.46
		h0.84v2.25h-2.54c-0.99,0-1.41-0.42-1.41-1.43V22.4z M120.89,15.48h2.31v2.46h-2.31V15.48z"/>
	<path d="M126.77,22.4c0-0.31-0.17-0.46-0.46-0.46h-0.84v-2.27h2.46c0.94,0,1.41,0.44,1.41,1.2v0.31c0,0.23-0.04,0.46-0.04,0.46
		h0.04c0.46-0.9,1.62-2.22,3.78-2.22c2.37,0,3.74,1.24,3.74,4.07v4.18c0,0.29,0.17,0.46,0.46,0.46h0.84v2.25h-2.54
		c-1.01,0-1.43-0.42-1.43-1.43v-4.91c0-1.3-0.34-2.18-1.68-2.18c-1.43,0-2.5,0.9-2.87,2.18c-0.15,0.44-0.21,0.92-0.21,1.43v4.91
		h-2.64v-7.97L126.77,22.4z"/>
	<path d="M29.22,42.99h-1.36v-2.33h6.44c2.69,0,4.62,1.38,4.62,3.84c0,1.66-0.9,2.73-1.8,3.19v0.04c1.62,0.48,2.39,1.99,2.39,3.5
		c0,2.98-2.37,4.32-5.14,4.32h-3.71c-0.99,0-1.43-0.42-1.43-1.43V42.98L29.22,42.99z M34.32,46.74c1.15,0,1.8-0.84,1.8-1.91
		s-0.63-1.85-1.85-1.85h-2.31v3.76h2.35L34.32,46.74z M32.43,53.22h2.14c1.34,0,2.1-0.9,2.1-2.16s-0.78-2.14-2.1-2.14h-2.6v3.84
		C31.97,53.05,32.14,53.22,32.43,53.22L32.43,53.22z"/>
	<path d="M41.03,53.22h3.21v-8.27c0-0.5,0.02-1.01,0.02-1.01h-0.04c0,0-0.17,0.36-0.65,0.84l-1.2,1.13l-1.59-1.68l3.73-3.59h2.48
		v12.57h3.21v2.33h-9.17v-2.33V53.22z"/>
	<path d="M50.97,48.88c0-3.97,2.25-8.48,6.86-8.48c1.89,0,3.06,0.63,3.06,0.63l-0.8,2.33c0,0-0.97-0.46-2.1-0.46
		c-2.33,0-3.59,1.95-3.94,4.05h0.04c0.5-0.65,1.7-1.09,2.77-1.09c2.94,0,4.76,2.29,4.76,4.95s-1.95,4.99-4.89,4.99
		c-3.11,0-5.77-2.52-5.77-6.92H50.97z M56.72,53.33c1.41,0,2.25-1.11,2.25-2.52c0-1.49-0.94-2.73-2.73-2.73
		c-1.32,0-2.43,0.71-2.43,1.62c0,1.87,1.36,3.63,2.92,3.63H56.72z"/>
	<path d="M63.74,52.89h2.58v2.67h-2.58V52.89z"/>
	<path d="M68.32,48.08c0-4.28,1.32-7.68,5.39-7.68s5.39,3.4,5.39,7.68s-1.32,7.72-5.39,7.72S68.32,52.36,68.32,48.08z M76.34,48.08
		c0-2.9-0.59-5.18-2.62-5.18s-2.62,2.29-2.62,5.18s0.59,5.25,2.62,5.25S76.34,51.02,76.34,48.08z"/>
	<path d="M86.91,44.35c0.5-0.92,0.9-1.36,0.9-1.36v-0.04c0,0-0.27,0.04-1.03,0.04h-3.59c-0.29,0-0.46,0.17-0.46,0.46v0.9h-2.5v-2.27
		c0-0.99,0.31-1.43,1.3-1.43h9.32v1.89l-7.09,13.01h-3L86.91,44.35L86.91,44.35z"/>
	<path d="M90.04,52.89h2.58v2.67h-2.58V52.89z"/>
	<path d="M94.63,48.08c0-4.28,1.32-7.68,5.39-7.68s5.39,3.4,5.39,7.68s-1.32,7.72-5.39,7.72S94.63,52.36,94.63,48.08z M102.64,48.08
		c0-2.9-0.59-5.18-2.62-5.18s-2.62,2.29-2.62,5.18s0.59,5.25,2.62,5.25S102.64,51.02,102.64,48.08z"/>
	<path d="M107.42,48.08c0-4.28,1.32-7.68,5.39-7.68s5.39,3.4,5.39,7.68s-1.32,7.72-5.39,7.72S107.42,52.36,107.42,48.08z
		 M115.43,48.08c0-2.9-0.59-5.18-2.62-5.18s-2.62,2.29-2.62,5.18s0.59,5.25,2.62,5.25S115.43,51.02,115.43,48.08z"/>
	<path d="M122.11,47.54V47.5c0,0-1.66-0.96-1.66-2.98c0-2.12,1.7-4.11,4.78-4.11c2.9,0,4.78,1.78,4.78,4.13
		c0,2.1-1.62,3.38-1.62,3.38v0.04c1.3,0.82,2.06,1.95,2.06,3.42c0,2.29-2.08,4.43-5.31,4.43c-2.98,0-5.33-1.87-5.33-4.55
		c0-2.33,2.29-3.71,2.29-3.71L122.11,47.54z M125.15,53.33c1.38,0,2.54-0.86,2.54-2.08c0-1.05-0.94-1.55-2.14-2.06
		c-0.61-0.27-1.17-0.5-1.34-0.5c-0.5,0-1.62,1.09-1.62,2.39S123.72,53.33,125.15,53.33L125.15,53.33z M126.12,46.85
		c0.46,0,1.26-1.03,1.26-2.12s-0.88-1.83-2.14-1.83c-1.34,0-2.12,0.75-2.12,1.68c0,1.03,0.88,1.51,2.01,1.95
		c0.25,0.1,0.75,0.31,0.99,0.31V46.85z"/>
</g>
</svg>
