<svg xmlns="http://www.w3.org/2000/svg" viewBox="0 0 4768 2417" width="4768" height="2417">
  <defs>
    <!-- Sky gradient -->
    <linearGradient id="sky" x1="0" y1="0" x2="0" y2="1">
      <stop offset="0%" stop-color="#87CEEB"/>
      <stop offset="40%" stop-color="#B0D4E8"/>
      <stop offset="75%" stop-color="#D4E4EF"/>
      <stop offset="100%" stop-color="#E8EFF5"/>
    </linearGradient>
    <!-- Sun glow -->
    <radialGradient id="sunGlow" cx="0.75" cy="0.3" r="0.25">
      <stop offset="0%" stop-color="rgba(255,240,180,0.5)"/>
      <stop offset="100%" stop-color="rgba(255,240,180,0)"/>
    </radialGradient>
    <!-- Distant building colour -->
    <linearGradient id="bldgFar" x1="0" y1="0" x2="0" y2="1">
      <stop offset="0%" stop-color="#9AAFC0"/>
      <stop offset="100%" stop-color="#8498AA"/>
    </linearGradient>
    <linearGradient id="bldgMid" x1="0" y1="0" x2="0" y2="1">
      <stop offset="0%" stop-color="#7A8D9F"/>
      <stop offset="100%" stop-color="#6B7E90"/>
    </linearGradient>
    <linearGradient id="bldgNear" x1="0" y1="0" x2="0" y2="1">
      <stop offset="0%" stop-color="#5C6F82"/>
      <stop offset="100%" stop-color="#4A5E72"/>
    </linearGradient>
    <linearGradient id="ground" x1="0" y1="0" x2="0" y2="1">
      <stop offset="0%" stop-color="#A69D93"/>
      <stop offset="100%" stop-color="#8E8578"/>
    </linearGradient>
  </defs>

  <!-- Sky -->
  <rect width="4768" height="2417" fill="url(#sky)"/>
  <!-- Sun glow -->
  <rect width="4768" height="2417" fill="url(#sunGlow)"/>

  <!-- Clouds -->
  <g opacity="0.5" fill="white">
    <ellipse cx="600" cy="280" rx="180" ry="50"/>
    <ellipse cx="720" cy="265" rx="140" ry="45"/>
    <ellipse cx="500" cy="270" rx="120" ry="40"/>
    <ellipse cx="1800" cy="200" rx="200" ry="55"/>
    <ellipse cx="1950" cy="190" rx="150" ry="45"/>
    <ellipse cx="1680" cy="205" rx="130" ry="38"/>
    <ellipse cx="3200" cy="320" rx="170" ry="48"/>
    <ellipse cx="3350" cy="310" rx="140" ry="42"/>
    <ellipse cx="3100" cy="325" rx="110" ry="35"/>
    <ellipse cx="4200" cy="240" rx="160" ry="46"/>
    <ellipse cx="4350" cy="230" rx="130" ry="40"/>
  </g>

  <!-- Distant skyline (far layer) -->
  <g fill="url(#bldgFar)" opacity="0.45">
    <rect x="80" y="1050" width="100" height="650"/>
    <rect x="200" y="980" width="80" height="720"/>
    <rect x="310" y="1100" width="120" height="600"/>
    <rect x="460" y="900" width="70" height="800"/>
    <rect x="550" y="1020" width="110" height="680"/>
    <rect x="700" y="870" width="60" height="830"/>
    <rect x="780" y="950" width="100" height="750"/>
    <rect x="920" y="1080" width="130" height="620"/>
    <rect x="1080" y="920" width="75" height="780"/>
    <rect x="1180" y="1000" width="90" height="700"/>
    <rect x="1300" y="860" width="65" height="840"/>
    <rect x="1400" y="970" width="110" height="730"/>
    <rect x="1540" y="1060" width="85" height="640"/>
    <rect x="1660" y="890" width="70" height="810"/>
    <rect x="1760" y="1010" width="120" height="690"/>
    <rect x="1920" y="930" width="80" height="770"/>
    <rect x="2030" y="1070" width="100" height="630"/>
    <rect x="2160" y="880" width="65" height="820"/>
    <rect x="2260" y="990" width="110" height="710"/>
    <rect x="2400" y="850" width="75" height="850"/>
    <rect x="2510" y="960" width="95" height="740"/>
    <rect x="2640" y="1050" width="120" height="650"/>
    <rect x="2800" y="910" width="70" height="790"/>
    <rect x="2900" y="1030" width="100" height="670"/>
    <rect x="3040" y="870" width="60" height="830"/>
    <rect x="3130" y="980" width="110" height="720"/>
    <rect x="3280" y="1090" width="85" height="610"/>
    <rect x="3400" y="900" width="75" height="800"/>
    <rect x="3510" y="1020" width="100" height="680"/>
    <rect x="3650" y="860" width="65" height="840"/>
    <rect x="3740" y="960" width="120" height="740"/>
    <rect x="3900" y="1050" width="90" height="650"/>
    <rect x="4020" y="920" width="70" height="780"/>
    <rect x="4120" y="1000" width="100" height="700"/>
    <rect x="4250" y="880" width="80" height="820"/>
    <rect x="4370" y="1040" width="110" height="660"/>
    <rect x="4520" y="930" width="75" height="770"/>
    <rect x="4630" y="1060" width="100" height="640"/>
  </g>

  <!-- Mid-distance skyline -->
  <g fill="url(#bldgMid)" opacity="0.6">
    <rect x="50" y="1200" width="140" height="550"/>
    <rect x="220" y="1100" width="100" height="650"/>
    <rect x="360" y="1250" width="80" height="500"/>
    <rect x="470" y="1050" width="120" height="700"/>
    <rect x="630" y="1180" width="90" height="570"/>
    <rect x="760" y="1080" width="70" height="670"/>
    <rect x="860" y="1220" width="130" height="530"/>
    <rect x="1020" y="1100" width="100" height="650"/>
    <rect x="1160" y="1150" width="80" height="600"/>
    <rect x="1270" y="1030" width="110" height="720"/>
    <rect x="1420" y="1170" width="90" height="580"/>
    <rect x="1540" y="1090" width="75" height="660"/>
    <rect x="1650" y="1210" width="120" height="540"/>
    <rect x="1810" y="1070" width="95" height="680"/>
    <rect x="1940" y="1190" width="80" height="560"/>
    <rect x="2050" y="1110" width="110" height="640"/>
    <rect x="2200" y="1050" width="70" height="700"/>
    <rect x="2300" y="1200" width="130" height="550"/>
    <rect x="2470" y="1080" width="100" height="670"/>
    <rect x="2600" y="1160" width="85" height="590"/>
    <rect x="2720" y="1040" width="110" height="710"/>
    <rect x="2870" y="1190" width="75" height="560"/>
    <rect x="2980" y="1100" width="120" height="650"/>
    <rect x="3140" y="1230" width="90" height="520"/>
    <rect x="3260" y="1060" width="100" height="690"/>
    <rect x="3400" y="1180" width="80" height="570"/>
    <rect x="3510" y="1090" width="110" height="660"/>
    <rect x="3660" y="1210" width="70" height="540"/>
    <rect x="3760" y="1050" width="130" height="700"/>
    <rect x="3930" y="1170" width="95" height="580"/>
    <rect x="4060" y="1100" width="80" height="650"/>
    <rect x="4170" y="1220" width="110" height="530"/>
    <rect x="4320" y="1070" width="100" height="680"/>
    <rect x="4460" y="1190" width="75" height="560"/>
    <rect x="4570" y="1110" width="120" height="640"/>
  </g>

  <!-- Near skyline with windows -->
  <g fill="url(#bldgNear)" opacity="0.75">
    <!-- Tall tower left -->
    <rect x="100" y="1300" width="160" height="600"/>
    <rect x="340" y="1400" width="120" height="500"/>
    <rect x="520" y="1250" width="100" height="650"/>
    <rect x="680" y="1350" width="140" height="550"/>
    <rect x="870" y="1280" width="110" height="620"/>
    <rect x="1040" y="1380" width="90" height="520"/>
    <rect x="1180" y="1300" width="130" height="600"/>
    <rect x="1370" y="1420" width="100" height="480"/>
    <rect x="1520" y="1270" width="80" height="630"/>
    <rect x="1650" y="1360" width="120" height="540"/>
    <rect x="1820" y="1290" width="100" height="610"/>
    <rect x="1970" y="1400" width="140" height="500"/>
    <rect x="2160" y="1310" width="110" height="590"/>
    <rect x="2320" y="1380" width="90" height="520"/>
    <rect x="2450" y="1260" width="130" height="640"/>
    <rect x="2630" y="1350" width="100" height="550"/>
    <rect x="2780" y="1420" width="80" height="480"/>
    <rect x="2900" y="1300" width="120" height="600"/>
    <rect x="3070" y="1370" width="100" height="530"/>
    <rect x="3220" y="1280" width="140" height="620"/>
    <rect x="3410" y="1400" width="110" height="500"/>
    <rect x="3570" y="1320" width="90" height="580"/>
    <rect x="3700" y="1390" width="130" height="510"/>
    <rect x="3880" y="1270" width="100" height="630"/>
    <rect x="4030" y="1360" width="80" height="540"/>
    <rect x="4150" y="1300" width="120" height="600"/>
    <rect x="4320" y="1410" width="100" height="490"/>
    <rect x="4460" y="1280" width="140" height="620"/>
    <rect x="4640" y="1370" width="100" height="530"/>
  </g>

  <!-- Window lights on near buildings -->
  <g fill="rgba(200,220,240,0.4)">
    <!-- Building at x=100 -->
    <rect x="115" y="1330" width="12" height="16"/><rect x="140" y="1330" width="12" height="16"/>
    <rect x="165" y="1330" width="12" height="16"/><rect x="190" y="1330" width="12" height="16"/>
    <rect x="215" y="1330" width="12" height="16"/>
    <rect x="115" y="1370" width="12" height="16"/><rect x="140" y="1370" width="12" height="16"/>
    <rect x="165" y="1370" width="12" height="16"/><rect x="190" y="1370" width="12" height="16"/>
    <rect x="215" y="1370" width="12" height="16"/>
    <rect x="115" y="1410" width="12" height="16"/><rect x="140" y="1410" width="12" height="16"/>
    <rect x="165" y="1410" width="12" height="16"/><rect x="190" y="1410" width="12" height="16"/>
    <rect x="215" y="1410" width="12" height="16"/>
    <rect x="115" y="1450" width="12" height="16"/><rect x="140" y="1450" width="12" height="16"/>
    <rect x="165" y="1450" width="12" height="16"/><rect x="190" y="1450" width="12" height="16"/>
    <rect x="115" y="1490" width="12" height="16"/><rect x="165" y="1490" width="12" height="16"/>
    <rect x="215" y="1490" width="12" height="16"/>

    <!-- Building at x=520 -->
    <rect x="535" y="1280" width="12" height="16"/><rect x="560" y="1280" width="12" height="16"/>
    <rect x="585" y="1280" width="12" height="16"/>
    <rect x="535" y="1320" width="12" height="16"/><rect x="560" y="1320" width="12" height="16"/>
    <rect x="585" y="1320" width="12" height="16"/>
    <rect x="535" y="1360" width="12" height="16"/><rect x="585" y="1360" width="12" height="16"/>
    <rect x="535" y="1400" width="12" height="16"/><rect x="560" y="1400" width="12" height="16"/>

    <!-- Building at x=1180 -->
    <rect x="1195" y="1330" width="12" height="16"/><rect x="1220" y="1330" width="12" height="16"/>
    <rect x="1245" y="1330" width="12" height="16"/><rect x="1270" y="1330" width="12" height="16"/>
    <rect x="1195" y="1370" width="12" height="16"/><rect x="1245" y="1370" width="12" height="16"/>
    <rect x="1270" y="1370" width="12" height="16"/>
    <rect x="1195" y="1410" width="12" height="16"/><rect x="1220" y="1410" width="12" height="16"/>
    <rect x="1270" y="1410" width="12" height="16"/>

    <!-- Building at x=1820 -->
    <rect x="1835" y="1320" width="12" height="16"/><rect x="1860" y="1320" width="12" height="16"/>
    <rect x="1885" y="1320" width="12" height="16"/>
    <rect x="1835" y="1360" width="12" height="16"/><rect x="1885" y="1360" width="12" height="16"/>
    <rect x="1835" y="1400" width="12" height="16"/><rect x="1860" y="1400" width="12" height="16"/>
    <rect x="1885" y="1400" width="12" height="16"/>

    <!-- Building at x=2450 -->
    <rect x="2465" y="1290" width="12" height="16"/><rect x="2490" y="1290" width="12" height="16"/>
    <rect x="2515" y="1290" width="12" height="16"/><rect x="2540" y="1290" width="12" height="16"/>
    <rect x="2465" y="1330" width="12" height="16"/><rect x="2515" y="1330" width="12" height="16"/>
    <rect x="2540" y="1330" width="12" height="16"/>
    <rect x="2465" y="1370" width="12" height="16"/><rect x="2490" y="1370" width="12" height="16"/>

    <!-- Building at x=3220 -->
    <rect x="3235" y="1310" width="12" height="16"/><rect x="3260" y="1310" width="12" height="16"/>
    <rect x="3285" y="1310" width="12" height="16"/><rect x="3310" y="1310" width="12" height="16"/>
    <rect x="3235" y="1350" width="12" height="16"/><rect x="3285" y="1350" width="12" height="16"/>
    <rect x="3310" y="1350" width="12" height="16"/>
    <rect x="3235" y="1390" width="12" height="16"/><rect x="3260" y="1390" width="12" height="16"/>
    <rect x="3310" y="1390" width="12" height="16"/>

    <!-- Building at x=3880 -->
    <rect x="3895" y="1300" width="12" height="16"/><rect x="3920" y="1300" width="12" height="16"/>
    <rect x="3945" y="1300" width="12" height="16"/>
    <rect x="3895" y="1340" width="12" height="16"/><rect x="3945" y="1340" width="12" height="16"/>
    <rect x="3895" y="1380" width="12" height="16"/><rect x="3920" y="1380" width="12" height="16"/>

    <!-- Building at x=4460 -->
    <rect x="4475" y="1310" width="12" height="16"/><rect x="4500" y="1310" width="12" height="16"/>
    <rect x="4525" y="1310" width="12" height="16"/><rect x="4550" y="1310" width="12" height="16"/>
    <rect x="4475" y="1350" width="12" height="16"/><rect x="4525" y="1350" width="12" height="16"/>
    <rect x="4475" y="1390" width="12" height="16"/><rect x="4500" y="1390" width="12" height="16"/>
    <rect x="4550" y="1390" width="12" height="16"/>
  </g>

  <!-- Ground / construction site area -->
  <rect x="0" y="1900" width="4768" height="517" fill="url(#ground)"/>
  <rect x="0" y="1895" width="4768" height="10" fill="#96897C"/>
</svg>
