<svg width="7034" height="569" viewBox="0 0 7034 569" fill="none" xmlns="http://www.w3.org/2000/svg">
<path d="M1805 4.72205C1698.33 21.0319 1648.65 67.319 1549 108.722C1467.55 142.563 1376 192.722 1341 196.722C1306 200.722 1385 272.722 1385 272.722H2069L2849 236.722L3126 160.722C3126 160.722 2770 86.7222 2702 86.7222C2634 86.7222 2616.3 91.2745 2565 108.722C2539.17 117.506 2527.5 130.259 2501 136.722C2464.58 145.603 2442.14 141.809 2405 136.722C2328.79 126.285 2296.21 85.8067 2225 56.7221C2172.36 35.2232 2145.21 13.3223 2089 4.72205C2048.85 -1.4209 1985 4.72205 1985 4.72205C1985 4.72205 1874.49 -5.90257 1805 4.72205Z" fill="#9A6C49"/>
<rect y="160" width="7034" height="409" fill="#9A6C49"/>
</svg>
