<svg width="7034" height="582" viewBox="0 0 7034 582" fill="none" xmlns="http://www.w3.org/2000/svg">
<path d="M4126 120.145C4085.64 142.028 4022 172.763 4022 172.763L3986 278H4762V172.763C4762 172.763 4670.8 147.167 4614 120.145C4580.78 104.344 4563.22 89.9051 4530 74.1038C4473.2 47.0819 4440.94 29.2934 4382 21.4855C4346.19 16.7415 4325.67 14.3833 4290 21.4855C4222.3 34.9665 4190.77 85.0243 4126 120.145Z" fill="#A69D93"/>
<path d="M1669 140.999C1628.64 154.308 1565 172.999 1565 172.999L1529 236.999H2305V172.999C2305 172.999 2213.8 157.433 2157 140.999C2123.78 131.39 2106.22 122.609 2073 112.999C2016.2 96.5659 1983.94 85.7477 1925 80.9993C1889.19 78.1143 1868.67 76.6801 1833 80.9993C1765.3 89.1978 1733.77 119.641 1669 140.999Z" fill="#A69D93"/>
<path d="M5393.78 118.162C5328.41 143.232 5225.31 178.441 5225.31 178.441L5167 299H6424V178.441C6424 178.441 6276.28 149.118 6184.26 118.162C6130.46 100.06 6102 83.5196 6048.2 65.4178C5956.18 34.4617 5903.94 14.0832 5808.46 5.13851C5750.45 -0.296131 5717.21 -2.99765 5659.43 5.13851C5549.76 20.5823 5498.69 77.9282 5393.78 118.162Z" fill="#A69D93"/>
<rect y="173" width="7034" height="409" fill="#A69D93"/>
</svg>
