<svg width="4026" height="569" viewBox="0 0 4026 569" fill="none" xmlns="http://www.w3.org/2000/svg">
<path d="M1110 4.72205C1003.33 21.0319 953.65 67.319 854 108.722C772.551 142.563 681 192.722 646 196.722C611 200.722 690 272.722 690 272.722H1374L2154 236.722L2431 160.722C2431 160.722 2075 86.7222 2007 86.7222C1939 86.7222 1921.3 91.2745 1870 108.722C1844.17 117.506 1832.5 130.259 1806 136.722C1769.58 145.603 1747.14 141.809 1710 136.722C1633.79 126.285 1601.21 85.8067 1530 56.7221C1477.36 35.2232 1450.21 13.3223 1394 4.72205C1353.85 -1.4209 1290 4.72205 1290 4.72205C1290 4.72205 1179.49 -5.90257 1110 4.72205Z" fill="#9A6C49"/>
<rect y="159.723" width="4026" height="409" fill="#9A6C49"/>
</svg>
