<?xml version="1.0" encoding="UTF-8"?>
<svg id="Layer_1" data-name="Layer 1" xmlns="http://www.w3.org/2000/svg" viewBox="0 0 1112.64 1112.64">
  <defs>
    <style>
      .cls-1 {
        fill: #8f8e89;
      }

      .cls-2 {
        fill: #193e75;
      }

      .cls-3 {
        fill: #23456f;
      }

      .cls-4 {
        fill: #f97627;
      }

      .cls-5 {
        fill: #554338;
      }

      .cls-6 {
        fill: #adaca7;
      }

      .cls-7 {
        fill: #f97827;
      }

      .cls-8 {
        fill: #386aa4;
      }

      .cls-9 {
        fill: #da9782;
      }

      .cls-10 {
        fill: #dd947e;
      }

      .cls-11 {
        fill: #f97626;
      }

      .cls-12 {
        fill: #f0974b;
      }

      .cls-13 {
        fill: #908e89;
      }

      .cls-14 {
        fill: #544238;
      }

      .cls-15 {
        fill: #db957f;
      }

      .cls-16 {
        fill: #efcd42;
      }

      .cls-17 {
        fill: #eecc43;
      }

      .cls-18 {
        fill: #8b8a85;
      }

      .cls-19 {
        fill: #d99983;
      }

      .cls-20 {
        fill: #ef9f50;
      }

      .cls-21 {
        fill: #da9b84;
      }

      .cls-22 {
        fill: #d99780;
      }

      .cls-23 {
        fill: #d9957e;
      }

      .cls-24 {
        fill: #aeaba7;
      }

      .cls-25 {
        fill: #da957f;
      }

      .cls-26 {
        fill: #386aa5;
      }

      .cls-27 {
        fill: #fffffe;
      }

      .cls-28 {
        fill: #f4cd3f;
      }

      .cls-29 {
        fill: #f3bba0;
      }

      .cls-30 {
        fill: #f3bba2;
      }

      .cls-31 {
        fill: #fff;
      }

      .cls-32 {
        fill: #f0cb39;
      }

      .cls-33 {
        fill: #d8957d;
      }

      .cls-34 {
        fill: #f09248;
      }

      .cls-35 {
        fill: #f09147;
      }

      .cls-36 {
        fill: #efcc3f;
      }

      .cls-37 {
        fill: #bc7761;
      }

      .cls-38 {
        fill: #fa7725;
      }

      .cls-39 {
        fill: #da947e;
      }

      .cls-40 {
        fill: #f0a24f;
      }

      .cls-41 {
        fill: #8d8b86;
      }

      .cls-42 {
        fill: #f19c4e;
      }

      .cls-43 {
        fill: #d99781;
      }

      .cls-44 {
        fill: #de9680;
      }

      .cls-45 {
        fill: #f0994d;
      }

      .cls-46 {
        fill: #dd9680;
      }

      .cls-47 {
        fill: #da9580;
      }

      .cls-48 {
        fill: #d7eff1;
      }
    </style>
  </defs>
  <circle class="cls-2" cx="555.96" cy="556.68" r="494.06"/>
  <path class="cls-31" d="M884.72,888.49l-2.2-.22c-7.69-20.23-15.88-35-33.07-50-14.63-12.76-31.28-23.1-47.98-32.79l-1.11-2.84c-2.52,1.32-2.95-.86-3.03-3.23.65-3.24.47-6.06-.55-8.45l-17.77-9.58c-7.35-2.68-13.92-6.24-19.72-10.67-2.38.91-4.6.71-6.67-.61l-36.72-16.39c-3.87-.8-6.69-2.41-8.46-4.81l-2.12.21c-7.32-4.41-15.01-7.14-23.06-8.21-2.73.96-4.94.93-6.62-.12l-1.95.55c-5.05-2.68-10.29-4.94-15.73-6.78l-.63-2.24c-.14.44-.42.36-.78-.07l-1.92-.89c-.02-16.04-.01-32.09.04-48.14.32-1.15.95-1.99,1.88-2.5-1.77-1.13-1.96-2.32-.81-3.94,23.23-25.79,36.39-58.58,37.46-93.36,1.15-4.42,4.82-7.26,11-8.52,32.02-15.61,42.84-76.69,9.6-95.55-1.18-1.23-.82-2.35,1.09-3.38l-1.76-2.07c2.1-10.22,3.14-20.52,3.15-30.9l1.7-2.51c-3.11-1.45-3.26-9.99-1.17-12.4-.43-.8-.52-1.6-.21-2.42,8.46-2.55,16.46-6.12,24-10.7,12.52-8.71,7.35-11.77-15.51-9.18l-2.33-2.74.68-33.3c-.08-58.4-39.74-112.52-89.17-140.37l-1.82-2.94c-.56.51-1.25.82-2.02.61-.82-.23-12.55-5.8-13.47-6.4l-.49-2.49-2.32-.94c-1.67-13.45-14.13-16.11-25.8-18.57-26.27-5.54-47.46-5.62-73.6,1.14-13.1,3.39-17.42,4.9-18.29,18.31l-2.12.91-1.27,2.11c-4.57,1.18-8.88,3.03-12.94,5.55l-2.23-1.02-3.11,3.75c-26.35,14.32-48.14,36.18-64.89,60.89-23.21,34.25-24.13,71.82-22.79,111.8.27,2.54-1.05,3.03-3.05,3.73l-21.43-.63c-.78.08-1.19.24-1.25,1.07-.58,8.94,23.07,17.64,30.45,19.41l-.21,2.41c1.83,1.86,1.63,5.06-1.14,5.74.45,7.42.94,15.01,1.47,22.76l2.66,15.01-1.14,3.44c.91,1.78,1.32,3.25,1.24,4.41-22.51,12.28-24.43,43.92-14.93,66.04,7.56,17.6,18.38,27.74,35.83,34.19,2.22,35.33,12.74,69.34,37.49,95.48l.82,4.01c-1.39.44-1.71,1.54-.94,3.31,2.46.07,2.36,1.04.02,1.76,2.25,9.28,2.97,18.89,2.14,28.83.69,7.13-.32,13.49-3.03,19.09.21.72.43,1.84-.04,2.1-1.59.89-16.09,7.3-17.01,7.21-.84-.08-1.49-.61-2.03-1.23-1.64,1.21-3.89,1.46-6.75.74-7.54,1.68-14.9,4.28-22.06,7.83l-1.98-1.25-1.02,2.67c-14.5,5.91-28.74,12.51-42.72,19.79-3.26,2.2-6.32,2.77-9.16,1.72l-3.31,3.31-31.94,14.26c-1.28,4.16-1.89,8.6-1.81,13.33l-2.29.84-1.25,2.39c-19.98,11.38-42.37,24.65-58.98,40.86-11.85,11.57-17.26,25-22.73,40.44l-2.4-.42c-90.04-90.73-139.49-213.89-136.09-342.68,6.77-255.88,219.1-459.44,475.82-454.89,253.83,4.5,458.13,211.3,459.23,465.69.54,124.91-49.6,247.06-138.85,333.64Z"/>
  <path class="cls-4" d="M707.45,748.91c1.12.33,1.76.83,1.92,1.5.11,82.48.04,164.94-.22,247.38l-1.71,1.19c-45.79,15.71-93.88,24.45-142.8,25.09l-.21-32.66-1.9-2.98c-.79-9.31,2.95-20.98,6.3-29.61l104.56-217.8,2.25-.24c10.05-4.93,17.3,1.18,29.16,5.6,1.38.51,2.13,1.56,2.65,2.52Z"/>
  <path class="cls-7" d="M433.02,740.23l2.01-.24,108.81,226.1,2.1,9.99.11,46.67-1.92,1.14c-48.34-.62-96.5-9.89-142.05-25.82l-1.92-1.51c.02-82.37.09-164.76.21-247.16l1.86-1.85,16.24-6.76c4.95-2.06,9.87-2.34,14.55-.56Z"/>
  <path class="cls-8" d="M452.1,732.14l2.83,2.37c33.85,82.25,165.41,82.77,199.49.22l2.92-2.42c1.38.38,18.56,6.72,18.31,8.47l-82.99,172.43-20.81,43.63c-5.48,11.5-7.5,22.2-7.42,34.57-.69-.27-1.04,1.04-1.04,1.96l.05,30.66c-6.94.43-13.1-.08-19.3-.16l-.11-47.77c-.02-6.69-3.19-12.13-6.09-18.14l-90.39-187.24-14.51-30.5,19.08-8.09Z"/>
  <path class="cls-48" d="M759.29,770.72c-.07,68.39-.1,136.9-.09,205.52l-1.87,1.84c-16.2,7.98-32.66,14.99-49.9,20.91v-250.07c3.44.8,6.81,1.96,10.4,3.56l33.06,14.79c2.95,1.32,5.69,2.43,8.4,3.46Z"/>
  <path class="cls-48" d="M402.08,998.07c-17.26-6.04-33.54-13.37-49.94-21.12l-1.9-1.84.08-180.07c-.5-8.05-.83-15.82-.99-23.31,14.39-5.2,31.49-16.23,48.32-22,2.04-.7,3.11-1.57,4.58-2.18l-.15,250.52Z"/>
  <path class="cls-11" d="M759.29,770.72c13.09,4.96,25.66,11.12,38.1,18.37,4.66,2.71-.11,10.51,2.97,13.56l1.56,3.3c.03,49.17.15,98.15.35,146.94l-2.81,3.08c-13.77,8.2-27.93,15.12-42.14,22.12l-.06-204.42c0-1.19-.12-1.64.15-2.2.3-.63,1.14-.79,1.87-.75Z"/>
  <path class="cls-38" d="M352.14,976.95c-15.04-7.11-29.01-15.42-43.17-23.97l-1.92-2.59.18-134.41,1.04-11.14,1.69-1.37c1.6-2.62-.54-14.33,3.58-16.07,12.24-5.15,23.65-11.3,35.77-15.67,3.54-3.43,1.63,19.19,2.9,23.12l-.08,182.11Z"/>
  <path class="cls-8" d="M884.72,888.49c-26.05,25.28-53.86,48.78-85.26,67.47.73-1.28.96-2.81.95-4.82l-.28-74.71c-.02-4.82-.79-8.86-.01-13.72.51-3.18.48-7.12.07-10.39-.83-6.56-.24-12.43-.33-18.81-.14-10.32-.81-21.08.5-30.87,23.6,13.31,63.43,38.22,74.77,64.02l9.59,21.83Z"/>
  <path class="cls-26" d="M309.97,803.47c1.01,4.11-.81,7.97-.82,12.54l-.18,136.97c-30.53-18.43-59.09-40.79-84.36-66.25.66-.39,1.29-1.03,1.62-2.09,2.94-9.4,6.58-18.33,11.72-26.76,9.41-15.43,34.12-31.94,49.57-41.59,7.55-4.72,14.23-10.62,22.45-12.82Z"/>
  <path class="cls-29" d="M677.57,435.12c2.5,3.1,2.78,10.17.25,13.29l2.04.79c2.73,8.05,5.42,16.11,8.06,24.18l.53,47.41,7.56-2.86,1.7,1.42,1.9,1.16-.63,30.36c16.67-7.1,20.74-26.49,16.64-42.71-1.67-6.6-5.06-12.25-12.55-11.18l-1.51-1.61c-2.62-2.36-1.91-9.7-1.31-13.37-.58-8.99,8.68-8.05,14.62-6.01-.36,5.61,6.12,1.82,13.65,14.38,11.67,19.45,8.08,47.54-2.69,66.55-6.05,10.68-15.09,18.28-26.85,22.15-2.78.91-3.83,2.41-3.96,5.48-1.34,33.23-13.09,64.93-34.94,89.8-1.9,2.16-3.54,3.83-3.54,6.37-10.15,13.79-28.87,25.61-44.81,32.99-54.33,25.16-117.34,11.86-157.9-31.58l-.86.34c-1.35-1.69-.71-4.01-1.49-6.33-25.12-27.22-35.47-58.95-37.37-95.59-7.12-2.99-14.24-5.14-19.76-10.48-11.07-10.71-18.41-24.76-21.29-40-2.63-13.9.76-27.38,7.06-39.6,6.77-13.16,14.87-8.35,13.33-15.42,3.26.49,6.89.49,10.89-.02,1.06.11,3.01.59,3.47,1.39,1.83,3.18,2.63,15.81.11,18.91l-1.51,1.6c-7.56-1.11-11.26,4.97-12.88,11.6-3.89,15.94.31,35.6,16.8,42.39l-.47-30.96,1.89-1.43,2.22-.94c2.47,1.73,4.91,2.61,7.32,2.66l.36-46.8c2.66-8.2,5.38-16.39,8.17-24.56l2.08-.85c-2.5-2.72-2.75-10.6.09-13.09l.82-1.85c80.38,8.32,163.03,8.23,243.49.22l1.29,1.82Z"/>
  <path class="cls-28" d="M616.45,218.17l1.7,1.7-15.55,111.39.8-.18c8.58-35.18,17.45-70.2,26.62-105.04l2.41.41c31.24,13.6,65.11,52.7,79.59,83.63,9.45,20.2,13.79,41.92,13.29,64.29l-.66,29.59,18.93-.78c2.47-.1,5.22,1.14,5.55,3.48,1.13,8.17-20.33,17.12-27.61,19.28-1.95.58-3.74.75-4.71,2.17l-.31,2-37.45,6.71-1.46-1.69-51.88,4.17-16.17.98-27.37.67c-13.84.34-27.51.26-41.4.01l-38.7-.68c-3.58-.06-6.92-1.04-10.63-.76-5.84.43-11.39-.28-17.23-.8l-42.2-3.79c-.78.42-1.57.8-2.4,1.05s-1.58.44-2.34.38c-6.5-.54-29.51-3.88-33.64-6.62-.72-.47-1.36-1.05-1.99-1.66-.78-.9-2.08-1.84-3.67-2.06-8.12-1.12-25.35-8.72-28.23-18.06-.43-1.39-.38-3.17.64-3.92.51-.38,1.48-.81,2.68-.78l22.18.66c-.64-45.18-1.82-79.83,25.37-118.03,17.7-24.87,40.34-46.97,67.29-60.26l2.13,1.23c9.01,34.74,17.82,69.47,26.43,104.2l.63.12-14.73-105.72c-.89-3.59-.23-5.75,1.97-6.46l1.83-9.76c.72-3.85,3.07-5.84,6.41-7.24,26.19-10.98,64.47-12.54,91.21-3.73,17.19,5.66,17.07,2.37,22.69,19.89Z"/>
  <path class="cls-3" d="M802.06,608.02c1.28,5.21,3.38,9.3,1.18,13.96l-52.19,110.6c-3.8,8.06-11.48,11.08-20,7.49-12.01-5.05-23.41-11.19-34.96-17.63-6-3.35-10.28-11.41-6.84-17.95l57.52-109.36c2.5-4.75,6.45-6.99,12.06-7.33l64.43-126.67c-3.32-3.77-4.07-8.19-2.23-12.5l7.73-18.14c1.99-4.66,3.68-12.07.05-16.54-12.09-14.85-40.28-8.05-56.04-2.91-5.44,1.77-11.65.13-13.86-5.74-3.25-8.6,26.09-26.17,33.24-29.73,8.6-4.28,17.17-6.35,26.61-7.76,17.77-2.65,35.02-1.15,51.16,7.02l37.68,19.08c11.69,5.92,1.99,16.23,10.41,21.82,12.61,8.39,12.73-6.19,24.43-.81,6.54,3,13.38,5.94,19.3,10.33,4.45,3.29,4.01,10.41,1.63,15.17l-19.12,38.26c-3.06,6.11-9.57,8.71-15.83,5.81-5.67-2.63-11.26-5.27-16.63-8.45-11.06-6.55-.35-15.41-10.5-20.03-4.75-2.16-11.01-2.95-14.81,1.45-10.65,12.31-9.08,24.56-22.96,24.07l-61.47,126.51Z"/>
  <path class="cls-3" d="M253.52,566.52c-2.63-2.38-14.18-4.47-11.32-10.48l4.8-10.12c-2.22-2.68-14.33-3.91-11.38-10.09l5.03-10.54-7.79-3.74c-8.05-3.86.35-12.44,1.5-17.4-4.28-2.38-14.85-4.33-11.28-11.12,1.65-3.13,3.21-5.94,4.4-9.41-3.2-2.5-14.04-3.75-10.47-11.34l4.16-8.84c-2.67-2.75-14.58-4.51-11.33-11.07l4.83-9.75-9.98-5.25c-4.79-2.52,3.15-12.99,3.79-15.73-2.82-1.69-5.53-2.59-8.13-3.96-3.61-1.9-4.74-5.44-2.59-9,1.46-2.42,3.08-4.65,4.22-7.56-3.54-2.59-10.53-3.58-11.45-7.58-1.07-4.69,4.35-8.48,4.9-13.13-3.57-1.82-14.39-4.45-11.1-10.88,2.13-4.16,3.84-10.36,7.27-13.63,9.61-5.61,19.95-9.01,30.15-13.28l22.39-9.36c2.63-1.1,6.94-1.34,8.49,1.93l90.04,189.81,14.15,29.82c6.31,13.3,11.64,26.75,19.4,39.44,1.86,2.16,6.46,2.05,8.04,5.64l41.81,94.96c1.99,4.52,2.08,10.02-.26,14.11-4.1,7.18-14.04,8.59-20.7,4.05-4.15-2.83-8-2.51-11.88,1.02-11.35,10.33-23.71,19.4-38.23,24.85-2.67,1-3.76,2.49-4.26,5.32-1.21,6.92-6.87,12.43-13.46,12.79-6.97.38-13.35-3.71-15.54-10.51l-8.17-25.31-14.07-30.99c-2.74-6.02-3.7-12.04-2.18-18.65l-17.45-4c-2.17-.5-3.86-1.65-4.62-2.84-3.53-5.52,2.92-10.56,3.88-15.63-3.47-2.01-7.47-2.55-10.34-5.12-4.7-4.21,3.33-10.92,3.87-15.44-3.88-2.66-13.86-3.37-11.3-11.03,1.15-3.44,3.9-5.97,4.67-9.69-2.47-1.52-5-2.45-7.46-3.56-3.37-1.52-4.92-4.93-3.13-8.23,1.58-2.91,3.42-5.48,4.79-8.83-3.3-2.83-14.92-3.4-11.46-10.94,1.5-3.27,3.9-6.08,4.73-9.7Z"/>
  <path class="cls-30" d="M656.55,732.25c.25.05.53,0,.78.07-7.28,21.41-23.04,39.24-43.23,50.68-37.92,21.48-84.91,20.5-122.07-2.15-18.68-11.38-33.55-28.38-39.93-48.71,1.72-15.86,1.07-31.95.89-47.92,1.94-.11,3.37,1.24,4.28,4.06,46.46,57.35,126.88,74.05,193.94,44.23l5.35-.27Z"/>
  <path class="cls-46" d="M656.55,680.71v51.53c-69.45,31.84-146.84,18.22-198.41-39.57-2.55-2.85-3.73-5.61-5.14-8.45l-.02-1.76c.13-.77-.21-1.79.3-2.82,27.34,28.47,64.94,45.92,105.38,44.87,35.3-.91,68.15-16.85,93.41-40.56,1.74-1.63,2.42-3.2,4.49-3.25Z"/>
  <path class="cls-32" d="M831.11,787.24c42-68.42,55.51-150.2,42.19-228.64-2.59-15.22-6.86-29.25-10.32-44.03-.62-2.67,1.68-5.36,3.49-5.81,2.46-.61,5.52.24,6.56,3.56,29.35,93.51,18.8,196.84-32.71,280.66-1.46,2.38-4.82,1.54-6.38,1.32-1.75-.25-4.61-4.14-2.82-7.06Z"/>
  <path class="cls-36" d="M225.86,832.24c-8.05-11.73-13.9-23.5-20.37-35.77-27.42-52.04-44.2-120.48-43.33-179.29.05-3.19,1.86-5.13,4.64-5.68,2.43-.48,5.71,1.61,5.83,4.88l.68,18.71c2.48,68.23,24.79,133.84,61.96,191.18,1.85,2.85.52,6.15-1.69,7.55s-5.69,1.39-7.72-1.56Z"/>
  <path class="cls-34" d="M884.46,830.93c-2.09,3.45-5.21,4.71-8.08,3.44-2.7-1.19-4.49-5.36-2.5-8.43,40.51-62.2,61.78-134.36,62.9-208.6.05-3.6,2.14-5.65,5.24-5.66,2.72-.01,5.11,2.18,5.16,5.48.26,18.55-1.3,36.03-3.92,54.52-6.47,45.58-20.16,89.1-41.93,129.58-5.51,10.24-10.76,19.6-16.87,29.67Z"/>
  <path class="cls-35" d="M268.52,792.47c-5.23-6.89-8.22-13.93-12.03-21.36-15.7-30.67-26.35-63.14-31.9-97.37-4.42-27.29-6.03-53.96-3.83-81.25.26-3.28,2.99-5.24,5.27-5.3,3.24-.09,5.89,2.18,5.62,6.06-4.67,66.99,10.95,136.05,46.55,193.07,1.65,2.64.26,6.71-1.92,7.74-2.44,1.15-5.6,1.29-7.78-1.58Z"/>
  <path class="cls-45" d="M289.54,329.99c-2.87,2.87-6.11,2.81-8.35.68-1.54-1.47-2.65-5.21-.25-7.67,39.43-40.34,87.16-71.65,140.31-90.74,3.7-1.33,6.93.35,7.73,3.46.92,3.56-.86,5.86-4.75,7.28-50.8,18.55-96.26,48.56-134.68,86.98Z"/>
  <path class="cls-24" d="M431.89,448.03c-.98,7.98-8.43,21.09-8.46,27.11l-.23,48.01c-4.39-.64-8.07-2.66-11.45-4.62.13,1.63-.37,2.12-1.74,1.19-1.02-.7-4.43-23.61-3.31-24.13.37-.17.79-.23,1.23-.26-.6-5.77-.43-11.71-1.48-17.9-3.68-1.21-7.2-.24-11.01.76-.7-1.14-1.75-2.21-1.99-3.14-3.37-13.5-5.4-27.52-2.99-41.21,1.81-.2,2.56,1.33,2.24,4.58,12.34,4.24,24.97,6.85,37.9,7.84l1.28,1.79Z"/>
  <path class="cls-6" d="M717.96,440.5c1.64,14.95-2.33,23.66-3.08,35.48-1.81,2.42-8.02-.38-11.92,1.32-1.48,6.23-.84,12.27-1.39,18.06l1.7,1.94c-.86,7.12-1.9,14.2-3.12,21.21l-2.42.83c-3.39,1.15-6.26,3.18-11.16,3.96l-.4-48.23c-.05-5.99-7.62-19.37-8.34-26.67l1.48-1.85c12.42-1.5,24.69-4.05,36.81-7.66l1.85,1.6Z"/>
  <path class="cls-42" d="M802.31,298.72c2.87,2.46,1.43,6.82-.41,8.25-1.94,1.5-4.96,1.64-7.52-.51-33.2-27.8-70.4-49.68-111.11-64.13-3.05-1.08-3.07-5.56-2.41-7.41.85-2.4,4.19-3.96,7.49-2.73,41.53,15.51,80.1,37.46,113.97,66.52Z"/>
  <path class="cls-20" d="M632.43,226.44c-.82.36-1.28,1.1-1.6,2.39l-19.82,79.74c-1.99,7.99-3.04,15.51-5.83,23.06-.51,1.39-1.97,1.63-3.18,1.5-.92-.1-1.52-1.46-1.29-3.13l8.43-60.69,7.32-51.16c3.4,2.29,13.67,5,15.98,8.28Z"/>
  <path class="cls-20" d="M477.86,225.64c5.18-2.55,10.2-6.03,16.44-6.64-.4,2.11-.28,4.89.11,7.64l14.54,104.37c.26,1.85-1.47,2.19-2.54,2.06-.87-.1-1.76-.78-2.13-2.25l-10.4-41.42-13.99-57.1c-.62-2.51-1.98-4.47-2.04-6.66Z"/>
  <circle class="cls-12" cx="172.73" cy="547.48" r="21.53"/>
  <circle class="cls-12" cx="936.51" cy="536.42" r="21.44"/>
  <path class="cls-17" d="M314.41,388.49c-2.39,2.7-5.62,2.42-7.5.85s-2.81-4.96-.78-7.46c18.17-22.34,39.75-41.14,63.62-57.3,2.81-1.9,6.08-1.07,7.55,1.15,1.67,2.52,1.11,5.85-1.69,7.78-22.69,15.67-42.74,34.06-61.2,54.97Z"/>
  <path class="cls-18" d="M431.98,434.93c.06,4.4.45,8.73-.09,13.09-8.8,1.35-30.53-5.39-40.97-7.72l-.45-6.48c.34-1.91.03-4,1.14-5.74,13.35,2.39,26.84,5.64,40.37,6.85Z"/>
  <path class="cls-41" d="M716.79,428.1c1.15,4.1.73,8.34,1.17,12.4-10.34,1.83-29.98,8.78-40.14,7.91-.43-4.41-.7-8.85-.25-13.29l39.22-7.03Z"/>
  <path class="cls-16" d="M769.82,347.73c2.53,2.36,2.16,5.72.71,7.86-1.69,2.49-5.56,2.22-8.13.19l-29.51-23.2c-2.18-1.71-1.94-5.91-.48-7.64,1.63-1.92,4.94-2.03,7.33-.32,10.3,7.37,20.57,14.24,30.08,23.1Z"/>
  <path class="cls-1" d="M649.76,476.85c-35.09-16.72-52.82-.18-60.06-6.56-2.07-1.82-3.16-4.61-2.48-7.72.92-4.25,4.43-7.47,8.68-8.7,10.02-2.88,20.24-4.24,30.88-2.83,14.98,1.99,39.14,14.99,31.62,24.39-1.85,2.31-5.39,2.96-8.64,1.41Z"/>
  <path class="cls-13" d="M489.42,469.24c-24.24.32-31.74,12.61-37.86,6.88-2.48-2.32-1.82-5.55.19-8.33,13.72-19,43.57-20.83,64.11-12.79,4.18,1.63,6.62,5.25,6.57,9.08-.05,3.27-2.57,8.26-7.03,7.79-8.74-.93-17.06-2.74-25.98-2.62Z"/>
  <path class="cls-15" d="M530.19,572.7c-2.19-1.05-2.82-4.12-2.3-5.86,1.9-6.45,14.47.87,18.39,2.36,9.19,3.5,20.95,2.07,26.16-7.25,2.15-3.85.13-9.57-.66-13.81-3.3-17.55-7.94-34.15-9.8-51.9-.2-1.91.78-4.04,2.05-4.78,1.51-.88,3.78.42,4.31,2.69l9.2,39.69c1.83,7.9,3.55,15.47,4.64,23.4.84,6.08-1.23,11.3-5.85,15.28-16.56,14.26-28.02,8.84-46.12.18Z"/>
  <path class="cls-44" d="M407.92,495.32c-.34-3.26,3.95,29.61,3.82,23.2l.7,35.08c-21.23-5.59-26.43-33.13-19.07-50.55,2.67-6.32,8.63-9.52,14.55-7.73Z"/>
  <path class="cls-10" d="M697.73,519.35c1.47-3.17,2.04-6.69,2.06-10.65.03-4.77,1.39-9.19,1.78-13.33,5.63-1.62,11.43,1.01,14.03,6.97,7.93,18.13,2.62,45.09-18.59,51.3l.71-34.28Z"/>
  <path class="cls-25" d="M572.51,703.98c26.55-5.09,28.28-25.31,34.41-22.36s-7.49,21.8-23.89,27.16c-16.96,5.53-35.38,5.68-52.55.88-18.33-5.13-31.84-23.38-27.3-27.57,6.3-5.83,5.32,13.33,29.6,20.4,13.09,3.81,26.22,4.08,39.73,1.49Z"/>
  <path class="cls-37" d="M503.45,611.49c-1.97-1.1-1.65-3.82-1.19-5.17.59-1.74,3.13-1.91,5.14-1.1l10.79,4.34c21.31,8.57,60.63,7.2,84.91-6.69,1.81-1.03,4.57-.15,4.93,1.5.31,1.44.48,4.04-1.26,5.31-21.96,16-61.12,16.01-87.1,8.88-5.76-1.58-10.87-4.1-16.22-7.08Z"/>
  <path class="cls-14" d="M628.56,511.92c-2.14,3.04-5.48,4.76-8.19,4.88-3.29.14-6.94-1.26-9.2-4.17-6.1-7.88-5.82-19.8,1.1-26.75,4.86-4.88,11.38-4.59,15.73.64,5.74,6.89,6.02,17.65.56,25.41Z"/>
  <path class="cls-5" d="M498,512.73c-2.47,2.96-5.8,4.05-8.96,3.96-2.94-.09-6.43-1.77-8.51-4.87-4.97-7.42-4.9-17.81.57-24.84,2.15-2.76,5.15-4.4,7.95-4.53,3.09-.14,6.21,1.25,8.6,3.86,6.5,7.1,6.74,18.76.35,26.43Z"/>
  <path class="cls-23" d="M495.19,592.28c-9.29,11.05-10.99,10.5-10.77,28.69.02,1.99-.69,3.43-2.35,3.78-1.21.26-3.22-.43-3.58-2.12-2.73-12.59,1.09-24.44,10.06-33.4,5.09-5.08,9.48-10.3,13.21-16.38.9-1.47,2.94-1.51,4.03-1.1,6.58,2.47-8.01,17.46-10.59,20.53Z"/>
  <path class="cls-39" d="M628.19,624.75c-6.02-.36.01-11.97-5.79-22.71-4.11-7.62-25.25-25.52-19.19-29.96,1.02-.75,3.61-.92,4.62.66,11.33,17.81,28.1,24.26,23.37,49.09-.34,1.77-1.35,3.03-3.01,2.93Z"/>
  <path class="cls-47" d="M472.02,539.07c-2.3-.44-2.34-2.76-2.18-3.77.3-1.8,2.04-2.65,4.03-2.36,14.4,2.07,28.12-2.71,37.99-13.19,1.22-1.29,3.27-1.18,4.18-.52,1.46,1.06,1.56,3.01.12,4.74-10.63,12.76-27.27,18.35-44.14,15.1Z"/>
  <path class="cls-43" d="M596.93,519.32c19.75,21.87,40.27,9.47,42,15.94.44,1.66-.46,3.71-2.78,4.11-26.47,4.52-49.41-16.77-43.1-20.45.91-.53,2.73-.88,3.88.4Z"/>
  <path class="cls-22" d="M576.15,638.81c.01,9.72-43.74,9.26-41.76.9,1.77-7.46,13.33,4.14,38.76-4.23,1.87-.61,2.99,2.21,3,3.33Z"/>
  <path class="cls-9" d="M457.89,514.32c-3.46,1.42-14.87,6.84-15.85,3.31-.5-1.8-.09-3.64,1.94-4.42,3.07-1.18,14.09-5.45,15.14-2.12.28.9-.02,2.74-1.23,3.24Z"/>
  <path class="cls-33" d="M663.38,519.03l-11.1-4.19c-1.52-.57-2.15-1.64-2.14-2.82.05-5.35,13.82.61,15.72,1.68,1.47.83,1.64,2.86,1.29,4.03-.38,1.28-2.07,1.95-3.76,1.31Z"/>
  <path class="cls-21" d="M458.55,504.31c-.31,4.4-12.37.43-15.18-.6-1.56-.57-1.89-2.12-1.85-3.22.18-4.78,9.76-.61,14.57.52,1.92.45,2.58,1.58,2.45,3.3Z"/>
  <path class="cls-19" d="M666.3,503.15c-2.61,1.33-13.84,5.27-15.5,1.9-.61-1.25-.18-2.94,1.51-3.47,2.88-.9,14.51-5.02,15.17-1.91.24,1.13.15,2.79-1.19,3.47Z"/>
  <path class="cls-40" d="M665.5,403.67c-51.02-7.36-90.85-8.33-142.48-6.94-35.48.95-69.89,4.8-104.54,11.98-1.78.37-2.96-.45-3.78-1.28-.76-.77-1.62-3.42.04-4.14,7.06-3.09,14.14-4.55,21.91-6.24,41.86-9.07,83.76-11.8,126.73-11.5,37.67.27,94.5,5.01,129.63,16.74,1.98.66,3.1,2.41,2.71,4.06s-2.45,2.7-4.49,2.3c-8.69-1.71-16.82-3.69-25.72-4.97Z"/>
  <polygon class="cls-31" points="792.17 602.97 769.86 591.82 790.38 550.25 832.89 466.29 853.59 476.61 792.17 602.97"/>
  <path class="cls-31" d="M248.68,534.49c.81-3.63,7.22-11.25,3.68-15.18-2.59-2.88-6.63-3.63-10.21-5.28.37-4.23,8.37-12.21,3.69-15.99-3.09-2.5-6.64-3.57-10.02-5.63.88-4.4,9.42-12.54,1.83-16.13l-8.53-4.03c.85-3.64,3.19-6.08,4.4-9.28,2.97-7.84-7.29-7.72-10.96-11.34.9-3.46,3.5-6.06,4.63-9.44,2.57-7.7-6.58-7.73-11.16-11.43l4.52-8.78c1.34-2.61,1.39-5.93-1.37-7.54-3-1.75-6.35-2.36-9.34-4.49,1.28-3.51,3.28-6.23,4.62-9.39,2.89-6.81-7.58-8.14-11.33-10.86.38-4.09,9.62-12.81,2.14-16.4l-8.28-3.97c-.26-3.17,1.73-5.55,4.68-6.76l43.55-17.84,119.9,253.1-35.69,15.62c-6.01,2.63-9.95,6.81-12.28,12.96l-15.87,35.05c-5.04-.19-9.35-1.64-14.19-3.21.71-4.36,6.17-9.47,4.95-13.11-1.74-5.25-7.59-4.52-11.97-7.56l4.54-8.18c1.86-3.34.43-6.99-2.96-8.61-2.53-1.21-5.07-2.02-7.44-3.72.96-3.38,2.81-6.12,4.27-9.09,1.82-3.71,0-7.05-3.61-8.53-2.48-1.01-4.85-1.85-7.2-3.3l4.21-8.54c1.63-3.32.48-6.39-2.76-8.12-2.63-1.4-5.56-1.73-8.1-3.75,1.39-4.68,9.82-13.81,2.03-17.11l-8.34-3.53c.95-4.6,6.3-9.09,4.84-13.8-.95-3.05-8.12-4.73-10.86-6.82Z"/>
  <path class="cls-31" d="M378.67,675.82l-33.97,23.78c-1.55,1.08-3.41,1.44-5.14,1.01-2.76-.68-8.23-13.26-7.31-16.87,11.56-10.54,23.52-20.06,36.12-29.12,5.73-4.12,10.45,9.17,12.97,14.99.99,2.3-.39,4.61-2.68,6.2Z"/>
  <circle class="cls-27" cx="172.82" cy="547.57" r="10.84"/>
  <circle class="cls-27" cx="936.48" cy="536.37" r="10.9"/>
</svg>