<?xml version="1.0" encoding="UTF-8"?>
<svg id="Layer_1" data-name="Layer 1" xmlns="http://www.w3.org/2000/svg" viewBox="0 0 1112.64 1112.64">
  <defs>
    <style>
      .cls-1 {
        fill: #f19b53;
      }

      .cls-2 {
        fill: #3e6fa9;
      }

      .cls-3 {
        fill: #193e75;
      }

      .cls-4 {
        fill: #f29951;
      }

      .cls-5 {
        fill: #23456f;
      }

      .cls-6 {
        fill: #ed9b50;
      }

      .cls-7 {
        fill: #ed9c4f;
      }

      .cls-8 {
        fill: #c1795b;
      }

      .cls-9 {
        fill: #3d6ea7;
      }

      .cls-10 {
        fill: #c27859;
      }

      .cls-11 {
        fill: #fefefb;
      }

      .cls-12 {
        fill: #5b4132;
      }

      .cls-13 {
        fill: #f0cb3f;
      }

      .cls-14 {
        fill: #5d4134;
      }

      .cls-15 {
        fill: #c37b5e;
      }

      .cls-16 {
        fill: #f1ca3c;
      }

      .cls-17 {
        fill: #d8ebf2;
      }

      .cls-18 {
        fill: #5b4032;
      }

      .cls-19 {
        fill: #d8ecf2;
      }

      .cls-20 {
        fill: #f0c83d;
      }

      .cls-21 {
        fill: #ed9f4d;
      }

      .cls-22 {
        fill: #fffffe;
      }

      .cls-23 {
        fill: #fff;
      }

      .cls-24 {
        fill: #fffefe;
      }

      .cls-25 {
        fill: #c2795a;
      }

      .cls-26 {
        fill: #d89775;
      }

      .cls-27 {
        fill: #f19750;
      }

      .cls-28 {
        fill: #fefefe;
      }

      .cls-29 {
        fill: #ef934c;
      }

      .cls-30 {
        fill: #f6792a;
      }

      .cls-31 {
        fill: #614133;
      }

      .cls-32 {
        fill: #f0cc41;
      }

      .cls-33 {
        fill: #d69673;
      }

      .cls-34 {
        fill: #234c75;
      }

      .cls-35 {
        fill: #d59672;
      }

      .cls-36 {
        fill: #f3964c;
      }

      .cls-37 {
        fill: #f0924c;
      }

      .cls-38 {
        fill: #3d6fa7;
      }

      .cls-39 {
        fill: #5d4133;
      }

      .cls-40 {
        fill: #c57d5c;
      }

      .cls-41 {
        fill: #f6792b;
      }

      .cls-42 {
        fill: #efca41;
      }

      .cls-43 {
        fill: #d69774;
      }
    </style>
  </defs>
  <circle class="cls-3" cx="555.96" cy="556.68" r="494.06"/>
  <path class="cls-23" d="M881.29,892.55c-1.41.54-2.67.57-3.25-.79-14.48-41.3-43.97-75.69-82.32-96.21l-1.77-2.86c-1.51-.45-2.79-1.73-3.86-3.85l-3.88-2.89-32.38-13.98-.29-2.21-2.56,1.06c-16.22-7-32.47-13.89-48.74-20.67l-.76-2.52-2.22.21c-7.41-4.21-15.12-6.87-23.13-7.99-2.65,1.23-4.67,1.25-6.06.05-.6.39-1.33.81-1.96.57-3.55-1.38-11.01-4.88-14.05-6.8l-.41-2.31c-2.21.97-5.58-.03-5.05-2.93-5.93.4-12.38-7.42-15.72-12.28-3.12-4.54-4.98-9.65-6.05-15.03-1.45-7.32-2.49-18,.99-24.47l1.47-4.19c28.18-25.6,46.84-57.11,50.33-95.23l2.27-2.48,2.07-2.24c40.21-6.59,58.19-71.02,22.55-93.78-.4-.84.16-2.08,1.68-3.71l-.96-2.22c1.65-13.46,2.74-27,3.25-40.62l1.79-4.14-.1-2.23c4.41-1.93,8.94-3.5,13.59-4.7,3.95-1.48,10.63-4.11,8.44-9.32-5.94-3.35-11.14-7.31-15.6-11.89-4.37-36.8-6.56-55.2-6.56-55.2-9.57-48.06-39.54-91.85-82.77-115.55l-2.69-3.55-2.26.98c-4-2.67-8.24-4.81-12.71-6.44l-1.07-2.19-1.97-.8c-1.66-7.61-2.41-10.96-10.16-13.79-34.25-12.51-72.4-13.4-105.08,3.25-2.19,3.24-3.7,6.89-4.52,10.97l-2.15.34c-2.42,4.11-10.53,8.85-15.26,7.75l-2.45,3.35c-60.18,32.79-86.95,96.45-88.35,162.07-1.71,12.11-4.08,13.83-14.76,19.21-.75.51-1.39,1.1-1.93,1.82-4.82,6.47,14.51,11.07,18.15,11.77,2.93,1.07,6.58,2.42,3.56,5.14l1.84,4.41c-.02,13.09,1.7,26.1,4.25,38.92l-1,4.69-.85,2.6c-33.99,23.86-15.23,86.27,24.42,93l1.99,2.24,2.3,3.26c2.55,38.79,24.24,70.34,51.78,96.05l-.15,2.43c2.07,2.37,3.39,5.07.02,6.63,6.51,20.19-5.62,38.93-22.78,49.37l-1.93-1.15-.19,2.2c-5.4,2.46-10.79,4.92-16.2,7.38l-2.03-1.19c-2.76-.36-5.56-.48-8.4-.34l-20.19,8.31-2.02-1.24-.76,3.07c-16.42,6.95-32.78,14.12-49.08,21.49-.36-1.36-1.04-1.74-2.16-1.38l-.06,2.1-32.35,13.54-3.31,2.84c-1.22,2.83-2.78,4.4-4.7,4.72l-3.52,3.88c-36.03,18.01-62.38,49.22-77.71,85.94-.88.46-1.84.14-2.89-.93-179.58-185.55-174.76-481.54,10.77-661.15s481.52-174.82,661.15,10.68c179.63,185.5,174.89,481.49-10.58,661.15Z"/>
  <path class="cls-41" d="M701.47,747.63l1.92,1.84c.11,83.47.1,166.93-.04,250.38l-1.78,1.18c-46.14,15.12-94.34,22.96-142.89,23.24-.79.11-1.91-.1-1.92-.66-.14-17.17-.23-34.55,1.19-51.74l2.02-6.69c35.34-74.82,71.28-149.83,107.84-225.05l2.24-.23c3.99-1.92,7.97-3.02,12.44-1.04,5.43,2.41,10.95,4.43,16.61,6.34,1.54.52,1.64,1.82,2.36,2.44Z"/>
  <path class="cls-30" d="M427.09,739.87l2.01-.25,108.87,225.1,2.24,10.42.21,47.67-1.91,1.14c-48.55-1.81-96.52-11.18-142.18-27.77l-1.92-1.5c-.04-82.08.07-164.16.31-246.24l1.76-1.84,20.53-8.54c2.67-1.11,8.54-1.36,10.08,1.81Z"/>
  <path class="cls-38" d="M653.64,731.36l13.17,6.13c1.4.65,2.62,1.33,3.24,2.41l-62.54,129.67-26.08,54.49-18.78,39.75c-2.62,5.55-3.68,11.21-3.72,17.32l-.27,43.13c-6.72.04-13.45-.07-20.17-.32l-.21-48.77c-.03-7.38-4.04-13.92-7.18-20.46l-33.68-69.96-35.96-74.3-21.11-43.23-13.27-27.36,18.41-8.39,3.18,2.6c38.38,83.63,166.99,81.94,202.12-3.48.85-.34,2.12.17,2.84.77Z"/>
  <path class="cls-19" d="M753.53,769.76l-.43,2,.59,207.71-1.92,1.84c-16.34,7.53-33.1,14.12-50.2,19.72l-.1-253.4c1.84,1.57,4.53,1.78,7.05,2.87l40.02,17.3,4.99,1.96Z"/>
  <path class="cls-17" d="M396.33,996.19c-17.11-6.21-33.84-13.42-50.11-21.59l-1.81-1.83c.06-68.44.08-136.1.07-202.99l2.88-.82,44.38-20.11c1.84-.84,3.94-.53,4.74-2.26l-.15,249.59Z"/>
  <path class="cls-9" d="M881.29,892.55c-26.34,25.52-55.6,47.85-87.16,66.53l-1.92-.67s-.06-54.85-.18-164.54l1.92-1.18c10.43,4.21,19.25,11.58,28.62,18.36,13.13,9.5,23.01,20.69,32.64,33.57,9.78,13.08,17.22,26.81,22.89,42.3.75,2.05,1.36,4.37,3.2,5.63Z"/>
  <path class="cls-30" d="M753.53,769.76l30.39,12.92c3.93,1.67,10.03,5.27,10.02,10.01l.18,166.39c-13.73,8.13-27.87,15.55-42.36,22.23l-.49-207.55c0-1.52-.31-2.32.28-3.26.32-.51,1.16-.77,1.97-.73Z"/>
  <path class="cls-30" d="M346.22,974.6c-14.54-7.3-28.7-15.35-42.4-24.13l-1.92-2.62c.05-51.02.15-102.03.31-153.04l1.86-1.83c1.5-4.3,4.12-8.16,8.85-10.12l31.56-13.09c.42-.02,1-.09,1.38.14s.68.75.68,1.91l-.33,202.77Z"/>
  <path class="cls-2" d="M303.82,950.47c-30.52-19.54-58.66-42.56-83.87-68.6,1.39.47,1.77-.55,2.41-2.08,16.21-38.91,43.96-68.84,81.71-86.81l-.25,157.49Z"/>
  <path class="cls-20" d="M610.54,217.95l1.8.94c-5.7,36.75-10.8,73.74-15.28,110.96,9.41-34.41,18.46-69.33,27.14-104.75l2.38.5c47.66,23.83,82.29,75.71,88.94,128.81l4.41,35.24c.46,3.67-1.22,9.37,1.9,11.48l13.19,8.91c3.33,2.25,1.03,8.04-2.24,9.88-10.1,5.7-14.75,4.11-20.52,8.12l-3.49,2.57c-5.71,1.51-29.27,6.33-33.06,4.87-.72-.28-1.4-.68-2.06-1.12-.03.77-.23,1.93-.76,1.98-21.21,2.1-45.35,4.05-66.6,4.68-60.09,1.79-118.14,1.28-178.13-4.51-.68-.07-1.34-.44-2.03-.85s-1.32-.93-1.93-1.48l-1.44,1.75-35.99-5.88-1.18-1.02c.2-5.75-24.67-3.61-24.03-15.85.29-5.65,12.7-7.78,14.99-12.54,6.33-13.15-2.9-75.6,41.38-130.32,5.52-6.83,10.46-12.91,16.98-18.74,11.38-10.17,22.98-19.59,36.46-25.91l2.02.15c8.94,34.9,18.16,69.66,27.65,104.26-4.35-37.16-9.56-73.97-15.63-110.42l1.22-1.74c1.88-5.08,2.47-12.18,8.36-14.84,15.23-6.87,31.7-9.84,48.46-10.78,21.35-1.19,41.95,3,61.55,11.78,2.77,3.28,5.46,9.77,5.51,13.88Z"/>
  <path class="cls-31" d="M424.22,434.18l1.44,1.67-4.9,13.72-2.26.63,1.07,2.8c-1.77,5.35-2.76,10.91-2.74,16.55.1,32.62,4.07,78.31,19.43,107.22,8.03,15.1,21.24,27.2,36.21,35.25,6.69-27.28,20.63-31.35,46.99-36.96,9.61-2.04,16.03-1.48,24.91,1.87,6,.87,12.03.03,18.08-2.52,7.48-1.2,10.69-.72,18.17.77,10.64,2.13,28.59,7.34,35.22,15.74,4.83,6.12,7.18,14.1,9.25,21.51,35.02-17.56,47.56-54.61,52.48-91.23,1.7-19.09,2.79-38.23,3.27-57.43-1.28-4.05-1.39-7.6-.32-10.66l-.89-1.12c-.58-.09-.72-.39-.4-.88l-2.26-1.35c-1.01-2.05-4.91-13.06-4.31-14.13.26-.46.61-.87.99-1.26,12.94-.91,25.85-4.15,38.61-6.32.78,15.77-1.76,31.4-4.08,46.98,0,2.89-1.27,4.04-3.8,3.43-9.25-3.42-13.1.25-11.56,11.01l-2,1c-.25,1.25.31,2,1.69,2.3-2.03,19.54-4.06,39.08-6.09,58.63l-2.09,1.55c.72.28,1.79.72,1.78,1.31-.03,2.08-1.53,18.62-2.17,19.35-.55.62-1.27.96-2.06,1.15-.67,5.98-2.26,12.1-3.22,18.49-2.6,17.42-9.55,32.62-19.15,47.22-9.07,13.79-20.38,24.85-31.7,36.19l-1.39,3.79c-23.18,20.87-45.4,32.83-77.74,32.66-31.7-.17-54.63-12.09-76.99-33.01l-1.51-3.46c-1.69-1.16-3.11-3.71-5.05-5.47-17.34-15.81-31.55-34.51-40.27-56.49-5.19-13.07-7.15-26.41-8.61-39.78l-2.03-.88-2.34-21.39,1.76-1.57-2-.68c-2.05-19.06-4.1-38.13-6.15-57.21,1.53-.35,1.66-1.38,1.64-2.71l-2-.89c.43-10.94-1.17-14.05-12.54-11.21l-1.9-1.31c-3.33-15.8-5.65-31.87-5.09-48.02.09-.32.21-.69.43-1.08-.06.11,34.32,5.83,38.18,6.23Z"/>
  <path class="cls-5" d="M356.66,728.39c-3.76-5.48-4.82-11.38-7.31-17.14-13.32-30.82-22.02-62.62-29.39-95.35-1.15-5.13-14.09-22.15-.12-27.79-2.01-4.76-2.48-10.57-5.85-14.31-2.8-2.29-8.02-1.92-11.55-2.56-12.87-2.32-22.15-10.27-25.29-23.46l-39.69,14.05c-6.71,2.38-13.36,2.99-19.87-1.12-4.86-3.07-9.63-8.57-9.77-15.96l-1.79-95.47-.22-32.77c-.16-22.93-1.36-45.08-.65-68.14.24-7.78,7.43-13.86,13.77-15.85,7.12-2.23,15.77-.7,20.71,5.76l116.69,152.52c7.59,9.93,6.09,25.88-5.77,30.4l-45.43,17.35c-1.89.72,1.63,4.17,3.22,4.32,10.74,1.02,25.93,4.73,30.34,15.7l7.78,19.33c4.35-.62,9.63-.24,11.46,5.02l6.64,19.11c8.57,24.65,28.61,55.52,40.64,105.89,2.96,12.39-4.98,24.35-15.3,29-11.86,5.34-25.65,2.52-33.24-8.54Z"/>
  <path class="cls-34" d="M804.67,739.59c-4.16,10.4-12.99,16.6-23.93,12.22l-95.04-38.07c-8.84-3.54-13.21-13.67-9.66-22.48l135.35-336.23c3.54-8.78,11.7-12.12,20.82-10.44l98.38,39.8c7.95,3.22,9.8,12.75,8.03,20.58l-26.23,65.11-107.71,269.5Z"/>
  <path class="cls-43" d="M648.6,728.44c1.57,1.05,3.98,1.07,5.05,2.93-2.25-.32-1.84,2.31-2.75,4.17-7.66,15.65-18.33,29.64-32.72,40.11-19.92,14.5-44.27,22.1-69.12,22.28-22.87.16-44.2-6.8-63.29-18.47s-32.26-28.09-40.26-47.97c2.76-1.26,5.53-4.16,8.29-6.13,10.17-7.21,15.8-18.35,16.12-30.65l.3-11.44,2.56.51c42.28,46.87,111.39,79.14,171.61,44.9l4.2-.24Z"/>
  <path class="cls-15" d="M627.82,676.65c-.97,23.26.06,37.95,20.78,51.79-24.18,14.79-54.64,19.97-83.05,14.17-31.35-6.4-66.51-28.99-88.77-51.23-2.7-2.7-4.9-5.16-6.55-8.12.06-2.21.21-4.42-.02-6.63,10.53,7.24,22.38,20.38,37.97,26.64,24.09,9.67,50.9,10.47,75.66,2.47,10.56-3.41,19.61-9.16,27.89-16.2,5.36-4.56,11.43-8.21,16.1-12.89Z"/>
  <path class="cls-29" d="M878.66,830.13c-2.1,3.43-5.25,4.55-8.07,3.28-2.56-1.15-4.39-5.41-2.33-8.58,40.6-62.75,60.84-133.67,62.72-208.61.08-3.29,2.21-5.81,5.33-5.67,2.48.11,5.36,2.24,5.33,5.83-.46,63.76-15.62,126.45-45.29,182.85-5.64,10.72-11.3,20.45-17.69,30.9Z"/>
  <path class="cls-13" d="M228.69,823.71c1.96,3.16,2.25,6.55.05,8.46s-7.07,1.99-9.08-1.12c-40.04-62.15-64.22-141.57-63.16-215.85.04-2.71,2.62-4.16,4.6-4.69s5.41.89,5.51,3.91c.95,27.76,3.26,54.82,9.42,81.98,7.08,31.22,17.07,60.41,30.84,89.2,6.41,13.4,13.86,25.25,21.82,38.1Z"/>
  <path class="cls-37" d="M272.87,786.28c1.88,3.06-1.3,6.56-3.25,7.1-2.83.78-6.49.15-8.35-3.12-16.09-28.17-28.79-57.77-36.79-89.41-8.63-34.13-12.37-74.55-9.48-109.59.26-3.17.57-5.74,3.64-6.53,2.63-.68,6.5-.01,6.96,3.51.91,6.97-.53,13.3-.61,20.38-.71,62.68,14.72,123.77,47.9,177.66Z"/>
  <path class="cls-16" d="M835.06,791.18c-1.75,2.81-5.16,2.56-6.92,2.13-2.26-.56-4.38-4.6-2.68-7.39,27.8-45.49,44.68-96.5,46.52-149.88l.71-20.64c.09-2.64,2.44-4.65,4.21-5.01,1.98-.41,5.64.34,5.86,3.03,1.02,12.54.32,24.49-1.01,36.99-2.85,26.82-7.51,52.7-16.84,78.06-8.09,21.98-17.32,42.66-29.86,62.72Z"/>
  <path class="cls-35" d="M407.15,490.45c.08,1.39-.18,2.66-.77,3.81-11.19-1.76-15.99,5.25-17.9,15.56-3.09,16.63,5.28,38.01,23.73,39.43l1.45,1.8,2.61,23.84c-26.96-3.34-45.57-30.03-45.68-57.45-.03-7.24.38-13.57,2.86-20.22,3.25-8.69,9.01-16.25,17.25-20.18,3.64-1.73,11.06-2.09,14.24-.07,2.57,3.84,1.77,9.36,2.21,13.48Z"/>
  <path class="cls-4" d="M420.75,241.25c-50.9,18.32-100.93,50-138.04,89.17-1.97,2.08-6.55.54-7.73-1.02-1.45-1.92-1.75-4.84.4-7.16,19.54-21.11,41.53-38.41,65.68-54.27s48.22-27.07,74.43-36.68c3.08-1.13,6.75.14,7.51,2.62.63,2.05.71,6.29-2.25,7.35Z"/>
  <path class="cls-35" d="M681.89,574.75l2.45-21.81c1.22-2.45,3.72-3.98,7.51-4.59,21.05-7.07,28.2-56.3-.46-54.39l-.57-3.5c.41-3.99-.32-9,1.78-13.19,2.21-4.41,14.7,2.01,15.58-2.25-.12.78-.2,1.61-.2,2.81,8.61,4.54,14.41,12.11,17.13,21.95,8.81,31.76-9.35,70.92-43.23,74.97Z"/>
  <path class="cls-1" d="M796.55,297.6c2.41,2.14,1.82,5.7.56,7.71-1.39,2.23-5.63,2.79-8.06.7-18.3-15.73-37.87-28.67-58.98-40.62-16.68-9.44-33.61-16.75-51.5-23.4-3.38-1.26-4.32-4.61-3.83-7.17.64-3.34,4.18-4.91,7.8-3.57,31.07,11.46,60.4,26.49,87.31,45.78,9.44,6.77,18.16,12.99,26.7,20.55Z"/>
  <path class="cls-6" d="M626.58,225.59c-.98.12-1.15,1.11-1.38,2.27-2.6,13.06-6.33,25.26-9.56,38.22l-11,44.04c-.85,3.42-5.14,24.13-8.1,22.67-.59-.29-1.64-1.5-1.47-2.75l10.4-79.62,5.07-32.48c6.05,1.03,10.89,5.07,16.04,7.65Z"/>
  <path class="cls-7" d="M471.39,225.66c5.11-2.4,9.96-5.63,15.26-7.75,1.52,2.33,1.66,5.36,2.14,8.45l3.6,23.23,10.94,82.73c-2.29,1.21-4.29-1.06-4.89-3.35l-27.05-103.31Z"/>
  <circle class="cls-27" cx="930.75" cy="535.39" r="21.62"/>
  <circle class="cls-36" cx="167.01" cy="546.5" r="21.6"/>
  <path class="cls-42" d="M310.01,386.11c-2.92,3.39-8.47,4.24-10.6.84-2.33-3.71,1.08-6.8,3.38-9.4,18.24-20.58,38.11-38.89,61.15-53.88,2.66-1.73,6.53-1.21,7.76.84,1.53,2.57.85,6.23-1.81,8.09-22.07,15.48-41.96,32.72-59.89,53.51Z"/>
  <path class="cls-32" d="M781.83,363.62c2.48,2.41,2.64,5.94.84,7.79s-5.96,2.64-8.43.2c-11.38-11.22-22.82-21.87-36.14-31.01-4.03-2.76-7.69-5.59-11.41-8.6-2.33-1.89-2.57-5.09-1.24-7.45.99-1.76,4.94-3.03,7.33-1.4,11.92,8.09,23.82,15.95,34.22,26.05l14.83,14.41Z"/>
  <path class="cls-40" d="M673.66,434.36c1.43,5.74,4.51,10.92,5.58,16.74.9,2.5.32,3.95-1.74,4.34-1.17.69-25.15,6.04-26.5,5.86-.77-.11-1.47-.34-2.14-.78l-3.51.2c-17.55-11.02-38.48-11.61-58.02-6-.35.1-.06,5.84.29,7.08l-1.46,1.65c.21.84.17,1.67-.34,2.37-.69.95-19.65.79-23.56.75-14.53-.14-29.04-.38-43.56-.87-1.19-.04-2.38-.39-3.59-.74s-2.4-.85-3.57-1.38l-1.4-1.56c.59-1.06,1.62-5.82.66-6.28-15.08-7.12-39.56-5.74-54.04,2.73l-2.79-.78-4.02.69c-10.1-1.99-20.13-4.05-30.08-6.2l-1.38-2,5.72-16.01c49.49,5.15,132.31,8.41,181.95,4.92l67.49-4.75Z"/>
  <path class="cls-21" d="M552.41,396.04c-57.68.52-83.38,1.3-139.61,11.96-1.57.3-3.54-.56-3.84-1.62-1.62-5.75,16.68-8.8,21.49-9.77,37.95-7.64,75.78-10.95,114.69-11.39,45.17-.51,99.07,4.62,142.27,16.55,1.68.46,1.94,2.89,2.06,3.95.16,1.45-1.81,2.97-4.33,2.43-43.74-9.31-87.29-12.53-132.72-12.12Z"/>
  <path class="cls-26" d="M453.98,457.7c.18,1.99-1.37,3.89-4.63,5.69-4.25,4.34-3.43,7.77,2.88,5.93,16.86-8.49,34.83-10.43,53.15-4.26,2.08-.47,4.13-.97,6.17-1.47,22.86.59,45.66,1.68,69.1.66,2.18-.09,4.14.46,5.52-.79,2.07.49,4.25,1.07,6.52,1.74,18.36-5.51,36.75-5.16,53.34,4.42,5.75,1.98,6.85-3.01,2.88-6.48l-.05-2.61c.38-.78,1.28-1,2.39-1.25l26.02-5.74c1.16-.26,1.38-1.92,1.96-2.43.06.31.29.59.4.88l.89,1.12c1.91,6.03,2.86,12.27,2.38,19.16l-3.27,47.2c-1.15,16.53-6.41,32.08-11.79,47.6-7.55,21.78-24,37.34-43.93,48.45-3.49-13.56-7.97-27.95-22-32.08l-20.83-6.14c-20.83-6.14-23.8,5.45-38.54,1.11-4.61-1.36-9.69-3.35-14.7-2.75-11.53,1.4-22.41,4.51-33.15,8.31-13.68,4.84-16.74,18.76-21.28,31.03-20.72-11.52-35.92-26.78-43.79-48.38-12.62-34.64-12.7-58.45-14.65-94.6-.43-7.96,1.02-14.85,3.51-21.84,5.21.07,10.25,2.41,15.86,3.26,6.87,1.03,13.55,1.96,19.62,4.25Z"/>
  <path class="cls-33" d="M563.45,646.9c1.4-3.04,7.55-5.91,6.02-10.59-.31-.96-1.66-2.16-3.2-1.87-11.24,2.17-22.25,1.69-33.55-.15-1.59-.26-2.96.46-3.81,1.53-2.46,3.09,3.2,8.63,5.42,11.34-4.23,6.74-12.17,8.23-19.72,5.18-12.57-5.08-22.75-17.19-23.97-31.35-.7-8.09,3.93-14.97,8.68-21.28,16.91-2.95,33.21-7.55,50.68-7.47,14.91.07,29.08,4.27,43.75,6,8.48,1,13.59,16.01,13.51,20.89-.25,15.32-11.23,28.9-25.19,33.78-7.26,2.53-14.64.09-18.6-6.03Z"/>
  <path class="cls-25" d="M684.34,552.94l6.49-62.48c-1.13,4.81,11.28-3.3,17.51,9.63,7.37,15.27,3.83,34.23-8.75,45.84-4.46,4.12-10.13,5.12-15.26,7.02Z"/>
  <path class="cls-10" d="M413.66,551.05c-4.93.61-9.98-.65-13.71-4.53-14.27-9.07-17.79-32.2-9.99-46.88,3.28-6.17,9.82-8.54,16.06-7.1.8.18,1.02-1.72,1.14-2.08l6.51,60.6Z"/>
  <path class="cls-40" d="M680.53,453.1c-.67.27-.73-.69-.89-1.12.65-.32.76.7.89,1.12Z"/>
  <path class="cls-23" d="M265.72,512.07c2.14,9.11,6.17,16.89,7.51,25.46l-38.63,13.88c-3.88,1.39-7.47,2.66-11.3.27-2.66-1.66-4.87-5.02-4.94-9.27l-1.67-105.68-1.28-85.01c-.06-3.98,2.9-7.23,5.69-8.37,3.68-1.5,8.05-.87,10.78,2.71l115.56,151.02c3.54,4.63,3.38,12.46-2.32,14.84-14.68,6.14-29.45,10.61-44.49,16.01l-8.33-23.41c-2.57-7.23-9.33-11.12-16.57-9.37s-11.93,8.77-10.01,16.93Z"/>
  <path class="cls-28" d="M330.35,583.69c-2.76-3.55-3.32-8.4-5.2-12.28-5.33-11.02-11.78-8.95-23.95-11.68-6.08-1.36-10.65-5.58-12.61-11.48l-12.68-38.16c-.63-1.9.46-3.81,1.67-4.4,1.67-.82,3.99-.19,4.73,2.03l10.95,32.98c6.77,20.41,27.84,7.75,35.94,22.83,2.94,5.47,4.62,12.36,6.76,17.97-.34,1.6-4.64,3.27-5.6,2.19Z"/>
  <rect class="cls-23" x="619.28" y="490.77" width="376.11" height="115.71" transform="translate(-2.86 1093.01) rotate(-68.1)"/>
  <circle class="cls-22" cx="930.65" cy="535.36" r="10.77"/>
  <circle class="cls-24" cx="167.15" cy="546.46" r="10.7"/>
  <path class="cls-39" d="M648.87,460.52c1.85,1.67,3.63,2.98,4.15,5.28.49,2.17-.44,4.5-1.79,5.46-7.46,5.31-16.29-15.69-56.75-4.43-3.12.87-7.04-.26-8.31-3.38s-1.17-7.13.11-10.14c25.69-6.4,39.95-6.09,62.59,7.2Z"/>
  <path class="cls-14" d="M511.55,463.59c-1.32,3.12-5.06,4.05-8.57,2.96-37.8-11.7-51.78,12.53-57.54,3.25-3.16-5.1,6.78-11.24,8.54-12.1,7.19-3.49,13.91-6.97,21.89-7.72,11.84-1.11,24.59-.63,35.6,3.98,3.08,1.39,1.06,7.7.08,9.63Z"/>
  <path class="cls-12" d="M625.55,490.63c3.5,9.89-.48,26.4-11.78,26.1-3.96-.11-8.04-2.14-10.2-6.28-3.48-6.66-3.5-15.84.44-22.34,2.45-4.04,7.3-6.24,11.33-5.84,4.55.45,8.53,3.61,10.21,8.36Z"/>
  <path class="cls-18" d="M492.36,512.67c-4.74,5.5-12.67,5.32-16.65.26-7.96-10.14-5.49-27.36,5.08-30.03,4-1.01,8.33.03,11.27,3.3,6.23,6.92,6.71,19.05.3,26.48Z"/>
  <path class="cls-8" d="M574.22,555.64c7.27,8.94-17.78,15.01-25.18,15.35s-27.11-4.89-26.81-11.91c.39-9,11.93-.03,24.85.88s24.19-7.95,27.14-4.32Z"/>
  <path class="cls-11" d="M586.22,610.94c-23.27,15.56-53.36,14.48-76.16-1.02-2.06-1.4-3.98-3.16-3.65-5.6l84.96.03c-.16,3.25-2.33,4.71-5.15,6.59Z"/>
  <path class="cls-5" d="M774.12,682.32c-4.26,10.08-16.74,11.99-25.65,7.55s-13.65-15.03-9.7-24.92l17.22-43.11c-3.12-7.74-2.81-15.2.38-23.15l49.4-123.13c2.99-7.45,8.35-12.14,15.38-15.28l17.86-43.32c4.18-10.14,16.06-13.38,25.29-9.25,9.94,4.45,14.57,15.05,10.43,25.58l-18.83,47.96c-2.04,5.2-1.35,10.32-3.6,15.95l-48.46,121.16c-2.11,5.28-5.92,7.68-7.88,12.31l-21.85,51.65Z"/>
  <path class="cls-23" d="M766.57,674.01c-2.02,5.15-6.07,8.18-10.81,7.25s-9.08-6.1-7.05-11.36l14.97-38.81c6.06,3.14,11.17,4.89,17.65,5.35l-14.76,37.58Z"/>
  <path class="cls-23" d="M849.26,467.78c-5-3.71-8.96-7.03-15.82-8.05l14.2-36.05c2.04-5.18,6.25-8.42,11.33-6.68,4.71,1.62,7.82,6.13,6.32,11.56l-16.03,39.22Z"/>
</svg>