<?xml version="1.0" encoding="UTF-8"?>
<svg id="Layer_1" data-name="Layer 1" xmlns="http://www.w3.org/2000/svg" viewBox="0 0 850.32 850.32">
  <defs>
    <style>
      .cls-1 {
        fill: #f0a04d;
      }

      .cls-2 {
        fill: #3c2d26;
      }

      .cls-3 {
        fill: #d58454;
      }

      .cls-4 {
        fill: #593f34;
      }

      .cls-5 {
        fill: #f0cdaa;
      }

      .cls-6 {
        fill: #656273;
      }

      .cls-7 {
        fill: #3268a5;
      }

      .cls-8 {
        fill: #382f2a;
      }

      .cls-9 {
        fill: #7b4735;
      }

      .cls-10 {
        fill: #f2a24b;
      }

      .cls-11 {
        fill: #f09e4e;
      }

      .cls-12 {
        fill: #f2e4c3;
      }

      .cls-13 {
        fill: #3e2e27;
      }

      .cls-14 {
        fill: #573e34;
      }

      .cls-15 {
        fill: #3e2e28;
      }

      .cls-16 {
        fill: #f2cc3e;
      }

      .cls-17 {
        fill: #3368a4;
      }

      .cls-18 {
        fill: #5d4138;
      }

      .cls-19 {
        fill: #976145;
      }

      .cls-20 {
        fill: #7b4737;
      }

      .cls-21 {
        fill: #533a31;
      }

      .cls-22 {
        fill: #7d4839;
      }

      .cls-23 {
        fill: #615c70;
      }

      .cls-24 {
        fill: #d1efed;
      }

      .cls-25 {
        fill: #fb7827;
      }

      .cls-26 {
        fill: #fb7a29;
      }

      .cls-27 {
        fill: #352c29;
      }

      .cls-28 {
        fill: #352b27;
      }

      .cls-29 {
        fill: #fefefe;
      }

      .cls-30 {
        fill: #3369a5;
      }

      .cls-31 {
        fill: #824a38;
      }

      .cls-32 {
        fill: #3e3028;
      }

      .cls-33 {
        fill: #3f3028;
      }

      .cls-34 {
        fill: #5a4036;
      }

      .cls-35 {
        fill: #553d33;
      }

      .cls-36 {
        fill: #352a24;
      }

      .cls-37 {
        fill: #fb7826;
      }

      .cls-38 {
        fill: #d3885e;
      }

      .cls-39 {
        fill: #583f35;
      }
    </style>
  </defs>
  <path class="cls-16" d="M468.91,138.15l.52,1.51c-4.05,26.76-7.77,53.64-11.16,80.64l.83-.07c6.42-25.58,12.91-51.07,19.48-76.47.49-.25,1.09-.21,1.81.12l7.76,4.26c15.62,8.57,38.42,32.94,45.99,51.03,5.75,13.74,8.73,22.87,10.9,37.9.53,3.7-.09,7.34,1.14,10.97,8.94,2.18,7.94,10.39,8.27,17.82.28,6.26.86,12.36-.44,18.57-.35,1.68-2.53,3.37-3.99,4.07-2.82,1.36-6.02.4-8.19,2.29l-.4.52c-6.4,1.06-12.94,2.22-19.62,3.48-2.44.67-4.73.61-6.86-.18-.55.15-1.01.51-1.39,1.08-58.72,5.87-118.77,5.75-178.45.47l-.61-1.06-.58.88-25.85-4.08c-1.07.37-1.66.06-1.76-.91-1.42-1.21-3.28-1.45-5.42-1.71-2.55-.31-6-2.03-6.48-4.88-1.04-6.19-.1-12.28.08-18.54.13-4.6-.52-9.29,1.66-13.38,1.25-2.33,4.67-2.6,6.28-4.27s1.13-4.82,1.51-7.01c1.23-7.1,2.37-13.76,4.4-20.68,6.51-22.23,15.74-37.75,31.05-54.81,6.67-7.43,19.33-18.02,28.13-21.82l1.67-.3c6.48,25,12.89,50,19.23,75,1.39,3.82,1.5,1.7.34-6.34-3.15-24.71-6.6-49.27-10.34-73.68l.68-.82c1.99-8.1,2.54-9.25,9.66-11.95,8.01-3.03,16.05-4.81,24.6-5.71,6.22-.66,12.16-.13,18.58-.33,10.94,1.09,21.45,3.72,31.66,7.71,3.48,1.36,4.21,8.35,5.29,10.68Z"/>
  <path class="cls-19" d="M514.96,294.62c-.59,6.56.5,12.17,6.23,16.21.77,1.64.36,3.63-1.22,5.98-1.37,4.66,1.01,9.49,5.64,11.01,4.78-8.33,15.97-1.3,21.27,3.1l-.24,1.16c3.49,4.41,5.02,10.7,5.79,16.29,2.11,15.3-3.35,30.48-14.69,40.59-2.83,2.52-5.58,4.51-8.99,5.91-.59.24-.79.62-.89,1.03l-.6.76c-.9.24-6.37,1.32-7.01,1.25-.88-.1-.71-.4-.71-.35-.04.93-.13,1.69-.35,2.6-3.23,13.51-8.14,28.1-16.08,39.5l-1.61.94c.64,1.41-.45,3.02-1.94,2.3-3.81,6.6-8.9,12.35-15.27,17.24-.96,1.58-1.92,2.09-2.9,1.51-.45,1.42-1.47,2.53-2.59,3.47-16.72,13.98-33.23,24.3-55.7,24.26-21.93-.03-39.29-12.95-55.54-25.86l-1.44-2.33c-.37.02-.74.02-1.09-.05s-.67-.13-.88-.31c-6.12-5.22-12.1-10.71-16.18-17.55-1.45-.1-2.22-1.79-2.4-3.13-1.26-.65-2.19-1.87-2.8-3.65-6.82-11.21-13.12-25.67-14.58-38.88-2.58.11-5.18-.31-7.81-1.26l-.67-1.28c-6.94-2.86-12.35-8.06-16.72-14.25-5.78-8.18-8.39-17.18-8.16-27.18.17-7.47,1.53-14.75,6.56-20.62-.63-.82-.98-1.36-1.51-1.92.76-.34,1.65-.47,2.66-.4,3.57-1.89,7.27-3.65,11.04-5.11,3.04-1.18,6.06-1.39,7.57,2.06,5.51-.28,8.26-6.46,6.98-11.48-1.59-2.58-1.8-4.73-.65-6.47,4.6-3.33,6.6-7.77,6.15-13.48l.9-1.12c15.51,2.44,86.53,4.72,104.57,4.04l38.51-1.44,37.38-3.09Z"/>
  <path class="cls-26" d="M526.44,517.32l8.19,4.27c0,70.49-.07,141.03-.22,211.64-.1.45-.41.76-.81.97-5.18.35-10.37.03-15.84,0l-25.72-.14c-2.44-.01-4.82.06-7.3,0l-4.51-.12c-7.94-.2-15.66-.32-23.57.09s-15.31.37-22.86.21c-1.07-.22-2.16-.39-3.26-.52.14-15.02.21-30.08.23-45.19.14-4.46,1.5-8.78,3.39-12.78,25.52-53.38,51.23-106.63,77.13-159.75l.7-.15c.02-2.22,3.71-2.48,5.56-2.37,1.53.09,7.04,2.05,8.51,2.8l.38,1.06Z"/>
  <path class="cls-7" d="M246.24,734.03l-6.1-.03-24.02-.08-10.61-.05-25.1-.11c-3.83-.02-7.72-1.87-10.71-4.11-6.19-4.64-8.33-12.46-6.6-19.93l10.82-46.76c3.31-14.32,6.94-28,11.97-41.82,6.27-17.24,16.04-32.45,29.25-45.15,9.58-9.21,19.54-14.98,31.02-20.79l.48.15c.18,59.36.3,118.57.34,177.66l-.73,1.03Z"/>
  <path class="cls-17" d="M600.91,733.97c-.5-.51-.55-1.28-.17-2.33v-131.53c-.2-15.39-.19-30.65.01-45.77l.67-.41c7.66,4.34,15.13,8.71,21.95,14.65,16.06,13.99,27.41,26.39,36.08,46.11,4.07,9.27,7.09,18.49,9.46,28.43l11.17,46.9,4.56,19.41c.77,3.26.69,6.47.08,9.93-1.43,8.04-10.38,14.26-15.85,14.28l-65.11.32c-1.12,0-2.06-.07-2.85,0Z"/>
  <path class="cls-24" d="M312.83,522.16c1.17-1.07,1.34-.08,1.53,1.16l.1,208.38c.11,1.75-.43,2.19-2.07,2.41-7.58-.03-15.2.76-23.05,0-3.98-.38-7.8.33-11.5-.33-1.43.16-1.76-.91-.96-3.22-.13-64.3-.05-128.54.23-192.74-1.09.15-.93-.12-.13-.85,2.17-.94,4.21-1.98,6.6-2.94l21.84-8.84c2.6-1.05,4.79-2.76,7.4-3.02Z"/>
  <path class="cls-24" d="M570.01,537.33c.32.65.29,1.51-.09,2.59-.09,64.15-.07,128.71.08,193.69-1.51.26-3.08.41-4.71.44l-30.71-.23c-.05-70.61-.02-141.21.1-211.81,4.6,1.39,10.5,4.14,15.3,6.25,6.85,3.01,13.68,5.51,20.04,9.06Z"/>
  <path class="cls-37" d="M601.43,553.92c-.17,1.01.33,2.45.32,3.68l-.13,15.31c-.02,2.66-.48,10.31,0,12.63.57,2.79-.29,5.68-.12,8.5.13,2.12.22,3.83.22,6.05v131.57c0,1.14-.36,1.72-.79,2.29-2.49.24-5.04.43-7.82.41l-22.01-.17-1.32-.45.15-193.74.7-2.63c5.58,1.32,10.74,4.34,16.26,6.68l7.47,3.16c3.26,1.38,5.79,3.47,7.08,6.71Z"/>
  <path class="cls-25" d="M248.53,549.35c1.45-1.32,14.13-7.01,15.39-6.73,4.31-1.47,8.56-3.17,12.75-5.11l.41.2c-.19,64.77-.33,129.74-.43,194.93-1.76.93-3.73,1.32-5.9,1.16-7.86-.1-15.76-.36-23.68-.78-.47-3.23-.54-6.55-.2-9.94.1-56.15,0-111.79-.3-166.92-.11-2.8.54-5.07,1.95-6.81Z"/>
  <path class="cls-28" d="M345.54,440.14c.32.37.74.93.75,1.39.04,1.54-2.01,5.15-2.96,6.43,4.1,5.39,4.41,14.43-.39,19.41,4.55,5.16,4.65,14.23.22,19.57,4.12,5.48,3.98,13.6.29,19.35l1,1.72c.98,1.46,1.11,2.63.38,3.49.27.36.45.85.17,1.15-2.4,1.19-5.26,2.44-7.77,2.83.18,1.44-.23,1.74-1.24.92l-.63.19c-3.68-1.84-7.63-1.39-11.83,1.35-1.67.92-2.8.85-3.37-.21-1.2-5.03-.34-10.58,3.1-14.75-1.39-2.3-3.88-5.7-2.91-7.61l.63-1.25c.08-.16-.36,0-.88-.19-.36-3.75.73-7.48,2.98-10.75-4.05-7.05-5.35-13.45.12-19.94-1.3-2.28-3.48-4.88-2.22-7.13-.5-.06-.78.01-.91-.15s-.47-.84-.29-1.06c2.22-2.83-2.83-2.96,3.49-11.62-3.98-6.55-5.47-12.83-.2-19.38-1.93-1.89-4.28-9.96-2.68-9.52-.12-.03-.7.04-.71-.09-.39-3.67.92-7.13,3.18-10.04-1.72-3-3.07-6.02-3.2-9.17,2.74,1.13,5.74,1.51,9.1,1.99,2.25,11.16,5.58,22.11,10.88,32.34,1.97,3.8,4.52,6.94,5.87,10.73Z"/>
  <path class="cls-28" d="M527.85,395.89c-.77,3.09-2.1,5.99-4.1,8.19,5,5.65,4.79,13.88.16,19.75,4.63,4.81,4.14,14.63-.37,19.5,1.54,2.15,3.68,4.6,3.4,7.16-.86,8.01,2.26,2.67-3.13,13.01,4.94,4.73,3.96,14.19.21,19.39,4.29,6.9,4.06,13,.09,19.93,1.69,2.88,3.54,5.66,2.93,9.25-.3,1.79.61,3.78-.6,5.25-5.27-.94-8.35-5.1-14.46-1.48-1.25.99-1.46.55-1.78-.87-.36.16-.72.2-1.1.18-1.09-.06-6.76-2.42-6.56-4.06l-.5-1.23,2.04-3.61c-3.88-5.23-4.62-14.64.17-19.34-4.59-5.89-4.8-13.99.09-19.8-4.68-5.25-4.69-14.01-.46-19.65-1.43-1.9-3.04-4.49-2.41-6.87,2.53-4.73,5.69-9.02,7.96-14.16,4.2-9.51,7.19-19.18,9.47-29.41,2.57.07,8.5-1.91,8.94-1.13Z"/>
  <path class="cls-13" d="M334.51,295.11c1.08,15.22-9.11,13.36-6.58,18.04,2.94,5.45,1.46,11.74-3.83,14.82-1.03.6-1.85.92-3.17.62-.79-.18-1-1.6-1.86-2.22-1.85-1.34-4.51-.17-6.44.65-3.19,1.36-6.18,2.61-9.17,4.3-1.38.78-2.46.48-3.6-.21-.32-.35-.27-1.19-.59-1.44-.08-.85-.33-1.55-.73-2.12-2.2-6.12,1.29-7.15,2.81-10.78-5.91-4.11-2.3-13.97.69-18.57,1.41-2.18,5.32-3.73,4.28-7.2.48.41,1.09-.16,1.81-.04l26.38,4.15Z"/>
  <path class="cls-36" d="M541.84,290.8l5.32,8.95c1.64,2.77,2.45,6.03,2.79,9.23.63,6-4.11,6.37-2.24,8.96,3.36,4.65,2.67,10.14-1.06,14.13-2.25-2.84-15.86-11.18-19.27-4.93-.39.72-.77,1.32-1.31,1.52-.72.27-1.34-.08-2.03-.44-5.5-2.84-6.97-9.45-3.63-14.62.28-.43.59-.93.52-1.38-.3-1.84-7.41-3.88-6.96-14.27.06-1.31-.34-2.75,1-3.34,7.64-.63,15.19-2.15,22.95-3.81,1.45-.31,2.74-.55,3.92,0Z"/>
  <path class="cls-3" d="M336.01,516.4l.99.67c26.22,54.23,52.32,108.34,78.31,162.32l1.14,4c.57,15.92.75,31.88.54,47.88.49,1.65.31,2.58-.53,2.78-7.98-.5-16.01.17-24.43.17h-49.37s-30.26-.11-30.26-.11c.83-.44,1.11-1.04,1.11-2.43l-.1-208.49c0-.75-.29-.9-.57-1.02.6-2.1,6.14-2.43,7.36-4.43,2.49-.02,4.35-1.46,6.98-2.46s7.32-1.65,8.84,1.13Z"/>
  <path class="cls-23" d="M511.99,515.83c-.46,1.94-1.84,3.89-2.79,5.88l-7.78,16.3-22.95,47.03-6.62,14.06c-.93,1.97-2.05,3.69-2.92,5.77-2.52,6.01-5.57,11.52-8.41,17.43l-12.3,25.64-13.52,28.22c-2.38,4.97-3.47,9.77-3.45,15.39l.1,41.97c.95.37,2.26-.12,2.45.71-3.16-.07-6.47.5-9.77.29l-7.57-.48-.05-45.8c0-4.93-1.68-9.24-3.77-13.5l-10.09-20.53-11.83-24.63-8.15-16.79-8.94-18.52-21.23-43.96-10.8-22.4c-1.91-3.96-3.58-7.85-5.59-11.52.3-.37.98-.51,1.24-.92l1.05.71c25.64,53.4,51.57,107.03,77.79,160.89,1.26,3,2.13,6.17,2.24,9.44l.19,45.35c.09.49.26.72.74.82,1.66.34,9.39.89,9.75-1.18l.22-43.98c.12-3.12.91-6.15,2.01-9.05,9.88-21.33,19.71-42.38,30.31-63.44.72-2.4,1.78-4.53,3.17-6.39,14.34-30.2,28.99-60.4,43.95-90.61.28-1.41.79-2.43,1.53-3.06.57.33,1.18.6,1.78.87Z"/>
  <path class="cls-1" d="M367.53,143.9c-1.45.62,12.57-6.2,11.58-6.14.46.89.67,2.11.85,3.35l3.88,27.34,4.89,36.37c.72,5.38,1.49,10.45,1.93,15.94.06.71-1.26.68-1.7.56-1.67-.47-4.37-13.24-5.05-16.03l-2.24-9.24-6.31-24.92-6.24-24.98c-.29-1.15-.25-2.32-1.59-2.24Z"/>
  <path class="cls-11" d="M480.38,143.89c-1.12-.06-1.3.8-1.56,1.83l-6.25,24.92-12.06,48.89c-.25,1.02-.81,1.66-1.55,1.73-.59.05-1.84.04-1.75-.92.5-5.35,1.31-10.18,2.04-15.47l7.29-53.07c.66-4.82.82-9.35,2.36-13.65,3.9,1.83,7.74,3.68,11.48,5.73Z"/>
  <path class="cls-38" d="M277.84,733.78c-8.39,1.29-23,.29-31.61.25-1.06-3.61-.07-6.98-.07-10.97l-.03-167.87c.03-.88.84-2.13.59-3.24-.42-1.82,1.13-2,1.81-2.6-1.36,1.9-1.24,4.38-1.51,6.82.09-.85.11,20.66.03,19.64l.46,5.46.09,151.15c4.02.85,7.48,0,10.97.15l6.39.25c2.73.11,11.47,1.73,11.46-2.12l-.06-148.52c0-2.09-.18-3.44-.13-5.39l.4-18.43c.15-6.88-.02-13.43.29-20.55l-6.24,2.57c-1.58.65-5.4,2.53-6.76,2.23l13.06-5.65c.2.39.38.68.38,1.56l-.02,193.16c0,1.12-.07,1.64.5,2.1Z"/>
  <path class="cls-12" d="M571.08,734.2l-5.8-.14c.84-.71,1.98-.27,3.88-.29l.06-157.37v-36.53c-.01-.97.96-1.74.78-2.54.16.09.42,0,.6.05l-.12,194.3c0,1.27.07,1.88.59,2.53Z"/>
  <path class="cls-5" d="M534.66,522.02c-.07.64.38,1.1.38,2.15v207.02c0,1.29-.06,1.9-.48,2.64-.28.1-.63.35-.97.37.42-.69.49-1.27.49-2.53v-208.99c0-.81.14-1.05.54-1.09,0,.14.05.29.03.43Z"/>
  <path class="cls-19" d="M299.28,329.67c-.72-.57-.47-1.38-.73-2.12.92-.05.88,1.42.73,2.12Z"/>
  <path class="cls-10" d="M452.38,267.5c-37.23-.95-77.95-.88-114.44,6.02l-12.6,2.38c-1.32.25-2.23-.14-2.71-1.41-.26-.7,0-2.08,1.16-2.55,5.25-2.09,10.42-3.42,16.1-4.58,22.35-4.58,44.68-6.99,67.52-7.57,29.64-.74,82.26.86,109.61,9.63l6.89,2.21c1.24.4,1.95,1.65,1.81,2.45-.21,1.21-1.19,2.18-2.73,1.87-11.68-2.37-23.04-4.55-34.96-5.82s-23.53-2.33-35.66-2.64Z"/>
  <path class="cls-31" d="M481.38,461.63l.91,1.22-.75,12.76c-.23,13.59,2.1,23.92,14.67,31.17l.46,1.26c-2.92,2.57-6.95,4.8-10.82,6.37-16.18,6.56-34.48,7.43-51.46,3.34-19.95-4.8-34.41-14.61-50.59-26.5-5.74-4.22-12.4-10.31-16.67-15.18l-.97-.41-.21-12.16c-.59-1.05-.53-1.82.16-2.32l12.97,10.08,9.24,6.12c5.45,3.61,14.19,6.96,15.03,7.52,1.86,1.24,4.26,1.17,6.33,1.83,8.79,2.8,24.54,1.89,33.2-1.16,14.96-5.27,22.8-11.01,34.85-20.8,1.32-1.07,2.21-2.49,3.67-3.13Z"/>
  <path class="cls-29" d="M425.4,432.41c-10.09.1-19.32-1.67-27.69-6.71-4.69-2.82-11.02-8.29-12.77-13.28-.17-.48.66-.68,1.43-.68l76.2-.04c.27,1.74-.6,3.25-1.67,4.53-8.83,10.54-21.45,16.04-35.5,16.18Z"/>
  <path class="cls-27" d="M366.1,461.18l.79,1.97.23,12.92.98,1.21c1.16,14.33-4.06,24.31-15.88,32.42h-1.53c-.16.41-.3.37-.42-.06l-1.1-.6c-1.34-5.66-2.11-11.76,2.05-16.49l-2.48-6.26c-1.22-3.17-1.13-5.94.26-8.31-.08-1.88.79-3.53,2.62-4.96-3.94-5.67-5.58-15.17.39-19.92-1.49-1.51-4.43-6.21-4.56-8.26-.04-.58.19-1.11.51-1.58,2.65,1.9,6.4,7.49,9.49,10.22s5.68,5.36,8.66,7.68Z"/>
  <path class="cls-8" d="M497.25,508.05c.03.93-.35.93-.58,0-3.14-1.29-5.61-3.67-8.13-6.14-11.04-10.79-7.61-26.54-7.15-40.28.99-.44,1.47-1.58,2.4-2.35,4.24-3.51,7.96-7.27,11.51-11.49,1.47-1.75,2.67-3.5,4.25-4.92l.65,1.4c-.09,1.76-2.87,8.51-4.31,9.19-.02.01.32-.17.49.04,4.42,5.29,3.6,14.33-.32,19.69,4.17,5.41,3.88,13.81-.07,19.14,2.83,2.9,4.14,10.84,2.57,14.59-.27.65-.48,1.02-1.33,1.11Z"/>
  <path class="cls-22" d="M326.02,380.6c-10.61-2.88-15.11-6.72-18.52-16.27-2.91-8.14-2.26-17.2,2.85-24.17,1.94-2.64,5.14-3.87,8.22-3.71,2.51.13,3.63,2.13,3.73,4.46.53,13.32,2.05,26.19,3.73,39.68Z"/>
  <path class="cls-20" d="M539.12,367.44c-4.38,8.35-7.71,10.48-17.14,13.18l3.95-40.4c.21-2.19,1.2-3.21,3.33-3.43,4.24-.44,7.7,1.43,9.76,5.41,3.97,7.69,4.27,17.28.1,25.23Z"/>
  <path class="cls-2" d="M395.17,317.06l-18.97-3.15c-8.69-1.44-17.53,1.91-24.63,6.92-1.45,1.02-2.72,1.1-3.85-.23s-.67-2.5.77-3.83c4.93-4.55,10.94-7.47,17.41-9.47,9.53-2.94,21.72-.63,31.08,2.43.71.23,1.23.85,1.48,1.26.71,1.12-1.27,6.41-3.29,6.08Z"/>
  <path class="cls-15" d="M483.29,314.73c-14.4-3.07-24.7,2.8-30.77,2.03-2.22-.28-3.89-4.29-2.89-6.34,6.78-2.72,14.45-4.24,21.81-4.48,8.31-.26,16.07,2.81,23.07,7.07,2.47,1.51,4.96,3.13,6.32,5.76.67,1.28-1.86,3.64-3.1,2.78-4.55-3.13-9.04-5.66-14.45-6.81Z"/>
  <path class="cls-33" d="M375.04,354.17c-1.9-.66-3.37-1.66-4.4-3.06-4.77-6.48-4.3-17.59,3.63-20.95,3.04-1.29,6.53-.09,8.62,2.48,3.51,4.31,4.45,10.4,2.41,15.53-1.67,4.2-5.59,6.7-10.26,6Z"/>
  <path class="cls-32" d="M477.34,350.68c-.93,1.29-2.38,2.61-3.95,3.16-3.54,1.24-7.66-.36-9.61-3.78-3.08-5.41-2.7-12.57,1.09-17.65,1.69-2.27,5.47-3.48,8.12-2.56,7.9,2.74,9.01,14.4,4.36,20.84Z"/>
  <path class="cls-9" d="M404.2,386.81c-1.21-1.22-.55-3.66-.32-4.93,1.71-1.29,3.11-.37,4.61.46,2.03,1.12,4.34,1.43,6.56,2.2,6.33,2.2,13.16,1.68,19.51-.25s5.75-3.66,8.01-3.53c2.73.16,1.22,6,.26,6.83-4.87,3.04-10.57,4.86-16.13,5.76-4.32.69-7.95.03-11.83-1.39-3.65-1.33-7.66-2.12-10.67-5.14Z"/>
  <path class="cls-30" d="M499.54,510.09c1.02.26,2.06.52,3.01.99,2.1,1.04,4.07,2.37,6.59,2.89.61.13.75.81,1.07.99.28,1.31-.21,2.68-.93,3.97-1.83,3.3-3.17,6.55-4.85,9.99l-14.49,29.55-3.76,7.84-4.99,9.84c-1.77,3.5-3.16,6.95-4.93,10.49l-6.33,12.7-4.36,9.72c-.36.8-1.34,1.44-1.58,2.26-1.34,4.69-4.13,8.54-6.14,12.87s-3.57,8.39-5.9,12.39c-1.79,3.08-2.51,6.71-4.52,9.55-1.86,2.64-3.22,7.64-5.31,11.48-1.02,1.88-1.97,3.45-2.75,5.48-2.92,7.52-9.15,16.14-9.19,25.03l-.2,43.12c0,1.42-.98,2.54-2.44,2.52l-8.06-.13c-1.39-.02-1.96-.98-1.96-2.37l-.13-44.13c-.01-4.38-1.5-8.54-3.4-12.37l-8.89-17.98c-3.3-6.69-5.96-13.45-9.66-20.02-2.45-4.34-3.97-8.76-6.16-13.22l-9.9-20.14c-1.74-3.55-3.31-6.82-5.06-10.38l-11.82-24.09-10.75-22.47-5.02-9.82-8.39-17.95c-.53-1.14-1.11-2.14-1.09-3.24,1.33-2.13,6.24-2.3,7.59-3.98.97-.55,2.5-.7,3.59-.97,1.16-.51,1.76.42,1.79,2.77,10.57,22.84,31.18,37.99,55.8,42.91s48.98.61,68.33-14.43c10.12-7.87,20.8-19.25,23.52-31.91l1.67.23Z"/>
  <path class="cls-21" d="M332.13,447.37c-1.64-.54-2.82-1.98-3.4-3.44-.63-1.59-1.81-2.72-2.49-4.16-1.78-3.8-5.4-8.79-2.39-10.23,1.07-.51,2.38-.79,3.44-.51.83.22,1.85,1.22,2.32,2.37.99,2.38,2.26,4.39,3.34,6.69l2.8,5.97c.45.95.01,2.03-.54,2.68-.59.7-1.59,1.11-3.09.62Z"/>
  <path class="cls-35" d="M335.84,504.15c-.15,1.37-1.72,1.93-2.61,2.09-1.16.21-2.68-.43-3.37-1.63l-5.09-8.8c-1.04-1.79-1.49-3.71-1.8-5.87.77-1.56,3.29-3.14,4.81-1.96,2.24,1.75,2.8,4.73,4.04,7.09l2.15,4.1c.78,1.49,2.11,2.83,1.88,4.98Z"/>
  <path class="cls-39" d="M334.56,486.41c-2.99,2.98-7.26-5.4-8.89-7.92-1.41-2.17-3.09-5.41-2.81-8.11.38-1.49,4.85-2.4,5.71-1.06,2.88,4.46,4.86,9.19,6.86,13.97.49,1.16-.2,2.44-.87,3.12Z"/>
  <path class="cls-34" d="M511.24,505.33c-1.59-2.49,5.91-14.17,7.36-16.42.76-1.19,2.51-1.32,3.56-1.13.95.17,2.81,1.21,2.32,2.72-1.62,4.96-4.32,9.49-7.05,13.89-1.36,2.19-4.07,2.62-6.19.94Z"/>
  <path class="cls-4" d="M512.67,447.42c-1.55-1.76-.97-3.71-.17-5.4l3.1-6.52c1.23-2.59,2.17-5.13,4.56-7.03,1.26-.82,4.54.53,4.2,2.38-.66,3.56-6.08,18.71-11.69,16.58Z"/>
  <path class="cls-18" d="M522.63,476.45c-1.67,3.22-5.03,12.42-9.97,10.22-1.45-.65-1.17-3.42-.55-4.68l5.15-10.3c.7-1.4,1.53-2.76,2.7-2.86,1.63-.14,3.46-.22,4.05,1.49.72,2.08-.44,4.31-1.38,6.14Z"/>
  <path class="cls-14" d="M523.78,452.68c-1.48,3.66-6.75,16.91-11.58,13.8-.96-.62-.71-1.87-.79-2.85-.17-2.2.97-3.06,1.82-4.53l5.11-8.88c.42-.73,1.16-1.25,1.7-1.45.83-.31,1.48.27,2.25.63,1.4.65,2.07,1.83,1.48,3.28Z"/>
  <path class="cls-37" d="M403.83,660.34l6.15,12.86c2.25,4.71,5.1,8.91,5.1,14.46l.07,42.67c0,1-.35,1.67-1.02,2.2-.44.35-1.16.35-2.04.33l-12.38-.22c-5.53-.1-10.81-.19-16.29-.15l-10.55.08c-8.09.06-15.97.21-24.02.02-2.98-.07-5.61-.31-8.61-.19l-4.38.17-18.7.18c-1.36.01-2.39-1.01-2.39-2.53l-.04-187.35-.16-4.08c-.2-5.26-.58-10.37-.13-15.68.1-1.17.83-2.04,1.94-2.41,3.92-1.32,7.56-2.72,11.41-4.32,1.79-.74,4.43-1.07,5.94.15,2.38,1.93,2.84,5.03,4.16,7.43,2.72,4.9,4.23,7.57,6.2,13-.65-1.79,4.49,8.61,4.42,8.34.56,2.25,1.24,3.87,2.57,5.72,2.45,3.43,3.38,7.73,5.48,11.35,1.91,3.31,3.26,6.67,4.89,10.07l6.68,13.91,5.46,11.3,5.09,10.23,5.95,12.86,4.52,8.8c1.48,2.88,2.4,5.83,3.84,8.77l10.8,22.01Z"/>
  <path class="cls-19" d="M496.66,508.04c.18.05.39-.03.58,0-.12.35.15.82.07,1.19.28.27.49.54.47.79-.91,10.05-14.15,24.51-22.09,30.73-18.44,14.45-41.09,19.82-63.94,16.45-18.64-2.75-37.05-11.14-49.43-25.39-2.68-3.09-13.23-17.44-12.66-21.1.09-.55.49-.89,1.02-.99,4.28-3.54,8.92-6.64,12.03-11.61,4.66-7.46,4.55-13.54,4.4-22.03-.01-1.33,4.19,3.44,5.62,4.52,2.18,1.65,3.96,3.5,6.13,5.31l4.63,3.87c13.12,10.95,29.88,20.86,46.37,25.78,16.15,4.82,32.84,5.14,49.03.22,5.17-1.57,10.12-3.27,14.49-6.49,1.06-.78,2.01-1.54,3.27-1.22Z"/>
  <path class="cls-6" d="M499.54,510.09c-2.64-.07-.15,2.43-3.67,8.34-4.07,6.82-10.27,15.52-16.46,20.42-11.14,8.83-17.01,12.85-30.92,16.66-9.8,2.68-19.7,4.29-29.82,3.33-16.89-1.6-29.01-5.31-43.12-14.45-12.73-8.24-18.93-17.6-26.11-30.5-.57-1.02.04-2.7-1.01-3.35.64-.16,1.23-.67,1.85-.9l.42.07c-1.12,1.1,5.3,12.69,5.97,13.68,1.74,2.59,10.67,13.08,12.49,14.4l4.17,3.03,5.6,3.57c3.57,2.28,7.26,4.4,11.23,5.99l5.83,2.33c6.93,2.77,26.03,5.67,33.32,4.69l8.84-1.19c5.29-.71,12.69-2.97,17.76-4.75,6.8-2.38,15.16-7.92,20.71-12.48,2.29-1.89,3.98-3.8,6.06-5.98l3.96-4.15c2.2-2.3,3.73-4.84,5.52-7.44,2.66-3.86,4.12-7.76,5.16-12.18.78.13,1.48.68,2.22.86Z"/>
</svg>