<?xml version="1.0" encoding="UTF-8"?>
<svg id="Layer_1" data-name="Layer 1" xmlns="http://www.w3.org/2000/svg" viewBox="0 0 1112.64 1112.64">
  <defs>
    <style>
      .cls-1 {
        fill: #7a4734;
      }

      .cls-2 {
        fill: #686271;
      }

      .cls-3 {
        fill: #193e75;
      }

      .cls-4 {
        fill: #fdfdfe;
      }

      .cls-5 {
        fill: #f19b4d;
      }

      .cls-6 {
        fill: #372e29;
      }

      .cls-7 {
        fill: #573c35;
      }

      .cls-8 {
        fill: #f1a34a;
      }

      .cls-9 {
        fill: #f29d4d;
      }

      .cls-10 {
        fill: #6d6873;
      }

      .cls-11 {
        fill: #3369a4;
      }

      .cls-12 {
        fill: #22436e;
      }

      .cls-13 {
        fill: #593f36;
      }

      .cls-14 {
        fill: #3f2f28;
      }

      .cls-15 {
        fill: #543d33;
      }

      .cls-16 {
        fill: #f2cc40;
      }

      .cls-17 {
        fill: #3d2d25;
      }

      .cls-18 {
        fill: #352b26;
      }

      .cls-19 {
        fill: #fefeff;
      }

      .cls-20 {
        fill: #3e2e26;
      }

      .cls-21 {
        fill: #f2cf47;
      }

      .cls-22 {
        fill: #f09d4d;
      }

      .cls-23 {
        fill: #7f4937;
      }

      .cls-24 {
        fill: #5c4137;
      }

      .cls-25 {
        fill: #21426d;
      }

      .cls-26 {
        fill: #fffffe;
      }

      .cls-27 {
        fill: #f09f4c;
      }

      .cls-28 {
        fill: #563f35;
      }

      .cls-29 {
        fill: #3368a4;
      }

      .cls-30 {
        fill: #fff;
      }

      .cls-31 {
        fill: #513931;
      }

      .cls-32 {
        fill: #563e34;
      }

      .cls-33 {
        fill: #d1efed;
      }

      .cls-34 {
        fill: #f19d4f;
      }

      .cls-35 {
        fill: #986245;
      }

      .cls-36 {
        fill: #352b27;
      }

      .cls-37 {
        fill: #fefefe;
      }

      .cls-38 {
        fill: #352923;
      }

      .cls-39 {
        fill: #804936;
      }

      .cls-40 {
        fill: #7c4838;
      }

      .cls-41 {
        fill: #fb7828;
      }

      .cls-42 {
        fill: #814c38;
      }

      .cls-43 {
        fill: #fb7826;
      }

      .cls-44 {
        fill: #824a37;
      }

      .cls-45 {
        fill: #ef9d4e;
      }

      .cls-46 {
        fill: #986142;
      }

      .cls-47 {
        fill: #f2a150;
      }

      .cls-48 {
        fill: #3e3027;
      }

      .cls-49 {
        fill: #362c29;
      }

      .cls-50 {
        fill: #583f35;
      }

      .cls-51 {
        fill: #7b4636;
      }

      .cls-52 {
        fill: #f1ce43;
      }

      .cls-53 {
        fill: #fdfdfd;
      }

      .cls-54 {
        fill: #fcfdfd;
      }
    </style>
  </defs>
  <circle class="cls-3" cx="555.96" cy="556.68" r="494.06"/>
  <path class="cls-30" d="M894.71,879.01c-.95,1.04-1.98,1.34-2.7.17-14.92-32.86-39.63-60.26-71.26-78l-3.19-3.95c-2.34,2.08-3.26.24-3.58-2.3-1.93-.16-3.58-1.58-4.94-4.27l-3.79-3-32.2-13.77-.29-2.21c-1.72,1.17-3.39,1.23-5.03.19-14.54-6.51-29.33-12.9-44.35-19.19l-2.44-2.81c-3.46-.04-11.51-2.08-10.76-6.13-1.53-1.61-1.92-4.06-1.17-7.38-.22-4.64-1.71-9-4.48-13.07,5.76-9.18,5.96-17.93-.02-27.07,5.72-9.45,6.15-18.46-.12-27.78,6.1-9.23,6.49-17.96-.24-26.94,5.9-9.15,6.94-17.93.5-27.12,5.98-9.28,6.46-18.03-.23-27.07l3.72-6.71c.43-2.56,1.48-4.17,3.14-4.82l1.5-2.94c29.17-15.41,40.31-53.09,24.98-82l.34-3.09-.96-1.98c3.59-6.48,3.99-12.7-.53-18.85,4.46-8.66,3.72-16.38-3-23.58l1.18-6.54c-.72-3.6-.3-6.21,1.27-7.83-1.35-4.14,10.04-7.68,11.64-3.86l6.96-1.98c14.65-.49,29.2-.4,43.67.26,1.41,5.09,1.82,10.49,1.24,16.18.24,4.92,4.12,6.95,11.63,6.09l2.06,2.81-.05,74.04c-3.26,4.75-7.06,9.24-11.4,13.47-1.29,1.87-1.63,3.86-1.3,6.09l19.91,58.33c2.76,2.49,6.92,3.31,12.48,2.46,4.81.79,3.83,11.28,2.54,15.17-1.06,3.21-3.01,5.69-5.76,7.63-49.06,25.23,4.23,87.23,35.37,42.29,8.9-15.79-.24-27.04-6.08-3.71-18.49,30.23-59.4-2.49-33.7-26.78,13.82-6.96,19.48-15.46,17.79-31.39-.03-1.89,1-2.96,2.83-3.32,5.56.93,9.84.14,12.85-2.36l19.72-57.69c.5-2.35.46-4.46-1-6.47-4.16-3.96-8.02-8.11-11.6-12.47l-.13-74.91c.11-1.96,1.06-2.93,3-3.23,6.32.98,9.87-.51,10.66-4.46l.24-15.96,2.75-2.26,75.08-.26c2.79-.4,3.4-2.22,3.05-4.75-16.14-20.12-32.94-39.65-50.4-58.58-17.04-.41-34.13-.53-51.28-.35l-127.69-32.54-.63-2.14-1.15-.76c-.07,1.69-.57,1.66-1.52-.1l-3.46-3.45c-14.83-37.2-41.05-70.03-76.53-88.96l-2.64-3.39-2.02,1.15c-3.72-2.55-7.66-4.58-11.82-6.08l-.92-2.1-2.19-1.42c-.27-1.87-3.86-11.53-4.43-11.8-14.03-6.76-38.6-11.2-54.23-11.25-18.97-.06-37.5,3.68-54.78,11.46-3.2,1.44-5.53,7.56-6.04,10.91l-1.97,1.38c.04,1.57-.4,2.09-1.24,2.96-.42.44-9.61,4.95-10.86,5.4l-2.41-.61c.04,2.21-1.77,3.62-5.43,4.25-12.4,8.04-24.04,16.91-34.9,26.62l-1.83-1.29-2.24,1.4-90.67-23.45-1.85-.82c-8.38-19.65-34.92-13.7-34.69,7.45-47.42,40.1-95.08,79.96-142.97,119.58-.46,26.57-.6,53.23-.42,79.98l2.05,3.49c18.83.59,37.74.76,56.75.51,2.52-.4,3.22-.57,3.87-3.26v-72.93c-.05-1.64,1.08-2.65,2.56-3.08,14.23-.37,28.36-.19,42.41.56l1.12,1.92.11,97.47.75,1.91c4.13,1.92,8.87,2.63,14.2,2.13l1.23,2.12.51,1.51.02,332.81c1.23.4,1.6,1.11.98,2.17-30.37,20.8-52.31,50.43-64.46,85.06l-3.39,3.85c-138.1-129.64-184.36-329.78-117.14-506.87C186.02,213.66,353.43,94.62,542.77,89.27s363.2,104.06,440.3,277.08c77.1,173.01,42.21,375.45-88.36,512.67Z"/>
  <path class="cls-43" d="M448.05,742.69l4,4.73c35.1,73.19,70.06,145.72,104.87,217.62l2.45,8.22c1.05,16.62,1.41,33.25,1.08,49.88l-1.91,1.14c-48.18.27-96.12-6.92-142.11-21.3l-1.92-1.5c.1-83.61-.02-167-.35-250.17l2.65-2.7c-.89-2.88,6.49-5.49,8.49-4.63,2.42-3.23,10.16-5.98,14.39-6.3,3.04-.23,9.56,1.23,8.36,5.02Z"/>
  <path class="cls-41" d="M710.15,743.72c2.59,2.9,8.41,2.72,10.76,6.13l1.8,1.19c.16,80.42.22,160.86.17,241.32l-1.92,1.84c-44.97,16.96-92.28,26.88-140.27,29.42l-3.75-.92c-.56-16.85-.3-33.68.79-50.51l1.74-5.38,107.38-223.71,2.24-.23c-1.69-5.65,5.8-5.45,10.2-5,2.43.25,11.18,3.14,10.87,5.85Z"/>
  <path class="cls-29" d="M464.59,734.29c1.49-.46,2.32.87,2.48,4,37.23,80.94,165.87,83.21,202.62-1.06,0-4.05.27-4.11,4.09-3.13,1.14-2.6,3.96-1.72,3.89,1.06,1.33-2.82,7.43,1.08,9.72,2.73,2.99,1.53,3.56,3.19,1.69,4.99l-70.51,146.34-35.09,73.26c-2.55,5.32-4.66,10.54-4.68,16.46l-.11,43.17c0,1,1.68,1.19,2,1.52-7.38.39-14.77.61-22.15.65l-.19-42.29c-.03-7.4-1.92-14.08-5.16-20.64l-13.98-28.36-24.92-51.91-42.12-87.13c-8.43-17.43-17.25-33.81-24.11-51.26-3.62-3.72,7.88-9.22,10.69-6.61.23-3.22,3.95-4.52,5.84-1.79Z"/>
  <path class="cls-33" d="M416.81,748.6c-1.69,4.33-.49,8.63-.49,13.87l.1,240.5c-17.27-5.4-34.21-11.8-50.74-19.16l-1.92-1.85-.13-202.89c-.65-3.66-.02-6.04,1.91-7.11-.18-2.35,1.77-4.17,5.88-5.44v-292.21c-.1-2.26.7-3.3,2.89-2.2l1.92.92v291.16c23.88-10.18,35.83-15.27,35.83-15.27l4.75-.32Z"/>
  <path class="cls-33" d="M772.74,771.67c.19,65.48.25,131.58.2,198.29l-1.77,1.85c-16.29,8.44-33.05,15.92-50.22,22.39l-.05-244.35c8.24,2.5,16.02,6.39,24.27,10.02l23.24,10.21,4.32,1.6Z"/>
  <path class="cls-29" d="M313.12,799.44c2.19-1.96,4.76-3.5,7.72-4.62l1.69,1.63,1.92.65s.38,54.74,1.14,164.22l-1.91,1.19c-31.68-18.13-61.13-39.92-87.75-64.9,12.68-37.07,33.04-67.36,66.4-89.88l-.05-335.53c1.64-2.32,2.41-.97,2.93,1.48v329.27c1.94-.13,3.88-1.27,5.81-3.43l2.1-.09Z"/>
  <path class="cls-41" d="M365.69,983.81c-14.35-6.39-28.37-13.5-42-21.31l-1.15-166.06c-3.21-1.92,1.09-6.78,3.06-8.89,2.29-2.47,6.03-6.26,9.24-4.15-.34-3.19,8.26-6.12,10.61-3.97-.19-.72-.41-1.8.06-2.09,1.23-.77,14.13-5.95,15.4-6.14l1.96,1.29c.19-2.76,1.17-2.68,2.68-.53l.14,211.86Z"/>
  <path class="cls-43" d="M772.74,771.67l32.13,13.68c4.42,1.88,7.44,5.63,9.1,9.57,1.4,1.03,1.6,2.75.59,5.14-.61,48.43-.75,96.92-.44,145.47l-1.22,1.82c-13.48,8.86-27.41,17.03-41.73,24.45l-.36-198.06c0-1.12.22-1.64.58-1.89s.93-.19,1.34-.19Z"/>
  <path class="cls-11" d="M817.56,797.22c32.73,17.53,58.87,44.11,74.7,78.39.68,1.47,1.11,2.71,2.44,3.4-23.89,25.11-50.5,47.48-79.33,66.71l-1.31-.57c-.24-48.44-.09-96.62.44-144.54.3-4.1,1.31-5.23,3.06-3.38Z"/>
  <path class="cls-10" d="M817.56,797.22c-1.36-4.2-2.61,12.99-2.62,10.98l.22,57.54-.07,16.3c-.04,10.32,1.11,20.1.16,30.33-.61,6.51-.11,12.79.02,19.14.1,4.81-1,9.38.1,14.22-.82.55-1.64,1.09-2.47,1.64l.19-146.71c0-2.36,1.31-3.91.88-5.72,1.5.22,2.39,1.66,3.58,2.3Z"/>
  <path class="cls-16" d="M630.42,220.6c.73.1,1.86.48,1.81.93-4.68,36.57-10.88,76.97-16.54,111.48,2.15-3.31,3.61-7.26,4.39-11.88l22.96-92.85,2.14-.65c16.5,7.49,30.72,19.3,43.76,32.73,17.63,18.14,29.81,39.97,38.87,63.07,2.59,1.1,4.92,7.67,5.37,10.45l-1,2.03,1.53,1.29c2.25,11.98,3.37,17.97,3.37,17.97l-.87,1.82c1.32.81,1.86,2.3,1.64,4.48l2.02,7.76-1.79,2.1,1.82,3.51c-.91,10.33.18,19.73,3.27,28.18,4.47,3.12,9.14,5.99,14.01,8.61l-.12,2.34c1.25.37,1.79.7,1.89,1.82.61,6.33-6.39,8.65-11.29,9.31-4.06.04-8.64,1.19-11.64,3.86-.72.63-1.46,1.22-2.27,1.71-4.81,2.9-25.54,5.71-32.53,6.4-.85.08-1.72-.09-2.61-.31s-1.81-.58-2.69-.98c-2.06.72-4.14,1.4-6.24,1.94s-4.19,1.05-6.32,1.27c-79.49,8.18-161.49,5.68-237.09-.22l-1.01-1.99c-.76.44-1.53.84-2.34,1.11-5.73,1.91-34.74-5.04-42.11-7.54-3.89-2.16-8.05-3.94-12.47-5.34-7.47-1.08-11.87-5.75-7.67-13.26.91-1.63,3.17-3.61,5.09-2.96.69-1.97,2.45-3.61,5.29-4.92,1.55-2.41,3.28-3.69,5.19-3.85-.58-5.28-.17-10.82,1.23-16.63l.94-13.83,1.88-1.72c-3.02-1.96-1.06-8.52.95-10.81-.72-3.99.7-10.11,1.82-14.58,4.3-17.16,8.53-31.37,17.15-47.06,5.59-10.16,12.92-22.07,21.45-29.31-.37-1.64.43-3.1,2.39-4.38,1.64-2.97,3.66-4.47,6.06-4.51,1.94-.7,3.77-2.28,5.56-4.11,8.78-8.94,19.27-15.32,29.49-22.44,2.24-1.56,5.39-1.65,7.11-3.03l2.02.18,26.36,105.11c-4.93-37.14-10.1-74.13-15.52-110.98l1.65-2.05c-.24-4.11,3.2-12.12,7.11-13.98,16.4-7.81,33.63-10.87,51.72-11.61,20.52-.83,40.25,4.42,59.35,11.65,2.68,4.77,4.82,9.87,5.48,14.66Z"/>
  <path class="cls-35" d="M695.93,435.79c.65,1.71-.16,2.25-1.37,2.98-.62,9.22,3.26,14.75,9.74,20.87-3.74,7.85-5.38,18.19,4.74,21.3,2.92-6.96,11.04-4.94,16.94-3.04,4.32,1.39,13.46,4.56,12.08,9.86,7.15,10.78,9.24,24.56,8.08,37.38-2.03,22.53-15.31,40.98-34.89,50.65l-1.18,2.15c-3.17.59-6.2.86-9.08.82-3.57,18.33-11.44,42.8-22.33,57.9l-2.22.66c-.05,2.8-1.71,5.59-4.64,5.95-5.58,8.51-12.77,16.57-21.58,24.17l-2.38-.14-1.59,3.24c-21.5,18.82-47.59,35-77.12,35.15-31.06.16-54.99-17.02-78.28-35.2l-1.37-3.35-2.1.67c-9.29-7.3-16.91-15.81-22.88-25.53-2.75,1.13-4.39-2.61-4.31-5.19l-2.24-.76c-10.3-14.79-19.68-39.81-22.07-57.65-2.38.54-9.36-.23-10.7-2.96-1.17.38-2.39.53-3.58.17-7.9-2.42-20.84-17.81-25.01-25.18-5.65-9.98-8.47-21.41-8.13-32.88.2-6.73,2.92-23.14,6.93-28.09.79-.98,1.89-1.54,3.09-1.88,1.84-4.8,10.42-9.49,15.56-10.84s11.15-2.01,13.38,3.95c9.71-2.41,10.4-12.97,6.24-20.61l.31-2.14c6.39-5.5,9.55-12.05,9.48-19.63l1.83-1.8,52.01,3.42c66.58,4.38,132.83,2.65,198.66-4.42Z"/>
  <path class="cls-12" d="M450.08,257.21c-2.6,3.08-4.79,6.95-8.44,8.89l-1.13,1.69-82.23-21.44-5.3,9,19.76,99.51,27.09.26,1.4,1.92c.96,3.44-1.15,7.38-.95,10.81l-1.02,1.95-15.4.74,11.84,25.39.54,4.1c-1.91,4.3-5.76,7.48-10.48,8.77l-2.21-.2-14.27-29.92c-1.21-.86-28.53-.31-29.51.81-.94,13.77-1.17,27.68-.7,41.75l.94,1.73c14.2.86,28.58,1,43.14.42l5.21,1.63c2.46,1.55,5.32,2.52,8.57,2.9,6.83,1.06,5.62,10.18,4.9,15.55-3.28,4.63-5,9.41-5.16,14.35,1.85,4.81,3.44,14.41-2.1,16.3-5.73-.62-11.51-.74-17.35-.35l-2.89-1.68c-.82.09-.96.71-.96,2.22v293.69c-3.36,1.33-5.66,2.39-7.81,3.94-.76.55-1.89.22-2.68.53l-1.92-.88-.15-50.39-39.33,33.91c8.05,7.45,16.25,14.78,24.61,21.98l-.64,2.33-10.61,3.97-2.79.23-16.82-13.17-.18,27.84-1.93,1.12c-.01,2.24-8.49,7.09-9.83,7.1v-333.11c0-1.21-.73-1.17-1.01-1.23-5.73-1.24-18.12,1.86-18.13-6.86l-.08-97.43-42.26.1-.03,74.38c-.47,3.14-2.58,4.89-5.66,4.89h-54.77c-3.14-.01-6.03-2.29-6.03-5.8l.05-75.77c0-1.6-.31-4.69,1.2-5.94l142.38-118.53c-.36-10.38,6.3-18.28,15-20.24,9.78-2.21,18.84,2.49,22.57,12.03l93.56,24.19Z"/>
  <path class="cls-25" d="M729.33,323.54l1.15.76,49.26,12.3,79.27,20.48,48.97-.02c2.77,0,4.65,1.21,6.43,3.3l47.05,55.28c1.55,1.83,1.06,5.02.35,6.38-.81,1.54-2.67,2.58-4.99,2.58l-75.37.24-.16,15.74c-.03,2.76-1.33,5.81-4.18,6.46-3.13.71-6.06.05-9.51.64l.04,76.03,9.81,9.61c3.47,3.4,3.87,7.03,2.33,11.52l-19.04,55.57c-2.23,6.51-10.86,3.32-15.78,4.4l-.21,10.41c-.36,17.98-16.08,19.85-21.52,26.61-6.59,8.21-5.25,19.95,1.94,26.86,7.11,6.83,18.37,7.86,26.4,1.48,11.34-9.01,6.3-22.88,15.45-21,9.86,2.03-.32,34.76-25.59,36.45-17.24,1.15-32.48-12.9-33.63-29.96-.88-13.03,6.97-23.74,17.77-29.73,8.98-4.99,9.23-9.97,8.52-21.14l-10.6-.24c-2.81-.06-4.44-1.89-5.33-4.46l-18.84-54.71c-1.68-4.89-1.18-8.67,2.44-12.47l9.49-9.95.02-75.4c-3.07-.57-5.37-.19-7.97-.46-9.48-.99-3.92-15.69-6.08-22.47l-49.59.46c4.14-2.93,9.75-3.18,9.39-11.13l2.12-1.73,9.42-.29-29.09-37.46-1.43-3.15c.2-4.55-3.63-9.58-1.87-14.35l.88-1.93,60.36-.44-64.61-16.56-.65-2.15c-2.47-3.58-2.78-8.42-4.37-12.48l1.52.1Z"/>
  <path class="cls-5" d="M283.23,794.45c-30.86-50.16-47.38-106.83-49.39-165.65-1.72-50.52,8.75-103.35,30.48-148.48,1.23-2.56,4.56-2.52,6.55-2.09,1.87.4,4.66,3.42,3.33,6.23-45.77,96.59-38.03,211.11,17.15,302.18,1.71,2.83,1.62,5.23-.14,7.23-1.5,1.71-6.26,3.41-7.99.58Z"/>
  <path class="cls-36" d="M711.25,575.78c-.12,4.18-2.26,7.81-5.24,11.46,7.18,8,6.77,18.79.26,27.12,6.81,8.03,6.02,18.99-.53,27.09,6.98,7.58,7.11,18.37.27,26.99,6.78,8.47,6.29,19.14.15,27.74,6.38,8.34,6.29,18.73,0,27.09,5.16,5.94,5.42,13.3,3.99,20.46l-10.49-3.73c-3.66-1.3-8.93-.55-10.58,2.88.8-3.03-12.07-7.9-11.41-7.72-.84-.25-.81-.53.05-.84l.85-1.09c-1.64-.96-1.5-2.65.42-5.07-6.12-7.19-6.64-19.96.21-26.53-6.94-7.04-6.16-19.65-.3-27.43-6.39-8.2-5.98-18.63-.6-27.24-3.06-3.56-3.68-6.78-1.86-9.65,1.16-4.42,4.87-8.73,7.16-13.19,7.57-14.68,12.28-30.04,16.03-46.44,3.77-1.17,8.04-1.21,11.62-1.91Z"/>
  <path class="cls-34" d="M961.15,619.13c-.99,78.79-21.81,146.49-63.5,213.04-1.82,2.9-4.08,4.54-7.35,3.53-2.39-.74-5.16-4.55-3-7.84,40.95-62.4,62.89-134.8,63.05-209.52,0-3.32,3.12-5.21,5.1-5.28,3.19-.11,5.74,2.29,5.7,6.06Z"/>
  <path class="cls-52" d="M243.92,818.79c2.28,3.73,3.94,6.47,5.47,9.82,1.23,2.69-.35,5.75-2.63,6.8-2.47,1.14-4.96.26-6.77-2.54-35.63-55.33-57.38-118.07-62.57-183.87-.9-11.37-1.4-21.44-.66-32.39.14-2.1,2.73-3.81,4.27-3.96,8.18-.83,5.53,18.42,6.16,26.62,1.92,24.87,5.07,48.95,11.38,73.08,9.9,37.87,24.85,72.84,45.35,106.44Z"/>
  <path class="cls-38" d="M736.03,428.97c.74,4.64,1.33,9.21-.79,13.98,7.07,6.55,8.01,15.88,3.02,23.86,5.85,6.42,3.71,14.5-.2,20.94-4.61-6.95-16.48-9.6-23.4-9.81-3.43.88-2.85,4.13-5.47,5.13-4.96-.78-8.18-5.16-9.3-8.84-1.58-5.2.21-9.54,2.85-14.2-6.3-4.76-10.37-10.69-9.81-18.52.09-1.18-.64-2.83-.03-4.07.43-.87,1.98-.76,3.03-1.63,13.5-1.45,26.75-4.45,40.1-6.82Z"/>
  <path class="cls-47" d="M809.26,308.24c-33.77-28.12-70.33-50.13-111.56-64.56-3-1.05-3.5-4.71-2.89-7.17.66-2.66,4.36-4.33,7.85-3.06,41.59,15.1,79.6,38.01,113.5,66.39,2.19,1.83,1.68,5.21.68,6.93s-4.89,3.71-7.59,1.47Z"/>
  <path class="cls-27" d="M492.25,227.63c4.37-3.48,9.86-4.68,14.51-7.74l12.93,90.61c1.15,8.06,2.36,15.38,2.9,23.24.07.96-1.43,1.28-1.97,1.23-.78-.07-1.88-.92-2.24-2.37l-26.14-104.97Z"/>
  <path class="cls-22" d="M645.17,227.64l-17.91,71.41c-1.81,7.21-6.88,32.05-9.74,35.55-.46.56-3.48.35-3.33-.71l16.22-113.28c5.63.66,9.98,4.86,14.76,7.04Z"/>
  <circle class="cls-9" cx="186.55" cy="548.62" r="21.5"/>
  <circle class="cls-45" cx="950.38" cy="537.52" r="21.4"/>
  <path class="cls-21" d="M854.42,793.16c-1.83,3.05-5.89,2.64-7.69,1.75-2.24-1.11-3-4.68-1.41-7.3,11.8-19.4,21.24-39.65,28.89-60.96,1.07-2.97,4.55-3.8,7.13-2.89,1.82.64,3.03,4.18,2.06,7.07-7.26,21.7-17,42.36-28.99,62.33Z"/>
  <path class="cls-16" d="M730.48,324.3c-.44-.11-1.53,0-1.15-.76.4.03,1.46.12,1.15.76Z"/>
  <path class="cls-30" d="M394.55,474.14c1.18,1.21,1.88,3.06,2.08,5.55,1.93,3.02,2.54,5.75,1.83,8.17-17.47,33.26-5.95,70.1,26.71,87.85l1.93,1.2c.74,3.5,2.07,6.85,3.99,10.07-6.02,9.16-5.36,18.14.06,27.42-3.29,4.9-4.67,10.01-4.13,15.32,1.48,3.33,1.78,6.18.91,8.54l1.99,2c.86.19,1.44.66,1.68,1.46-6.42,9.03-6.11,16.82-.41,26.2-1.22,3.67-2.71,7.25-4.48,10.72-.74,5.92.84,11.81,4.74,17.67-5.65,9.19-5.4,18.03.24,27.17-2.55,3.95-4.12,8.16-4.69,12.61.5,3.52-.06,6.15-1.7,7.87-2.07,2.57-5.58,3.04-8.49,4.63-13.47,7.33-28.11,12.37-42.49,19.19v-295.68c6.44-.7,12.95-.26,19.77-.32.54.33.46,2.04.46,2.35Z"/>
  <path class="cls-18" d="M460.19,637.08c2.48,3.22-.5,8-2.78,10.88,6.21,6.98,6.2,20.22-.55,26.59,6.72,6.73,6.67,19.99.35,27.04,6.14,7.08,5.64,18.47.81,26.48,1.39,2.25,1.36,3.95-.07,5.12l.79,1.15c2.11.03,1.65.6,0,1.73-4.96,2.46-9.38,2.57-10.69,6.61-9.04-7.52-15.3.84-22.75,1.28-.92-7.34-.17-14.58,4.71-20.5-6.4-8.8-6.05-18.96-.28-27.23-3.85-6.04-7.29-13.15-4.37-19.39l4.08-8.71c-10.87-17.29.76-24.43.47-27.88l-1.99-2c-4.2-8.82-4.47-15.4,1.51-23.88-5.96-8.76-6.38-19.19-.04-27.44-2.79-3.93-4.4-7.46-4.23-11.23,3.82-.28,7.58,1.46,11.98,1.9,3.5,16.39,8.34,32.07,16.23,46.85,2.38,4.46,5.63,8.08,6.81,12.62Z"/>
  <path class="cls-37" d="M464.5,642.27c2.69,4.06,5.24,8.18,7.67,12.36-7.12,9.51-5.25,18.08-.1,27.97-7.38,8.76-5.47,17.19-.07,26.42-4.15,6.31-6.39,13.1-3.3,20.37l-1.1,2.21c2.33,1.03,2.16,1.62-.34,1.86.27,2.53-1.03,2.75-2.67.82-1.97.3-4.01.88-5.84,1.79v-1.73s-.8-1.15-.8-1.15l-2.09-5.27c5.29-8.17,5.37-18.05-.36-26.35,6.08-8.65,6-18.72-.31-27.04,6.42-7.98,6.38-18.3.49-26.55,2.15-3.8,3.66-7.25,4.51-10.91,1.94.97,3.2,3.48,4.31,5.19Z"/>
  <path class="cls-37" d="M678.57,733.22l-.85,1.09c-.08.27,0,.57-.05.84l-3.89-1.06c-1.32-.17-2.54.01-3.63.55-.79-1.73-.87-3.17-.24-4.31-1.47-1.8-1.83-4.34-1.06-7.64-.18-4.84-1.52-9.47-4.01-13.87,5.11-8.86,5.45-17.36-.21-26.02,5.37-9.37,6.44-18.42.16-27.64,1.95-4.35,4.29-8.33,7.02-11.92.55-2.52,2.94-4.67,4.64-5.95.43,3.42,1.79,6.57,4.41,9.86-6.53,8.23-6.33,18.78.29,27-6.3,8.32-6.84,18.83-.27,27.48-6.31,7.8-6.19,18.21-.12,26.08-.13,2.32-1.65,3.73-2.19,5.5Z"/>
  <path class="cls-2" d="M673.78,734.1c-1.09-.1-2.26,0-2.76.76-.6.92.13,2.09-.32,3.18-9.02,21.58-25.72,38.31-46.19,49.42-15.95,8.66-33.63,12.51-51.81,13.52-12.74.71-25.32-1.87-37.69-4.84-21.29-5.12-48.39-22.8-59.89-41.73l-9.43-15.53c-.84-1.38.29-3.8-1.1-4.6.87-.13,1.7-.96,2.67-.82,2.43,2.01,4.18,4.99,5.23,8.93,40.57,74.34,159.12,72.15,194.1-5.43-.06-2.96.67-5.1,2.18-6.41.23-.92.61-.99,1.15-.21-.37,2.37,1.97,3.24,3.87,3.76Z"/>
  <path class="cls-53" d="M334.83,783.41c-5.24,1.96-11.01,7.65-12.3,13.04-3.26.07-7.47,5.21-9.41,2.99l.22-33.16,21.5,17.14Z"/>
  <path class="cls-30" d="M362.87,772.49l-17.42,6.95c-2.18-3.95-26.99-22.11-26.25-24.13.37-1,1-1.73,1.88-2.49l41.75-35.88.04,55.54Z"/>
  <path class="cls-30" d="M441.64,266.1c.45.92,0,1.83-.9,2.89-20.23,23.79-33.03,52.29-37.44,83.31-.3,2.11-.9,3.75-2.08,4.74l-30.02-.03-20.34-102.44c2.8-3.38,4.6-6.22,6.14-10.54l84.63,22.07Z"/>
  <path class="cls-8" d="M705.28,410.23c-58.94-12.58-108.66-12.69-168.82-11.73-35.12.56-69.18,4.66-103.42,11.67-2.03.41-3.96-.53-4.41-2.07-.42-1.4.35-3.16,2.41-3.87,9.12-3.14,17.93-5.26,27.56-7.11,65.81-12.65,153.37-13.09,219.13-.09,5.69,1.13,33.18,5.71,31.38,11.28-.29.89-2.2,2.26-3.84,1.91Z"/>
  <path class="cls-38" d="M445.27,436.8c1.37,18.93-12.35,19.38-9.34,24.51,2.24,3.82,2.98,9.76.91,14.04-1.52,3.13-4.78,7.54-9.62,7.45-2.03-.04-2.38-4.15-4.25-4.47-7.9-1.22-15.31,2.77-21.13,7.84-1.17,1.02-2.14,1.82-3.37,1.7-1.86-3.78-5.61-9.23-3.91-13.72,6.46-17.04-6.6-11.84,5.06-30.18,1.53-3.53.62-8.89.05-12.57-.78-5.06-10.72-2.2-11.32-6.35,18.65,5,37.61,10.49,56.93,11.77Z"/>
  <path class="cls-30" d="M385.76,408.81c-.6,1.62-2.34,2.53-3.53,4.08-2.76,3.58-.89,8.26,3.16,10.05,1.13.5,2.8,1,2.96,2.09-15.35,1.05-30.8.22-46.71.51-2.81.05-4.67-2.68-4.55-5.13l-.02-38.37c0-3.46,2.18-5.51,5.6-5.48l28,.24,15.09,32.02Z"/>
  <path class="cls-37" d="M736.21,357c-1.37,1.67-5.74-22.32-4.03-21.08l80.33,20.59-76.3.48Z"/>
  <path class="cls-26" d="M757.06,413.98c-8.51-6.96-17.15-5.45-18.08-17.56-.67-8.77-1.27-16.98-.9-25.08.68.32,1.81.51,2.52,1.43l31.7,40.73c-5.59.63-10.64,1.04-15.24.48Z"/>
  <path class="cls-37" d="M400.28,367.85c.35,5.85-1.55,26.55-4.05,32.19-.52-.47-1.23-1.05-1.68-2.02l-13.8-29.58,19.53-.58Z"/>
  <path class="cls-44" d="M647.84,667.29l1.8,2.11-1,22.89c.61,15.89,5.16,27.53,19.42,36,.51.46-.17,1.65-.89,2.26.02,3.78-5.71,6.36-9.08,7.82-62.06,26.88-119.94-5.53-165.6-47.55l-.73,10.17-2.24,1.65c-.74-.2-1.89-.52-1.92-1.06-.5-9.64-.32-21.89.21-31.58l1.67-2.87c1.9,1.76,4.32,2.8,6.67,4.73,12.79,10.49,30,22.19,45.67,27.47,37.79,12.72,72.27-3.55,100.55-28.14,1.83-1.59,3.66-3.01,5.46-3.9Z"/>
  <path class="cls-37" d="M614.57,609.19c-8.59,7.9-18.05,13.1-29.29,15.39-24.93,5.08-53.69-.68-69.04-22.51-.9-1.28-1.76-2.84-.89-4.17l106.78-.05c-.5,4.92-4.01,8.07-7.57,11.34Z"/>
  <path class="cls-49" d="M489.48,667.13c.87,7.75.08,15.63.06,23.9l-.02,11.61c2.87,4.8-2.36,13.48-5.57,17.87-1.85,2.54-12.34,13.84-15.1,12.19-.47-.28-.87-.68-1.25-1.1-3.69-7.29-2.9-16.24,2.73-22.66-6.31-8.87-7.45-18.84.07-26.51-5.84-9.46-7.42-18.99.1-27.82-2.91-4.03-4.98-8.03-6-12.34l12.93,13.71,12.04,11.15Z"/>
  <path class="cls-6" d="M671.8,643.26c-.86,3.96-2.19,7.67-5.34,11.89,6.57,8.12,5.86,18.8-.13,27.63,5.84,7.58,5.99,17.41.24,26.06,4.51,6.62,4.97,14.15,3.34,21.5-.4-.02-.77.16-1.15.21-.14,1.93-.99,1.88-1.6,0-.16-.89-.95-1.46-1.86-2.02-23.15-14.2-18.66-38.69-17.47-61.24,1.65-1.98,3.35-4.13,5.74-6.02,6.77-5.38,12.13-12.04,17.5-18.76.34-.04.46.58.72.75Z"/>
  <path class="cls-40" d="M433.48,554.26c-12.62-1.31-22.2-10.39-25.83-22.25s-3.05-23.35,4.07-33.07c3.6-4.92,11.21-6.01,16.13-2.63,1.14,19.25,2.59,37.21,5.63,57.94Z"/>
  <path class="cls-51" d="M728.35,503.18c8.39,21.13,0,46.57-24.15,51.53l3.73-36.11c.72-7,.1-16.02,2.47-22.41,6.2-5.34,15.23.14,17.95,6.99Z"/>
  <path class="cls-17" d="M502,462.64c-11.96-.86-23.78,2.81-33.31,9.63-2,1.43-3.73,1.3-5.19-.43-4.7-5.56,19.3-19.11,34.59-19.88,11.58-.58,24.2.71,34.32,6.17,3.25,1.75-1.01,9.37-4.13,8.96-9.15-1.19-17.16-3.8-26.28-4.46Z"/>
  <path class="cls-20" d="M667.95,471.7c-10.61-7.9-23.62-10.96-36.35-8.72l-22.25,3.9c-3.64.64-7.02-5.93-5.35-8.81,24.3-9.81,48.15-9.12,68.59,8.34,2.16,1.85,2.63,3.98,1.37,5.41-1.91,2.17-3.72,1.58-6.01-.13Z"/>
  <path class="cls-14" d="M514.59,511.18c-3.04,5.96-10.53,9.67-16.14,5.8-9-6.21-10.22-20.49-3.37-28.37,4.81-5.53,12.23-5.62,16.72-.24,5.1,6.11,6.65,15.29,2.8,22.81Z"/>
  <path class="cls-48" d="M642.39,513.31c-2.21,3.29-5.46,5.15-8.51,5.11-3.3-.04-7.21-1.43-9.52-4.72-5.24-7.49-4.71-18.98,1.21-26.05,2.34-2.8,6.67-3.58,10.02-3.13,7.55,1.01,15.51,15.82,6.8,28.79Z"/>
  <path class="cls-1" d="M565.98,572.49c-8.61-.28-16.18-4.13-23.05-7.71-2-1.04-2.33-3.37-2.5-4.73-1.77-14.1,18.4,12.74,49.48-2.88,1.53-.77,3.55-3.32,5.46-1.51,1.56,1.49,1.48,7.09-.67,8.48-8.17,5.26-18.33,8.69-28.73,8.35Z"/>
  <path class="cls-42" d="M554.1,640.92c24.77,7.25,32.1-3.61,35.53.44,1.1,1.3,1.08,3.53.65,4.84-.65,1.96-2.73,1.39-4.48,1.97-11.46,3.81-23.08,3.61-34.51-.56-1.51-.55-3.23-.64-3.37-2.23s-.23-3.63,1.19-4.71c1.09-.83,3.32-.24,4.98.25Z"/>
  <path class="cls-23" d="M502.1,591.8c-3.77,3.87-1.88,9.86-4.02,14.1-1.29,2.55-6.23-.66-6.25-3.58-.11-15.05,13.57-26.68,17.16-21.68.85,1.18.69,3.38-.57,4.67l-6.32,6.49Z"/>
  <path class="cls-39" d="M644.65,605.09c-.38,1.91-5.57,1.74-5.69.25-1.5-18.54-10.61-17.23-11.04-21.45-.16-1.59-.46-4.06,1.56-4.41,7.99-1.37,17.31,14.96,15.17,25.6Z"/>
  <path class="cls-30" d="M304.91,357.16l-107.3-.35,63.49-53.39,59.61-49.74c.86-.82,2.16-1.35,3.09-.99.82.32,1.64,1.89,1.32,3.49l-20.21,100.98Z"/>
  <rect class="cls-30" x="187.48" y="368.97" width="41.82" height="65.72"/>
  <polygon class="cls-30" points="357.96 609.48 313.45 648.26 313.27 571.78 357.96 609.48"/>
  <polygon class="cls-30" points="357.89 706.41 313.34 745.02 313.27 669.06 357.89 706.41"/>
  <polygon class="cls-30" points="357.56 512.41 313.44 551.21 313.38 475.2 357.56 512.41"/>
  <polygon class="cls-30" points="362.59 599.27 317.97 561.53 362.67 522.99 362.59 599.27"/>
  <polygon class="cls-30" points="362.67 696.23 318.33 658.73 362.48 620.43 362.67 696.23"/>
  <path class="cls-30" d="M323.53,354.73c-2.14,2.34-5.22,3.17-7.53,1.57l9.35-44.64,25.67,21.03-27.49,22.04Z"/>
  <polygon class="cls-19" points="362.36 471.66 362.28 502.17 327.7 472.43 362.36 471.66"/>
  <path class="cls-37" d="M352.51,321.27c-8.32-5.73-14.9-11.74-22.41-18.26,5.47-5.32,10.25-10.34,16.2-14.76l6.21,33.02Z"/>
  <path class="cls-54" d="M344.21,276.25c-4.85,5-8.98,9.18-14.53,13.81l5.81-29.71c.39-1.99,4.35-1.68,5.44-.47l3.28,16.37Z"/>
  <path class="cls-54" d="M359.95,356.88l-23.73-.21,20.18-16.25c1.85,5.33,2.36,9.96,3.55,16.46Z"/>
  <rect class="cls-30" x="804.85" y="462.11" width="69.05" height="39.35" transform="translate(357.36 1321.03) rotate(-89.98)"/>
  <polygon class="cls-30" points="817.3 368.03 784.46 411.32 750.76 368.07 817.3 368.03"/>
  <polygon class="cls-30" points="904.12 368.04 871.92 410.76 838.6 368.06 904.12 368.04"/>
  <polygon class="cls-30" points="860.27 413.77 795.68 413.96 828.02 371.75 860.27 413.77"/>
  <polygon class="cls-30" points="944.82 413.48 883.58 413.95 912.72 374.38 944.82 413.48"/>
  <rect class="cls-4" x="808.57" y="424.94" width="62.27" height="12.52"/>
  <circle class="cls-37" cx="839.29" cy="546.64" r="12.44"/>
  <path class="cls-13" d="M707.35,706.33c-1.92,5.66-9.29,24.14-16.43,21.84-6.35-2.05,4.3-16.85,7.22-22.4,1.09-2.07,3.02-3.12,4.86-3.02,1.44.08,5.1,1.36,4.35,3.58Z"/>
  <path class="cls-24" d="M707.08,680.47c-.82,4.03-8.63,25.33-16.28,20.39-2.18-1.4-1-5.37-.09-7.19l6.74-13.37c1.16-2.29,2.26-3.8,4.69-3.8,1.87,0,5.56.92,4.93,3.98Z"/>
  <path class="cls-50" d="M698.06,644.39c-1.37,1.95-6.48,4.32-7.66,1.29-1.85-4.75,2.21-10.04,4.25-14.1,2.78-5.51,5.1-13.15,10.73-10.2,2.59,1.36,2.05,3.87,1,6.52-2.35,5.94-4.56,11.13-8.32,16.49Z"/>
  <path class="cls-32" d="M706.39,653.58c-1.62,5.21-8.92,23.06-15.63,20.02-5.56-2.52,4.62-15.97,7.68-22.07.99-1.97,2.83-2.91,4.53-2.64,1.88.3,4.23,2.11,3.42,4.7Z"/>
  <path class="cls-29" d="M677.72,734.31c.13-.42.19-1.5.85-1.09-.13.45.02,1.49-.85,1.09Z"/>
  <path class="cls-7" d="M730.85,455.7c-2.76,4.82-7.36-3.87-19.9-10.26-1.5-.76-1.38-6.14.34-6.19,10.46-.25,22.65,11.04,19.56,16.44Z"/>
  <circle class="cls-26" cx="186.55" cy="548.61" r="11.18"/>
  <circle class="cls-26" cx="950.34" cy="537.43" r="11.06"/>
  <path class="cls-31" d="M429.92,640.26c-.9-.37-1.57-1.13-1.99-2,.99.26,1.89.92,1.99,2Z"/>
  <path class="cls-31" d="M438.36,624.88c3.24,7.89,12.37,20.33,6.17,21.96-6.68,1.76-9.56-9.66-14.03-16.67-1.09-1.71-1.97-4.2-1.44-6.44.33-1.42,3.16-2.1,5.26-2.45,1.44-.24,3.21,1.55,4.05,3.59Z"/>
  <path class="cls-15" d="M442.04,728.38c-3.72-1.19-4.72-4.15-6.15-6.94-2.54-4.95-6-9.42-6.57-15.12-.23-2.23,2.51-3.44,4.09-3.65,1.91-.25,4.03,1.04,4.87,3.16,4.47,11.43,14.4,22.36,3.77,22.55Z"/>
  <path class="cls-28" d="M437.38,677.74c2.51,4.07,11.61,19.9,7.69,23.07-1.53,1.24-4.18.84-5.6-1.12-2.72-3.75-12.31-16.85-10.25-21.11,1-2.08,6.73-3.16,8.16-.85Z"/>
  <path class="cls-29" d="M458.74,734.34c-.67.29-.64-.75-.79-1.15.64-.32.79.74.79,1.15Z"/>
  <path class="cls-46" d="M667.16,730.56c.53,0,1.07.06,1.6,0,2.29,11.72-11.98,26.3-19.47,34.77-34.98,39.57-101.22,43.25-144.73,14.53-7.72-5.1-14.49-10.03-20.39-17.29-7.24-8.91-14.49-18.04-16.92-29.09-.12-.57.38-1.27.34-1.86,3.56-.23,5.91-3.46,8.65-5.73,7.49-6.21,11.47-14.26,13.27-23.22,1.04-5.21,1.01-10.16,1.14-16.23l9.14,8.02c21.25,18.65,44.15,35.29,71.03,44.72s56.44,9.6,83.34-1.16c5.01-2,9.04-4.51,13-7.44Z"/>
</svg>